SplineFontDB: 3.0
FontName: NewCode-Bold
FullName: New Code Bold
FamilyName: New Code Bold
Weight: Bold
Copyright: (c) 2015 Adobe & Nathan Rutzky & Guillaume Vivies
Version: 1.001
ItalicAngle: 0
UnderlinePosition: -100
UnderlineWidth: 50
Ascent: 750
Descent: 250
InvalidEm: 0
sfntRevision: 0x00010000
LayerCount: 2
Layer: 0 0 "Arri+AOgA-re" 1
Layer: 1 0 "Avant" 0
XUID: [1021 924 1960966456 21368]
StyleMap: 0x0040
FSType: 8
OS2Version: 3
OS2_WeightWidthSlopeOnly: 0
OS2_UseTypoMetrics: 0
CreationTime: 1432775451
ModificationTime: 1556094797
PfmFamily: 81
TTFWeight: 700
TTFWidth: 5
LineGap: 0
VLineGap: 0
Panose: 0 0 8 9 0 0 0 0 0 0
OS2TypoAscent: 750
OS2TypoAOffset: 0
OS2TypoDescent: -250
OS2TypoDOffset: 0
OS2TypoLinegap: 0
OS2WinAscent: 984
OS2WinAOffset: 0
OS2WinDescent: 273
OS2WinDOffset: 0
HheadAscent: 984
HheadAOffset: 0
HheadDescent: -273
HheadDOffset: 0
OS2SubXSize: 650
OS2SubYSize: 600
OS2SubXOff: 0
OS2SubYOff: 75
OS2SupXSize: 650
OS2SupYSize: 600
OS2SupXOff: 0
OS2SupYOff: 350
OS2StrikeYSize: 50
OS2StrikeYPos: 306
OS2CapHeight: 660
OS2XHeight: 510
OS2Vendor: 'GVIV'
OS2CodePages: 20000193.00000000
OS2UnicodeRanges: 00000007.00000000.00000000.00000000
Lookup: 260 0 0 "'mark' Positionnement de signe dans Latin lookup 0" { "sous-table 'mark' Positionnement de signe dans Latin lookup 0"  } ['mark' ('DFLT' <'dflt' > 'latn' <'CAT ' 'dflt' > ) ]
Lookup: 262 256 0 "'mkmk' Signe sur signe dans Latin lookup 1" { "sous-table 'mkmk' Signe sur signe dans Latin lookup 1"  } ['mkmk' ('DFLT' <'dflt' > 'latn' <'CAT ' 'dflt' > ) ]
Lookup: 262 512 0 "'mkmk' Signe sur signe dans Latin lookup 2" { "sous-table 'mkmk' Signe sur signe dans Latin lookup 2"  } ['mkmk' ('DFLT' <'dflt' > 'latn' <'CAT ' 'dflt' > ) ]
MarkAttachClasses: 3
"Classe de signes 1" 7 uni0327
"Classe de signes 2" 93 acutecomb uni0306 uni030C uni0302 uni0308 uni0307 gravecomb uni030B uni0304 uni030A tildecomb
DEI: 91125

StartChar: .notdef
Encoding: 65536 -1 0
Width: 600
Flags: HMW
HStem: 0 91<218 382 218 565> 568 92<224 376 224 224>
VStem: 35 99<155 155 155 526> 466 99<155 526 526 526>
LayerCount: 2
Fore
SplineSet
35 0 m 1
 35 660 l 1
 565 660 l 1
 565 0 l 1
 35 0 l 1
298 414 m 1
 302 414 l 1
 344 510 l 1
 376 568 l 1
 224 568 l 1
 255 510 l 1
 298 414 l 1
134 155 m 1
 228 340 l 1
 134 526 l 1
 134 155 l 1
466 155 m 1
 466 526 l 1
 372 340 l 1
 466 155 l 1
218 91 m 1
 382 91 l 1
 343 168 l 1
 302 266 l 1
 298 266 l 1
 257 168 l 1
 218 91 l 1
EndSplineSet
Validated: 1
EndChar

StartChar: A
Encoding: 65 65 2
Width: 600
GlyphClass: 2
Flags: HMW
HStem: 0 21G<9 9 9 159 435 435 435 591> 158 115<229 366 229 396 199 366> 548 112<295 299 295 295>
VStem: 9 582<0 0>
LayerCount: 2
Fore
SplineSet
9 0 m 1
 212 660 l 1
 388 660 l 1
 591 0 l 1
 435 0 l 1
 396 158 l 1
 199 158 l 1
 159 0 l 1
 9 0 l 1
229 273 m 1
 366 273 l 1
 351 335 l 1
 299 548 l 1
 295 548 l 1
 279 478 260 401 244 335 c 2
 229 273 l 1
EndSplineSet
Validated: 1
EndChar

StartChar: Aacute
Encoding: 193 193 3
Width: 600
GlyphClass: 2
Flags: HMW
HStem: 0 21G<9 9 9 159 435 435 435 591> 158 115<229 366 229 396 199 366> 546 113<295 299 295 295> 709 121<225 462 306 342>
VStem: 9 582<0 0>
LayerCount: 2
Fore
SplineSet
225 709 m 1
 306 830 l 1
 462 830 l 1
 342 709 l 1
 225 709 l 1
9 0 m 1
 212 660 l 1
 388 660 l 1
 591 0 l 1
 435 0 l 1
 396 158 l 1
 199 158 l 1
 159 0 l 1
 9 0 l 1
229 273 m 1
 366 273 l 1
 351 334 l 2
 335 400 316 478 299 546 c 1
 295 546 l 1
 279 477 260 400 244 334 c 2
 229 273 l 1
EndSplineSet
Validated: 1
EndChar

StartChar: Abreve
Encoding: 258 258 4
Width: 600
GlyphClass: 2
Flags: HMW
HStem: 0 21G<9 9 9 159 435 435 435 591> 158 115<229 366 229 396 199 366> 546 113<295 299 295 295> 709 121<163 343.5>
VStem: 9 582<0 0>
LayerCount: 2
Fore
SplineSet
300 709 m 0
 213 709 171 759 163 830 c 1
 244 830 l 1
 250 804 266 783 300 783 c 0
 334 783 350 804 356 830 c 1
 437 830 l 1
 429 759 387 709 300 709 c 0
9 0 m 1
 212 660 l 1
 388 660 l 1
 591 0 l 1
 435 0 l 1
 396 158 l 1
 199 158 l 1
 159 0 l 1
 9 0 l 1
229 273 m 1
 366 273 l 1
 351 334 l 2
 335 400 316 478 299 546 c 1
 295 546 l 1
 279 477 260 400 244 334 c 2
 229 273 l 1
EndSplineSet
Validated: 1
EndChar

StartChar: uni01CD
Encoding: 461 461 5
Width: 600
GlyphClass: 2
Flags: HMW
HStem: 0 21G<9 9 9 159 435 435 435 591> 158 115<229 366 229 396 199 366> 546 113<295 299 295 295> 709 121<228 228 228 245 355 372>
VStem: 9 582<0 0>
LayerCount: 2
Fore
SplineSet
228 709 m 1
 132 830 l 1
 245 830 l 1
 298 768 l 1
 302 768 l 1
 355 830 l 1
 468 830 l 1
 372 709 l 1
 228 709 l 1
9 0 m 1
 212 660 l 1
 388 660 l 1
 591 0 l 1
 435 0 l 1
 396 158 l 1
 199 158 l 1
 159 0 l 1
 9 0 l 1
229 273 m 1
 366 273 l 1
 351 334 l 2
 335 400 316 478 299 546 c 1
 295 546 l 1
 279 477 260 400 244 334 c 2
 229 273 l 1
EndSplineSet
Validated: 1
EndChar

StartChar: Acircumflex
Encoding: 194 194 6
Width: 600
GlyphClass: 2
Flags: HMW
HStem: 0 21G<9 9 9 159 435 435 435 591> 158 115<229 366 229 396 199 366> 546 113<295 299 295 295> 709 121<132 372 228 245 355 355 355 372 228 468>
VStem: 9 582<0 0>
LayerCount: 2
Fore
SplineSet
132 709 m 1
 228 830 l 1
 372 830 l 1
 468 709 l 1
 355 709 l 1
 302 771 l 1
 298 771 l 1
 245 709 l 1
 132 709 l 1
9 0 m 1
 212 660 l 1
 388 660 l 1
 591 0 l 1
 435 0 l 1
 396 158 l 1
 199 158 l 1
 159 0 l 1
 9 0 l 1
229 273 m 1
 366 273 l 1
 351 334 l 2
 335 400 316 478 299 546 c 1
 295 546 l 1
 279 477 260 400 244 334 c 2
 229 273 l 1
EndSplineSet
Validated: 1
EndChar

StartChar: Adieresis
Encoding: 196 196 7
Width: 600
GlyphClass: 2
Flags: HMW
HStem: 0 21G<9 9 9 159 435 435 435 591> 158 115<229 366 229 396 199 366> 547 112<295 299 295 295> 708 140<180.5 221.5 378.5 419.5>
VStem: 131 140<758 798> 329 140<758 798>
LayerCount: 2
Fore
SplineSet
201 708 m 0
 160 708 131 738 131 778 c 0
 131 818 160 848 201 848 c 0
 242 848 271 818 271 778 c 0
 271 738 242 708 201 708 c 0
399 708 m 0
 358 708 329 738 329 778 c 0
 329 818 358 848 399 848 c 0
 440 848 469 818 469 778 c 0
 469 738 440 708 399 708 c 0
9 0 m 1
 212 660 l 1
 388 660 l 1
 591 0 l 1
 435 0 l 1
 396 158 l 1
 199 158 l 1
 159 0 l 1
 9 0 l 1
229 273 m 1
 366 273 l 1
 351 334 l 1
 299 547 l 1
 295 547 l 1
 279 477 260 400 244 334 c 2
 229 273 l 1
EndSplineSet
Validated: 1
EndChar

StartChar: Agrave
Encoding: 192 192 8
Width: 600
GlyphClass: 2
Flags: HMW
HStem: 0 21G<9 9 9 159 435 435 435 591> 158 115<229 366 229 396 199 366> 546 113<295 299 295 295> 709 121<258 258 258 294 138 375>
VStem: 9 582<0 0>
LayerCount: 2
Fore
SplineSet
258 709 m 1
 138 830 l 1
 294 830 l 1
 375 709 l 1
 258 709 l 1
9 0 m 1
 212 660 l 1
 388 660 l 1
 591 0 l 1
 435 0 l 1
 396 158 l 1
 199 158 l 1
 159 0 l 1
 9 0 l 1
229 273 m 1
 366 273 l 1
 351 334 l 2
 335 400 316 478 299 546 c 1
 295 546 l 1
 279 477 260 400 244 334 c 2
 229 273 l 1
EndSplineSet
Validated: 1
EndChar

StartChar: Amacron
Encoding: 256 256 9
Width: 600
GlyphClass: 2
Flags: HMW
HStem: 0 21G<9 9 9 159 435 435 435 591> 158 115<229 366 229 396 199 366> 547 112<295 299 295 295> 728 93<159 441 159 441>
VStem: 159 282<728 821 728 821>
LayerCount: 2
Fore
SplineSet
159 728 m 1
 159 821 l 1
 441 821 l 1
 441 728 l 1
 159 728 l 1
9 0 m 1
 212 660 l 1
 388 660 l 1
 591 0 l 1
 435 0 l 1
 396 158 l 1
 199 158 l 1
 159 0 l 1
 9 0 l 1
229 273 m 1
 366 273 l 1
 351 335 l 1
 299 547 l 1
 295 547 l 1
 279 477 260 401 244 335 c 2
 229 273 l 1
EndSplineSet
Validated: 1
EndChar

StartChar: Aogonek
Encoding: 260 260 10
Width: 600
GlyphClass: 2
Flags: HMW
HStem: -225 95<476 547.5> 0 21G<9 159 9 9 435 475 435 435 591 591> 158 115<229 366 229 396 199 366> 548 112<295 299 295 295>
VStem: 394 107<-104.5 -99>
LayerCount: 2
Fore
SplineSet
508 -225 m 0
 444 -225 394 -191 394 -130 c 0
 394 -68 442 -19 475 0 c 1
 435 0 l 1
 396 158 l 1
 199 158 l 1
 159 0 l 1
 9 0 l 1
 212 660 l 1
 388 660 l 1
 591 0 l 1
 536 -5 501 -51 501 -92 c 0
 501 -117 519 -130 540 -130 c 0
 555 -130 569 -123 579 -116 c 1
 613 -190 l 1
 587 -210 543 -225 508 -225 c 0
229 273 m 1
 366 273 l 1
 351 335 l 1
 299 548 l 1
 295 548 l 1
 279 478 260 401 244 335 c 2
 229 273 l 1
EndSplineSet
Validated: 1
EndChar

StartChar: Aring
Encoding: 197 197 11
Width: 600
GlyphClass: 2
Flags: HMW
HStem: 0 21G<9 9 9 159 435 435 435 591> 158 115<229 366 229 396 199 366> 547 112<295 299 295 295> 704 55<288.5 311 288.5 333.5> 847 55<288.5 311>
VStem: 187 72<789.5 816 789.5 832.5> 340 73<789.5 816>
LayerCount: 2
Fore
SplineSet
300 704 m 0
 233 704 187 742 187 803 c 0
 187 862 233 902 300 902 c 0
 367 902 413 862 413 803 c 0
 413 742 367 704 300 704 c 0
300 759 m 0
 322 759 340 776 340 803 c 0
 340 829 322 847 300 847 c 0
 277 847 259 829 259 803 c 0
 259 776 277 759 300 759 c 0
9 0 m 1
 212 660 l 1
 388 660 l 1
 591 0 l 1
 435 0 l 1
 396 158 l 1
 199 158 l 1
 159 0 l 1
 9 0 l 1
229 273 m 1
 366 273 l 1
 351 334 l 1
 299 547 l 1
 295 547 l 1
 279 477 260 400 244 334 c 2
 229 273 l 1
EndSplineSet
Validated: 1
EndChar

StartChar: Atilde
Encoding: 195 195 12
Width: 600
GlyphClass: 2
Flags: HMW
HStem: 0 21G<9 9 9 159 435 435 435 591> 158 115<229 366 229 396 199 366> 547 112<295 299 295 295> 711 137<130 264 130 264 211 389>
VStem: 130 75<711 711> 395 75<848 848>
LayerCount: 2
Fore
SplineSet
130 711 m 1
 140 802 185 848 237 848 c 0
 291 848 326 802 357 802 c 0
 374 802 388 814 395 848 c 1
 470 848 l 1
 460 756 415 711 363 711 c 0
 309 711 274 757 243 757 c 0
 226 757 212 744 205 711 c 1
 130 711 l 1
9 0 m 1
 212 660 l 1
 388 660 l 1
 591 0 l 1
 435 0 l 1
 396 158 l 1
 199 158 l 1
 159 0 l 1
 9 0 l 1
229 273 m 1
 366 273 l 1
 351 335 l 1
 299 547 l 1
 295 547 l 1
 279 477 260 401 244 335 c 2
 229 273 l 1
EndSplineSet
Validated: 1
EndChar

StartChar: AE
Encoding: 198 198 13
Width: 600
GlyphClass: 2
Flags: HMW
HStem: 0 124<441 595 441 595> 152 114<227 311 227 311 193 311> 279 124<441 559 441 559> 536 124<441 586 441 441> 549 111<308 311 308 308>
VStem: 311 130<124 152 152 152 266 279 403 536>
LayerCount: 2
Fore
SplineSet
-3 0 m 1xb4
 206 660 l 1
 586 660 l 1
 586 536 l 1
 441 536 l 1
 441 403 l 1
 559 403 l 1
 559 279 l 1
 441 279 l 1
 441 124 l 1
 595 124 l 1
 595 0 l 1
 311 0 l 1xb4
 311 152 l 1
 193 152 l 1xf4
 148 0 l 1
 -3 0 l 1xb4
227 266 m 1xec
 311 266 l 1
 311 549 l 1
 308 549 l 1
 291 483 272 419 255 361 c 2
 227 266 l 1xec
EndSplineSet
Validated: 1
EndChar

StartChar: B
Encoding: 66 66 14
Width: 600
GlyphClass: 2
Flags: HMW
HStem: 0 114<231 295 295 307> 289 104<231 281 281 295 231 281> 546 114<231 282 231 231>
VStem: 84 147<114 114 114 289 393 546> 383 144<466.5 500.5> 413 144<175 234.5>
LayerCount: 2
Fore
SplineSet
84 0 m 1xf4
 84 660 l 1
 288 660 l 2
 423 660 527 623 527 496 c 0xf8
 527 437 490 374 413 353 c 1
 413 349 l 1
 506 332 557 283 557 194 c 0
 557 60 448 0 307 0 c 2
 84 0 l 1xf4
231 393 m 1
 281 393 l 2
 353 393 383 425 383 475 c 0
 383 526 351 546 282 546 c 2
 231 546 l 1
 231 393 l 1
231 114 m 1
 295 114 l 2
 375 114 413 145 413 205 c 0xf4
 413 264 376 289 295 289 c 2
 231 289 l 1
 231 114 l 1
EndSplineSet
Validated: 1
EndChar

StartChar: uni0243
Encoding: 579 579 15
Width: 600
GlyphClass: 2
Flags: HMW
HStem: 0 105<231 297 297 309> 177 71<9 84 231 337> 314 87<231 284 284 297 231 284> 554 106<231 285 231 231>
VStem: 84 147<105 105 105 177 105 177 248 314 401 554> 387 140<473 509> 419 141<178 248.5>
LayerCount: 2
Fore
SplineSet
84 0 m 1xfa
 84 177 l 1
 9 177 l 1
 9 242 l 1
 84 248 l 1
 84 660 l 1
 290 660 l 2
 426 660 527 621 527 501 c 0xfc
 527 445 494 390 418 370 c 1
 418 366 l 1
 511 348 560 296 560 202 c 0
 560 63 451 0 309 0 c 2
 84 0 l 1xfa
231 401 m 1
 284 401 l 2
 354 401 387 430 387 484 c 0
 387 534 353 554 285 554 c 2
 231 554 l 1
 231 401 l 1
231 105 m 1
 297 105 l 2
 376 105 419 143 419 213 c 0xfa
 419 284 378 314 297 314 c 2
 231 314 l 1
 231 248 l 1
 337 248 l 1
 337 177 l 1
 231 177 l 1
 231 105 l 1
EndSplineSet
Validated: 1
EndChar

StartChar: C
Encoding: 67 67 16
Width: 600
GlyphClass: 2
Flags: HMW
HStem: -12 127<323 395.5 323 404> 545 127<320 389.5>
VStem: 55 151<263 398 263 435.5>
LayerCount: 2
Fore
SplineSet
363 -12 m 0
 195 -12 55 105 55 326 c 0
 55 545 192 672 366 672 c 0
 449 672 515 632 559 588 c 1
 478 497 l 1
 447 526 413 545 366 545 c 0
 274 545 206 465 206 331 c 0
 206 195 274 115 372 115 c 0
 419 115 456 138 488 174 c 1
 569 85 l 1
 515 21 445 -12 363 -12 c 0
EndSplineSet
Validated: 1
EndChar

StartChar: Cacute
Encoding: 262 262 17
Width: 600
GlyphClass: 2
Flags: HMW
HStem: -12 127<323 395.5 323 404> 544 127<320 389.5> 709 121<279 516 360 396>
VStem: 55 151<262 396.5 262 434>
LayerCount: 2
Fore
SplineSet
279 709 m 1
 360 830 l 1
 516 830 l 1
 396 709 l 1
 279 709 l 1
363 -12 m 0
 195 -12 55 104 55 325 c 0
 55 543 192 671 366 671 c 0
 449 671 515 630 559 587 c 1
 478 496 l 1
 447 524 413 544 366 544 c 0
 274 544 206 463 206 330 c 0
 206 194 274 115 372 115 c 0
 419 115 456 138 488 174 c 1
 569 85 l 1
 515 21 445 -12 363 -12 c 0
EndSplineSet
Validated: 1
EndChar

StartChar: Ccaron
Encoding: 268 268 18
Width: 600
GlyphClass: 2
Flags: HMW
HStem: -12 127<323 395.5 323 404> 544 127<320 389.5> 709 121<282 282 282 298 409 425>
VStem: 55 151<262 396.5 262 434>
LayerCount: 2
Fore
SplineSet
282 709 m 1
 186 830 l 1
 298 830 l 1
 352 768 l 1
 356 768 l 1
 409 830 l 1
 521 830 l 1
 425 709 l 1
 282 709 l 1
363 -12 m 0
 195 -12 55 104 55 325 c 0
 55 543 192 671 366 671 c 0
 449 671 515 630 559 587 c 1
 478 496 l 1
 447 524 413 544 366 544 c 0
 274 544 206 463 206 330 c 0
 206 194 274 115 372 115 c 0
 419 115 456 138 488 174 c 1
 569 85 l 1
 515 21 445 -12 363 -12 c 0
EndSplineSet
Validated: 1
EndChar

StartChar: Ccedilla
Encoding: 199 199 19
Width: 600
GlyphClass: 2
Flags: HMW
HStem: -223 59<243 254> -7 21G<303 303> 545 127<320 389.5>
VStem: 55 151<263 398 263 435.5> 326 106<-133 -111>
LayerCount: 2
Fore
SplineSet
254 -223 m 1
 243 -164 l 1
 291 -159 326 -146 326 -120 c 0
 326 -102 312 -88 268 -77 c 1
 303 -7 l 1
 163 18 55 132 55 326 c 0
 55 545 192 672 366 672 c 0
 449 672 515 632 559 588 c 1
 478 497 l 1
 447 526 413 545 366 545 c 0
 274 545 206 465 206 331 c 0
 206 195 274 115 372 115 c 0
 419 115 456 138 488 174 c 1
 569 85 l 1
 520 27 458 -6 387 -12 c 1
 373 -44 l 1
 407 -55 432 -77 432 -119 c 0
 432 -188 349 -218 254 -223 c 1
EndSplineSet
Validated: 1
EndChar

StartChar: Ccircumflex
Encoding: 264 264 20
Width: 600
GlyphClass: 2
Flags: HMW
HStem: -12 127<323 395.5 323 404> 544 127<320 389.5> 709 121<186 425 282 298 409 409 409 425 282 521>
VStem: 55 151<262 396.5 262 434>
LayerCount: 2
Fore
SplineSet
186 709 m 1
 282 830 l 1
 425 830 l 1
 521 709 l 1
 409 709 l 1
 356 771 l 1
 352 771 l 1
 298 709 l 1
 186 709 l 1
363 -12 m 0
 195 -12 55 104 55 325 c 0
 55 543 192 671 366 671 c 0
 449 671 515 630 559 587 c 1
 478 496 l 1
 447 524 413 544 366 544 c 0
 274 544 206 463 206 330 c 0
 206 194 274 115 372 115 c 0
 419 115 456 138 488 174 c 1
 569 85 l 1
 515 21 445 -12 363 -12 c 0
EndSplineSet
Validated: 1
EndChar

StartChar: Cdotaccent
Encoding: 266 266 21
Width: 600
GlyphClass: 2
Flags: HMW
HStem: -12 127<323 395.5 323 404> 544 127<320 389.5> 709 154<329 378.5>
VStem: 55 151<262.5 397.5 262.5 435> 268 171<763.5 808.5>
LayerCount: 2
Fore
SplineSet
354 709 m 0
 304 709 268 741 268 786 c 0
 268 831 304 863 354 863 c 0
 403 863 439 831 439 786 c 0
 439 741 403 709 354 709 c 0
363 -12 m 0
 195 -12 55 104 55 326 c 0
 55 544 192 671 366 671 c 0
 449 671 515 631 559 587 c 1
 478 496 l 1
 447 525 413 544 366 544 c 0
 274 544 206 464 206 331 c 0
 206 194 274 115 372 115 c 0
 419 115 456 138 488 174 c 1
 569 85 l 1
 515 21 445 -12 363 -12 c 0
EndSplineSet
Validated: 1
EndChar

StartChar: D
Encoding: 68 68 22
Width: 600
GlyphClass: 2
Flags: HMW
HStem: 0 119<213 234 234 250> 541 119<213 234 213 213>
VStem: 65 148<119 119 119 541> 405 151<254 412>
LayerCount: 2
Fore
SplineSet
65 0 m 1
 65 660 l 1
 242 660 l 2
 431 660 556 559 556 333 c 0
 556 107 431 0 250 0 c 2
 65 0 l 1
213 119 m 1
 234 119 l 2
 336 119 405 175 405 333 c 0
 405 491 336 541 234 541 c 2
 213 541 l 1
 213 119 l 1
EndSplineSet
Validated: 1
EndChar

StartChar: Eth
Encoding: 208 208 23
Width: 600
GlyphClass: 2
Flags: HMW
HStem: 0 119<219 240 240 257> 305 72<2 71 2 71 219 326> 541 119<219 240 219 219>
VStem: 71 148<119 119 119 305 377 541> 411 151<254 412>
LayerCount: 2
Fore
SplineSet
71 0 m 1
 71 305 l 1
 2 305 l 1
 2 371 l 1
 71 377 l 1
 71 660 l 1
 249 660 l 2
 437 660 562 559 562 333 c 0
 562 107 437 0 257 0 c 2
 71 0 l 1
219 119 m 1
 240 119 l 2
 341 119 411 175 411 333 c 0
 411 491 341 541 240 541 c 2
 219 541 l 1
 219 377 l 1
 326 377 l 1
 326 305 l 1
 219 305 l 1
 219 119 l 1
EndSplineSet
Validated: 1
EndChar

StartChar: Dcaron
Encoding: 270 270 24
Width: 600
GlyphClass: 2
Flags: HMW
HStem: 0 119<213 234 234 250> 540 119<213 234 213 213> 709 121<225 225 225 241 352 368>
VStem: 65 148<119 119 119 540> 405 151<253.5 411>
LayerCount: 2
Fore
SplineSet
225 709 m 1
 129 830 l 1
 241 830 l 1
 295 768 l 1
 299 768 l 1
 352 830 l 1
 464 830 l 1
 368 709 l 1
 225 709 l 1
65 0 m 1
 65 660 l 1
 242 660 l 2
 431 660 556 558 556 332 c 0
 556 106 431 0 250 0 c 2
 65 0 l 1
213 119 m 1
 234 119 l 2
 336 119 405 175 405 332 c 0
 405 490 336 540 234 540 c 2
 213 540 l 1
 213 119 l 1
EndSplineSet
Validated: 1
EndChar

StartChar: Dcroat
Encoding: 272 272 25
Width: 600
GlyphClass: 2
Flags: HMW
HStem: 0 119<219 240 240 257> 305 72<2 71 2 71 219 326> 541 119<219 240 219 219>
VStem: 71 148<119 119 119 305 377 541> 411 151<254 412>
LayerCount: 2
Fore
SplineSet
71 0 m 1
 71 305 l 1
 2 305 l 1
 2 371 l 1
 71 377 l 1
 71 660 l 1
 249 660 l 2
 437 660 562 559 562 333 c 0
 562 107 437 0 257 0 c 2
 71 0 l 1
219 119 m 1
 240 119 l 2
 341 119 411 175 411 333 c 0
 411 491 341 541 240 541 c 2
 219 541 l 1
 219 377 l 1
 326 377 l 1
 326 305 l 1
 219 305 l 1
 219 119 l 1
EndSplineSet
Validated: 1
EndChar

StartChar: E
Encoding: 69 69 26
Width: 600
GlyphClass: 2
Flags: HMW
HStem: 0 124<241 534 241 534> 278 123<241 481 241 481> 536 124<241 524 241 241>
VStem: 94 147<124 278 401 536>
LayerCount: 2
Fore
SplineSet
94 0 m 1
 94 660 l 1
 524 660 l 1
 524 536 l 1
 241 536 l 1
 241 401 l 1
 481 401 l 1
 481 278 l 1
 241 278 l 1
 241 124 l 1
 534 124 l 1
 534 0 l 1
 94 0 l 1
EndSplineSet
Validated: 1
EndChar

StartChar: Eacute
Encoding: 201 201 27
Width: 600
GlyphClass: 2
Flags: HMW
HStem: 0 124<241 534 241 534> 278 123<241 481 241 481> 535 124<241 524 241 241> 709 121<247 484 327 364>
VStem: 94 147<124 278 401 535>
LayerCount: 2
Fore
SplineSet
247 709 m 1
 327 830 l 1
 484 830 l 1
 364 709 l 1
 247 709 l 1
94 0 m 1
 94 660 l 1
 524 660 l 1
 524 535 l 1
 241 535 l 1
 241 401 l 1
 481 401 l 1
 481 278 l 1
 241 278 l 1
 241 124 l 1
 534 124 l 1
 534 0 l 1
 94 0 l 1
EndSplineSet
Validated: 1
EndChar

StartChar: Ebreve
Encoding: 276 276 28
Width: 600
GlyphClass: 2
Flags: HMW
HStem: 0 124<241 534 241 534> 278 123<241 481 241 481> 535 124<241 524 241 241> 709 74<304.5 339 304.5 365.5>
VStem: 94 147<124 278 401 535>
LayerCount: 2
Fore
SplineSet
322 709 m 0
 234 709 192 759 185 830 c 1
 265 830 l 1
 271 804 287 783 322 783 c 0
 356 783 372 804 378 830 c 1
 458 830 l 1
 451 759 409 709 322 709 c 0
94 0 m 1
 94 660 l 1
 524 660 l 1
 524 535 l 1
 241 535 l 1
 241 401 l 1
 481 401 l 1
 481 278 l 1
 241 278 l 1
 241 124 l 1
 534 124 l 1
 534 0 l 1
 94 0 l 1
EndSplineSet
Validated: 1
EndChar

StartChar: Ecaron
Encoding: 282 282 29
Width: 600
GlyphClass: 2
Flags: HMW
HStem: 0 124<241 534 241 534> 278 123<241 481 241 481> 535 124<241 524 241 241> 709 121<250 250 250 266 377 393>
VStem: 94 147<124 278 401 535>
LayerCount: 2
Fore
SplineSet
250 709 m 1
 154 830 l 1
 266 830 l 1
 320 768 l 1
 324 768 l 1
 377 830 l 1
 489 830 l 1
 393 709 l 1
 250 709 l 1
94 0 m 1
 94 660 l 1
 524 660 l 1
 524 535 l 1
 241 535 l 1
 241 401 l 1
 481 401 l 1
 481 278 l 1
 241 278 l 1
 241 124 l 1
 534 124 l 1
 534 0 l 1
 94 0 l 1
EndSplineSet
Validated: 1
EndChar

StartChar: Ecircumflex
Encoding: 202 202 30
Width: 600
GlyphClass: 2
Flags: HMW
HStem: 0 124<241 534 241 534> 278 123<241 481 241 481> 535 124<241 524 241 241> 709 121<154 393 250 266 377 377 377 393 250 489>
VStem: 94 147<124 278 401 535>
LayerCount: 2
Fore
SplineSet
154 709 m 1
 250 830 l 1
 393 830 l 1
 489 709 l 1
 377 709 l 1
 324 771 l 1
 320 771 l 1
 266 709 l 1
 154 709 l 1
94 0 m 1
 94 660 l 1
 524 660 l 1
 524 535 l 1
 241 535 l 1
 241 401 l 1
 481 401 l 1
 481 278 l 1
 241 278 l 1
 241 124 l 1
 534 124 l 1
 534 0 l 1
 94 0 l 1
EndSplineSet
Validated: 1
EndChar

StartChar: Edieresis
Encoding: 203 203 31
Width: 600
GlyphClass: 2
Flags: HMW
HStem: 0 124<241 534 241 534> 278 123<241 481 241 481> 535 124<241 524 241 241> 708 140<201.5 243 400.5 441.5>
VStem: 94 147<124 278 401 535> 153 139<758 798> 351 139<758 798>
LayerCount: 2
Fore
SplineSet
222 708 m 0xf6
 181 708 153 738 153 778 c 0
 153 818 181 848 222 848 c 0
 264 848 292 818 292 778 c 0
 292 738 264 708 222 708 c 0xf6
421 708 m 0
 380 708 351 738 351 778 c 0
 351 818 380 848 421 848 c 0
 462 848 490 818 490 778 c 0
 490 738 462 708 421 708 c 0
94 0 m 1xe8
 94 660 l 1
 524 660 l 1
 524 535 l 1
 241 535 l 1
 241 401 l 1
 481 401 l 1
 481 278 l 1
 241 278 l 1
 241 124 l 1
 534 124 l 1
 534 0 l 1
 94 0 l 1xe8
EndSplineSet
Validated: 1
EndChar

StartChar: Edotaccent
Encoding: 278 278 32
Width: 600
GlyphClass: 2
Flags: HMW
HStem: 0 124<241 534 241 534> 278 123<241 481 241 481> 535 124<241 524 241 241> 709 154<297 346.5>
VStem: 94 147<124 278 401 535> 236 171<763.5 808.5>
LayerCount: 2
Fore
SplineSet
322 709 m 0xf4
 272 709 236 741 236 786 c 0
 236 831 272 863 322 863 c 0
 371 863 407 831 407 786 c 0
 407 741 371 709 322 709 c 0xf4
94 0 m 1xe8
 94 660 l 1
 524 660 l 1
 524 535 l 1
 241 535 l 1
 241 401 l 1
 481 401 l 1
 481 278 l 1
 241 278 l 1
 241 124 l 1
 534 124 l 1
 534 0 l 1
 94 0 l 1xe8
EndSplineSet
Validated: 1
EndChar

StartChar: Egrave
Encoding: 200 200 33
Width: 600
GlyphClass: 2
Flags: HMW
HStem: 0 124<241 534 241 534> 278 123<241 481 241 481> 535 124<241 524 241 241> 709 121<279 279 279 316 159 396>
VStem: 94 147<124 278 401 535>
LayerCount: 2
Fore
SplineSet
279 709 m 1
 159 830 l 1
 316 830 l 1
 396 709 l 1
 279 709 l 1
94 0 m 1
 94 660 l 1
 524 660 l 1
 524 535 l 1
 241 535 l 1
 241 401 l 1
 481 401 l 1
 481 278 l 1
 241 278 l 1
 241 124 l 1
 534 124 l 1
 534 0 l 1
 94 0 l 1
EndSplineSet
Validated: 1
EndChar

StartChar: Emacron
Encoding: 274 274 34
Width: 600
GlyphClass: 2
Flags: HMW
HStem: 0 124<241 534 241 534> 278 123<241 481 241 481> 535 124<241 524 241 241> 728 93<180 463 180 463>
VStem: 94 147<124 278 401 535> 180 283<728 821 728 821>
LayerCount: 2
Fore
SplineSet
180 728 m 1xf4
 180 821 l 1
 463 821 l 1
 463 728 l 1
 180 728 l 1xf4
94 0 m 1xf8
 94 660 l 1
 524 660 l 1
 524 535 l 1
 241 535 l 1
 241 401 l 1
 481 401 l 1
 481 278 l 1
 241 278 l 1
 241 124 l 1
 534 124 l 1
 534 0 l 1
 94 0 l 1xf8
EndSplineSet
Validated: 1
EndChar

StartChar: Eogonek
Encoding: 280 280 35
Width: 600
GlyphClass: 2
Flags: HMW
HStem: -225 95<418 491.5> 0 124<241 414 529 529 529 534> 278 123<241 481 241 481> 536 124<241 524 241 241>
VStem: 94 147<124 278 401 536> 335 108<-105 -99.5>
LayerCount: 2
Fore
SplineSet
450 -225 m 0
 386 -225 335 -191 335 -130 c 0
 335 -69 380 -21 414 0 c 1
 94 0 l 1
 94 660 l 1
 524 660 l 1
 524 536 l 1
 241 536 l 1
 241 401 l 1
 481 401 l 1
 481 278 l 1
 241 278 l 1
 241 124 l 1
 534 124 l 1
 534 0 l 1
 529 0 l 2
 483 -2 443 -47 443 -92 c 0
 443 -118 464 -130 485 -130 c 0
 498 -130 511 -123 521 -116 c 1
 554 -190 l 1
 529 -210 485 -225 450 -225 c 0
EndSplineSet
Validated: 1
EndChar

StartChar: uni1EBC
Encoding: 7868 7868 36
Width: 600
GlyphClass: 2
Flags: HMW
HStem: 0 124<241 534 241 534> 278 123<241 481 241 481> 535 124<241 524 241 241> 711 137<151 285.5 151 285.5 232.5 410.5>
VStem: 94 147<124 278 401 535>
LayerCount: 2
Fore
SplineSet
151 711 m 1
 162 802 206 848 259 848 c 0
 312 848 348 802 378 802 c 0
 395 802 410 814 417 848 c 1
 492 848 l 1
 481 756 437 711 384 711 c 0
 331 711 295 757 265 757 c 0
 248 757 233 744 226 711 c 1
 151 711 l 1
94 0 m 1
 94 660 l 1
 524 660 l 1
 524 535 l 1
 241 535 l 1
 241 401 l 1
 481 401 l 1
 481 278 l 1
 241 278 l 1
 241 124 l 1
 534 124 l 1
 534 0 l 1
 94 0 l 1
EndSplineSet
Validated: 1
EndChar

StartChar: F
Encoding: 70 70 37
Width: 600
GlyphClass: 2
Flags: HMW
HStem: 0 21G<108 108 108 255> 257 124<255 496 255 496> 536 124<255 538 255 255>
VStem: 108 147<0 257 381 536>
LayerCount: 2
Fore
SplineSet
108 0 m 1
 108 660 l 1
 538 660 l 1
 538 536 l 1
 255 536 l 1
 255 381 l 1
 496 381 l 1
 496 257 l 1
 255 257 l 1
 255 0 l 1
 108 0 l 1
EndSplineSet
Validated: 1
EndChar

StartChar: G
Encoding: 71 71 38
Width: 600
GlyphClass: 2
Flags: HMW
HStem: -12 127<299.5 363.5 299.5 384.5> 251 120<320 415 320 547> 545 127<302.5 371>
VStem: 44 152<263 398 263 436.5> 415 132<136 251 251 251>
LayerCount: 2
Fore
SplineSet
343 -12 m 0
 176 -12 44 105 44 326 c 0
 44 547 176 672 345 672 c 0
 433 672 494 631 536 588 c 1
 455 497 l 1
 427 526 397 545 345 545 c 0
 260 545 196 465 196 331 c 0
 196 195 248 115 351 115 c 0
 376 115 401 122 415 136 c 1
 415 251 l 1
 320 251 l 1
 320 371 l 1
 547 371 l 1
 547 68 l 1
 503 26 426 -12 343 -12 c 0
EndSplineSet
Validated: 1
EndChar

StartChar: Gbreve
Encoding: 286 286 39
Width: 600
GlyphClass: 2
Flags: HMW
HStem: -12 127<299.5 363.5 299.5 384.5> 250 120<320 415 320 547> 544 127<302.5 371> 709 74<313 347.5 313 374>
VStem: 44 152<262 396.5 262 435> 415 132<136 250 250 250>
LayerCount: 2
Fore
SplineSet
330 709 m 0
 243 709 201 759 194 830 c 1
 274 830 l 1
 280 804 296 783 330 783 c 0
 365 783 381 804 387 830 c 1
 467 830 l 1
 459 759 418 709 330 709 c 0
343 -12 m 0
 176 -12 44 104 44 325 c 0
 44 545 176 671 345 671 c 0
 433 671 494 629 536 587 c 1
 455 496 l 1
 427 524 397 544 345 544 c 0
 260 544 196 463 196 330 c 0
 196 194 248 115 351 115 c 0
 376 115 401 122 415 136 c 1
 415 250 l 1
 320 250 l 1
 320 370 l 1
 547 370 l 1
 547 68 l 1
 503 26 426 -12 343 -12 c 0
EndSplineSet
Validated: 1
EndChar

StartChar: Gcaron
Encoding: 486 486 40
Width: 600
GlyphClass: 2
Flags: HMW
HStem: -12 127<299.5 363.5 299.5 384.5> 250 120<320 415 320 547> 544 127<302.5 371> 709 121<259 259 259 275 386 402>
VStem: 44 152<262 396.5 262 435> 415 132<136 250 250 250>
LayerCount: 2
Fore
SplineSet
259 709 m 1
 163 830 l 1
 275 830 l 1
 328 768 l 1
 332 768 l 1
 386 830 l 1
 498 830 l 1
 402 709 l 1
 259 709 l 1
343 -12 m 0
 176 -12 44 104 44 325 c 0
 44 545 176 671 345 671 c 0
 433 671 494 629 536 587 c 1
 455 496 l 1
 427 524 397 544 345 544 c 0
 260 544 196 463 196 330 c 0
 196 194 248 115 351 115 c 0
 376 115 401 122 415 136 c 1
 415 250 l 1
 320 250 l 1
 320 370 l 1
 547 370 l 1
 547 68 l 1
 503 26 426 -12 343 -12 c 0
EndSplineSet
Validated: 1
EndChar

StartChar: Gcircumflex
Encoding: 284 284 41
Width: 600
GlyphClass: 2
Flags: HMW
HStem: -12 127<299.5 363.5 299.5 384.5> 250 120<320 415 320 547> 544 127<302.5 371> 709 121<163 402 259 275 386 386 386 402 259 498>
VStem: 44 152<262 396.5 262 435> 415 132<136 250 250 250>
LayerCount: 2
Fore
SplineSet
163 709 m 1
 259 830 l 1
 402 830 l 1
 498 709 l 1
 386 709 l 1
 332 771 l 1
 328 771 l 1
 275 709 l 1
 163 709 l 1
343 -12 m 0
 176 -12 44 104 44 325 c 0
 44 545 176 671 345 671 c 0
 433 671 494 629 536 587 c 1
 455 496 l 1
 427 524 397 544 345 544 c 0
 260 544 196 463 196 330 c 0
 196 194 248 115 351 115 c 0
 376 115 401 122 415 136 c 1
 415 250 l 1
 320 250 l 1
 320 370 l 1
 547 370 l 1
 547 68 l 1
 503 26 426 -12 343 -12 c 0
EndSplineSet
Validated: 1
EndChar

StartChar: Gdotaccent
Encoding: 288 288 42
Width: 600
GlyphClass: 2
Flags: HMW
HStem: -12 127<299.5 363.5 299.5 384.5> 250 120<320 415 320 547> 544 127<302.5 371> 709 154<305.5 355>
VStem: 44 152<262.5 397.5 262.5 436> 245 170<763.5 808.5> 415 132<136 250 250 250>
LayerCount: 2
Fore
SplineSet
330 709 m 0xfc
 281 709 245 741 245 786 c 0
 245 831 281 863 330 863 c 0
 380 863 415 831 415 786 c 0
 415 741 380 709 330 709 c 0xfc
343 -12 m 0
 176 -12 44 104 44 326 c 0
 44 546 176 671 345 671 c 0
 433 671 494 630 536 587 c 1
 455 496 l 1
 427 525 397 544 345 544 c 0
 260 544 196 464 196 331 c 0
 196 194 248 115 351 115 c 0
 376 115 401 122 415 136 c 1
 415 250 l 1
 320 250 l 1
 320 370 l 1
 547 370 l 1
 547 68 l 1xea
 503 26 426 -12 343 -12 c 0
EndSplineSet
Validated: 1
EndChar

StartChar: uni1E20
Encoding: 7712 7712 43
Width: 600
GlyphClass: 2
Flags: HMW
HStem: -12 127<299.5 363.5 299.5 384.5> 250 120<320 415 320 547> 545 127<302.5 371> 728 93<189 472 189 472>
VStem: 44 152<262.5 397.5 262.5 436> 189 283<728 821 728 821> 415 132<136 250 250 250>
LayerCount: 2
Fore
SplineSet
189 728 m 1xf4
 189 821 l 1
 472 821 l 1
 472 728 l 1
 189 728 l 1xf4
343 -12 m 0xfa
 176 -12 44 104 44 326 c 0
 44 546 176 672 345 672 c 0
 433 672 494 630 536 588 c 1
 455 497 l 1
 427 525 397 545 345 545 c 0
 260 545 196 464 196 331 c 0
 196 194 248 115 351 115 c 0
 376 115 401 122 415 136 c 1
 415 250 l 1
 320 250 l 1
 320 370 l 1
 547 370 l 1
 547 68 l 1
 503 26 426 -12 343 -12 c 0xfa
EndSplineSet
Validated: 1
EndChar

StartChar: H
Encoding: 72 72 44
Width: 600
GlyphClass: 2
Flags: HMW
HStem: 0 21G<64 64 64 211 389 389 389 536> 276 129<211 389 211 389> 640 20G<64 211 211 211 389 536 536 536>
VStem: 64 147<0 276 405 660> 389 147<0 276 276 276 405 660 0 660>
LayerCount: 2
Fore
SplineSet
64 0 m 1
 64 660 l 1
 211 660 l 1
 211 405 l 1
 389 405 l 1
 389 660 l 1
 536 660 l 1
 536 0 l 1
 389 0 l 1
 389 276 l 1
 211 276 l 1
 211 0 l 1
 64 0 l 1
EndSplineSet
Validated: 1
EndChar

StartChar: Hbar
Encoding: 294 294 45
Width: 600
GlyphClass: 2
Flags: HMW
HStem: 0 21G<64 64 64 211 389 389 389 536> 276 129<211 389 211 389> 492 68 492 71<211 389 211 389 536 597> 492 168<3 211 3 211 64 211 64 389>
VStem: 64 147<0 276 405 492 563 660> 389 147<0 276 276 276 405 492 0 492 563 660>
LayerCount: 2
Fore
SplineSet
64 0 m 1xce
 64 492 l 1
 3 492 l 1xce
 3 557 l 1
 64 562 l 1xe6
 64 660 l 1
 211 660 l 1xce
 211 563 l 1
 389 563 l 1xd6
 389 660 l 1
 536 660 l 1xce
 536 563 l 1
 597 563 l 1xd6
 597 492 l 1
 536 492 l 1
 536 0 l 1
 389 0 l 1
 389 276 l 1
 211 276 l 1
 211 0 l 1
 64 0 l 1xce
211 405 m 1
 389 405 l 1
 389 492 l 1
 211 492 l 1
 211 405 l 1
EndSplineSet
Validated: 1
EndChar

StartChar: Hcircumflex
Encoding: 292 292 46
Width: 600
GlyphClass: 2
Flags: HMW
HStem: 0 21G<64 64 64 211 389 389 389 536> 276 128<211 389 211 389> 709 121<131 371 227 244 354 354 354 371 227 467>
VStem: 64 147<0 276 404 659> 389 147<0 276 276 276 404 659 0 659>
LayerCount: 2
Fore
SplineSet
131 709 m 1
 227 830 l 1
 371 830 l 1
 467 709 l 1
 354 709 l 1
 301 771 l 1
 297 771 l 1
 244 709 l 1
 131 709 l 1
64 0 m 1
 64 660 l 1
 211 660 l 1
 211 404 l 1
 389 404 l 1
 389 660 l 1
 536 660 l 1
 536 0 l 1
 389 0 l 1
 389 276 l 1
 211 276 l 1
 211 0 l 1
 64 0 l 1
EndSplineSet
Validated: 1
EndChar

StartChar: I
Encoding: 73 73 47
Width: 600
GlyphClass: 2
Flags: HMW
HStem: 0 124<74 226 74 226 374 526> 536 124<74 226 74 526 374 374 374 526>
VStem: 226 148<124 536 124 536>
LayerCount: 2
Fore
SplineSet
74 0 m 1
 74 124 l 1
 226 124 l 1
 226 536 l 1
 74 536 l 1
 74 660 l 1
 526 660 l 1
 526 536 l 1
 374 536 l 1
 374 124 l 1
 526 124 l 1
 526 0 l 1
 74 0 l 1
EndSplineSet
Validated: 1
EndChar

StartChar: Iacute
Encoding: 205 205 48
Width: 600
GlyphClass: 2
Flags: HMW
HStem: 0 124<74 226 74 226 374 526> 535 124<74 226 74 526 374 374 374 526> 709 121<225 462 306 342>
VStem: 226 148<124 535 124 535>
LayerCount: 2
Fore
SplineSet
225 709 m 1
 306 830 l 1
 462 830 l 1
 342 709 l 1
 225 709 l 1
74 0 m 1
 74 124 l 1
 226 124 l 1
 226 535 l 1
 74 535 l 1
 74 660 l 1
 526 660 l 1
 526 535 l 1
 374 535 l 1
 374 124 l 1
 526 124 l 1
 526 0 l 1
 74 0 l 1
EndSplineSet
Validated: 1
EndChar

StartChar: Ibreve
Encoding: 300 300 49
Width: 600
GlyphClass: 2
Flags: HMW
HStem: 0 124<74 226 74 226 374 526> 535 124<74 226 74 526 374 374 374 526> 709 121<163 343.5>
VStem: 226 148<124 535 124 535>
LayerCount: 2
Fore
SplineSet
300 709 m 0
 213 709 171 759 163 830 c 1
 244 830 l 1
 250 804 266 783 300 783 c 0
 334 783 350 804 356 830 c 1
 437 830 l 1
 429 759 387 709 300 709 c 0
74 0 m 1
 74 124 l 1
 226 124 l 1
 226 535 l 1
 74 535 l 1
 74 660 l 1
 526 660 l 1
 526 535 l 1
 374 535 l 1
 374 124 l 1
 526 124 l 1
 526 0 l 1
 74 0 l 1
EndSplineSet
Validated: 1
EndChar

StartChar: uni01CF
Encoding: 463 463 50
Width: 600
GlyphClass: 2
Flags: HMW
HStem: 0 124<74 226 74 226 374 526> 535 124<74 226 74 526 374 374 374 526> 709 121<228 228 228 245 355 372>
VStem: 226 148<124 535 124 535>
LayerCount: 2
Fore
SplineSet
228 709 m 1
 132 830 l 1
 245 830 l 1
 298 768 l 1
 302 768 l 1
 355 830 l 1
 468 830 l 1
 372 709 l 1
 228 709 l 1
74 0 m 1
 74 124 l 1
 226 124 l 1
 226 535 l 1
 74 535 l 1
 74 660 l 1
 526 660 l 1
 526 535 l 1
 374 535 l 1
 374 124 l 1
 526 124 l 1
 526 0 l 1
 74 0 l 1
EndSplineSet
Validated: 1
EndChar

StartChar: Icircumflex
Encoding: 206 206 51
Width: 600
GlyphClass: 2
Flags: HMW
HStem: 0 124<74 226 74 226 374 526> 535 124<74 226 74 526 374 374 374 526> 709 121<132 372 228 245 355 355 355 372 228 468>
VStem: 226 148<124 535 124 535>
LayerCount: 2
Fore
SplineSet
132 709 m 1
 228 830 l 1
 372 830 l 1
 468 709 l 1
 355 709 l 1
 302 771 l 1
 298 771 l 1
 245 709 l 1
 132 709 l 1
74 0 m 1
 74 124 l 1
 226 124 l 1
 226 535 l 1
 74 535 l 1
 74 660 l 1
 526 660 l 1
 526 535 l 1
 374 535 l 1
 374 124 l 1
 526 124 l 1
 526 0 l 1
 74 0 l 1
EndSplineSet
Validated: 1
EndChar

StartChar: Idieresis
Encoding: 207 207 52
Width: 600
GlyphClass: 2
Flags: HMW
HStem: 0 124<74 226 74 226 374 526> 535 124<74 226 74 526 374 374 374 526> 708 140<180.5 221.5 378.5 419.5>
VStem: 131 140<758 798> 226 148<124 535 124 535> 329 140<758 798>
LayerCount: 2
Fore
SplineSet
201 708 m 0xf4
 160 708 131 738 131 778 c 0
 131 818 160 848 201 848 c 0
 242 848 271 818 271 778 c 0
 271 738 242 708 201 708 c 0xf4
399 708 m 0
 358 708 329 738 329 778 c 0
 329 818 358 848 399 848 c 0
 440 848 469 818 469 778 c 0
 469 738 440 708 399 708 c 0
74 0 m 1
 74 124 l 1
 226 124 l 1
 226 535 l 1
 74 535 l 1
 74 660 l 1
 526 660 l 1
 526 535 l 1
 374 535 l 1
 374 124 l 1xc8
 526 124 l 1
 526 0 l 1
 74 0 l 1
EndSplineSet
Validated: 1
EndChar

StartChar: Idotaccent
Encoding: 304 304 53
Width: 600
GlyphClass: 2
Flags: HMW
HStem: 0 124<74 226 74 226 374 526> 535 124<74 226 74 526 374 374 374 526> 709 154<275.5 324.5>
VStem: 215 170<763.5 808.5> 226 148<124 535 124 535>
LayerCount: 2
Fore
SplineSet
300 709 m 0xf0
 251 709 215 741 215 786 c 0
 215 831 251 863 300 863 c 0
 349 863 385 831 385 786 c 0
 385 741 349 709 300 709 c 0xf0
74 0 m 1
 74 124 l 1
 226 124 l 1
 226 535 l 1
 74 535 l 1
 74 660 l 1
 526 660 l 1
 526 535 l 1
 374 535 l 1
 374 124 l 1xc8
 526 124 l 1
 526 0 l 1
 74 0 l 1
EndSplineSet
Validated: 1
EndChar

StartChar: Igrave
Encoding: 204 204 54
Width: 600
GlyphClass: 2
Flags: HMW
HStem: 0 124<74 226 74 226 374 526> 535 124<74 226 74 526 374 374 374 526> 709 121<258 258 258 294 138 375>
VStem: 226 148<124 535 124 535>
LayerCount: 2
Fore
SplineSet
258 709 m 1
 138 830 l 1
 294 830 l 1
 375 709 l 1
 258 709 l 1
74 0 m 1
 74 124 l 1
 226 124 l 1
 226 535 l 1
 74 535 l 1
 74 660 l 1
 526 660 l 1
 526 535 l 1
 374 535 l 1
 374 124 l 1
 526 124 l 1
 526 0 l 1
 74 0 l 1
EndSplineSet
Validated: 1
EndChar

StartChar: Imacron
Encoding: 298 298 55
Width: 600
GlyphClass: 2
Flags: HMW
HStem: 0 124<74 226 74 226 374 526> 535 124<74 226 74 526 374 374 374 526> 728 93<159 441 159 441>
VStem: 159 282<728 821 728 821> 226 148<124 535 124 535>
LayerCount: 2
Fore
SplineSet
159 728 m 1xf0
 159 821 l 1
 441 821 l 1
 441 728 l 1
 159 728 l 1xf0
74 0 m 1
 74 124 l 1
 226 124 l 1
 226 535 l 1
 74 535 l 1
 74 660 l 1
 526 660 l 1
 526 535 l 1
 374 535 l 1
 374 124 l 1xe8
 526 124 l 1
 526 0 l 1
 74 0 l 1
EndSplineSet
Validated: 1
EndChar

StartChar: Iogonek
Encoding: 302 302 56
Width: 600
GlyphClass: 2
Flags: HMW
HStem: -225 95<274.5 347> 0 124<74 226 74 266 74 226 374 526> 536 124<74 226 74 526 374 374 374 526>
VStem: 192 107<-105 -98> 226 148<124 536>
LayerCount: 2
Fore
SplineSet
306 -225 m 0xf0
 243 -225 192 -191 192 -130 c 0
 192 -66 237 -21 266 0 c 1xf0
 74 0 l 1
 74 124 l 1
 226 124 l 1
 226 536 l 1
 74 536 l 1
 74 660 l 1
 526 660 l 1
 526 536 l 1
 374 536 l 1
 374 124 l 1x68
 526 124 l 1
 526 0 l 1
 374 0 l 1
 320 -23 299 -57 299 -92 c 0
 299 -118 320 -130 340 -130 c 0
 354 -130 368 -123 377 -116 c 1
 411 -190 l 1
 385 -210 341 -225 306 -225 c 0xf0
EndSplineSet
Validated: 1
EndChar

StartChar: Itilde
Encoding: 296 296 57
Width: 600
GlyphClass: 2
Flags: HMW
HStem: 0 124<74 226 74 226 374 526> 535 124<74 226 74 526 374 374 374 526> 711 137<130 264 130 264 211 389>
VStem: 130 75<711 711> 226 148<124 535 124 535> 395 75<848 848>
LayerCount: 2
Fore
SplineSet
130 711 m 1
 140 802 185 848 237 848 c 0
 291 848 326 802 357 802 c 0
 374 802 388 814 395 848 c 1
 470 848 l 1
 460 756 415 711 363 711 c 0
 309 711 274 757 243 757 c 0
 226 757 212 744 205 711 c 1
 130 711 l 1
74 0 m 1
 74 124 l 1
 226 124 l 1
 226 535 l 1
 74 535 l 1
 74 660 l 1
 526 660 l 1
 526 535 l 1
 374 535 l 1
 374 124 l 1xc8
 526 124 l 1
 526 0 l 1
 74 0 l 1
EndSplineSet
Validated: 1
EndChar

StartChar: J
Encoding: 74 74 58
Width: 600
GlyphClass: 2
Flags: HMW
HStem: -12 127<246.5 301.5 246.5 363> 537 123<114 369 114 516>
VStem: 369 147<236 537 537 537>
LayerCount: 2
Fore
SplineSet
273 -12 m 0
 201 -12 116 16 59 97 c 1
 144 188 l 1
 182 140 225 115 268 115 c 0
 335 115 369 145 369 236 c 2
 369 537 l 1
 114 537 l 1
 114 660 l 1
 516 660 l 1
 516 224 l 2
 516 95 453 -12 273 -12 c 0
EndSplineSet
Validated: 1
EndChar

StartChar: Jcircumflex
Encoding: 308 308 59
Width: 600
GlyphClass: 2
Flags: HMW
HStem: -12 127<246.5 301.5 246.5 363> 536 123<114 369 114 516> 709 121<154 393 250 266 377 377 377 393 250 489>
VStem: 369 147<236 536 536 536>
LayerCount: 2
Fore
SplineSet
154 709 m 1
 250 830 l 1
 393 830 l 1
 489 709 l 1
 377 709 l 1
 324 771 l 1
 320 771 l 1
 266 709 l 1
 154 709 l 1
273 -12 m 0
 201 -12 116 16 59 97 c 1
 144 188 l 1
 182 140 225 115 268 115 c 0
 335 115 369 145 369 236 c 2
 369 536 l 1
 114 536 l 1
 114 660 l 1
 516 660 l 1
 516 224 l 2
 516 95 453 -12 273 -12 c 0
EndSplineSet
Validated: 1
EndChar

StartChar: K
Encoding: 75 75 60
Width: 600
GlyphClass: 2
Flags: HMW
HStem: 0 21G<68 68 68 217 431 431 431 594> 640 20G<68 217 217 217 413 575 575 575>
VStem: 68 149<0 178 388 660>
LayerCount: 2
Fore
SplineSet
68 0 m 1
 68 660 l 1
 217 660 l 1
 217 388 l 1
 220 388 l 1
 413 660 l 1
 575 660 l 1
 380 397 l 1
 594 0 l 1
 431 0 l 1
 293 280 l 1
 217 178 l 1
 217 0 l 1
 68 0 l 1
EndSplineSet
Validated: 1
EndChar

StartChar: L
Encoding: 76 76 61
Width: 600
GlyphClass: 2
Flags: HMW
HStem: 0 124<254 544 254 544> 640 20G<107 254 254 254>
VStem: 107 147<124 660 124 660 124 660>
LayerCount: 2
Fore
SplineSet
107 0 m 1
 107 660 l 1
 254 660 l 1
 254 124 l 1
 544 124 l 1
 544 0 l 1
 107 0 l 1
EndSplineSet
Validated: 1
EndChar

StartChar: Lacute
Encoding: 313 313 62
Width: 600
GlyphClass: 2
Flags: HMW
HStem: 0 124<254 544 254 544> 709 121<120 357 201 238>
VStem: 107 147<124 659 124 659 124 659>
LayerCount: 2
Fore
SplineSet
120 709 m 1
 201 830 l 1
 357 830 l 1
 238 709 l 1
 120 709 l 1
107 0 m 1
 107 660 l 1
 254 660 l 1
 254 124 l 1
 544 124 l 1
 544 0 l 1
 107 0 l 1
EndSplineSet
Validated: 1
EndChar

StartChar: Lcaron
Encoding: 317 317 63
Width: 600
GlyphClass: 2
Flags: HMW
HStem: 0 124<254 544 254 544> 517 143<107 386 107 449> 517 224<386 386 386 449> 640 20G<107 254 254 254>
VStem: 107 147<124 660 124 660 124 660> 384 91
LayerCount: 2
Fore
SplineSet
386 517 m 1xcc
 381 741 l 1
 475 741 l 1
 474 670 l 1xac
 449 517 l 1
 386 517 l 1xcc
107 0 m 1
 107 660 l 1
 254 660 l 1x9c
 254 124 l 1
 544 124 l 1
 544 0 l 1
 107 0 l 1
EndSplineSet
Validated: 1
EndChar

StartChar: Ldot
Encoding: 319 319 64
Width: 600
GlyphClass: 2
Flags: HMW
HStem: 0 124<254 544 254 544> 268 182<425 481.5> 640 20G<107 254 254 254>
VStem: 107 147<124 660 124 660 124 660> 356 195<331 385>
LayerCount: 2
Fore
SplineSet
107 0 m 1
 107 660 l 1
 254 660 l 1
 254 124 l 1
 544 124 l 1
 544 0 l 1
 107 0 l 1
453 268 m 0
 397 268 356 304 356 358 c 0
 356 412 397 450 453 450 c 0
 510 450 551 412 551 358 c 0
 551 304 510 268 453 268 c 0
EndSplineSet
Validated: 1
EndChar

StartChar: Lslash
Encoding: 321 321 65
Width: 600
GlyphClass: 2
Flags: HMW
HStem: 0 124<254 544 254 544> 640 20G<107 254 254 254>
VStem: 107 147<124 201 201 201 387 660>
LayerCount: 2
Fore
SplineSet
107 0 m 1
 107 201 l 1
 33 160 l 1
 33 274 l 1
 107 315 l 1
 107 660 l 1
 254 660 l 1
 254 387 l 1
 460 502 l 1
 460 388 l 1
 254 273 l 1
 254 124 l 1
 544 124 l 1
 544 0 l 1
 107 0 l 1
EndSplineSet
Validated: 1
EndChar

StartChar: M
Encoding: 77 77 66
Width: 630
GlyphClass: 2
Flags: HMW
HStem: 0 21G<65 65 65 182 446 446 446 565> 496 20G<163 167 163 163 461 465 461 461> 516 144<163 167 163 163 461 465 461 461>
VStem: 65 117<0 220 0 660> 446 119<0 220 220 256>
LayerCount: 2
Fore
SplineSet
65 0 m 1xd8
 65 660 l 1
 213 660 l 1
 289 425 l 1
 315 333 l 1
 318 333 l 1
 343 425 l 1
 417 660 l 1
 565 660 l 1
 565 0 l 1
 446 0 l 1
 446 220 l 2
 446 292 458 446 465 516 c 1
 461 516 l 1xb8
 408 336 l 1
 347 176 l 1
 281 176 l 1
 219 336 l 1
 167 516 l 1
 163 516 l 1
 170 446 182 292 182 220 c 2
 182 0 l 1
 65 0 l 1xd8
EndSplineSet
Validated: 1
EndChar

StartChar: N
Encoding: 78 78 67
Width: 600
GlyphClass: 2
Flags: HMW
HStem: 0 21G<66 66 66 207 384 384 384 534> 0 184<384 414 410 414 410 534> 475 185<186 190 186 186> 640 20G<66 216 216 216 393 534 534 534>
VStem: 66 141<0 237 0 660> 393 141<423 660 0 660>
LayerCount: 2
Fore
SplineSet
66 0 m 1x9c
 66 660 l 1
 216 660 l 1
 354 329 l 1
 410 184 l 1
 414 184 l 1x5c
 407 254 393 346 393 423 c 2
 393 660 l 1
 534 660 l 1
 534 0 l 1
 384 0 l 1
 246 332 l 1
 190 475 l 1
 186 475 l 1xac
 193 402 207 315 207 237 c 2
 207 0 l 1
 66 0 l 1x9c
EndSplineSet
Validated: 1
EndChar

StartChar: Nacute
Encoding: 323 323 68
Width: 600
GlyphClass: 2
Flags: HMW
HStem: 0 21G<66 66 66 207 384 384 384 534> 0 184<384 414 410 414 410 534> 473 186<186 190 186 186> 709 121<231 468 312 348>
VStem: 66 141<0 236 0 659> 393 141<423 659 0 659>
LayerCount: 2
Fore
SplineSet
231 709 m 1xbc
 312 830 l 1
 468 830 l 1
 348 709 l 1
 231 709 l 1xbc
66 0 m 1
 66 660 l 1
 216 660 l 1
 354 328 l 1
 410 184 l 1
 414 184 l 1x7c
 407 254 393 346 393 423 c 2
 393 660 l 1
 534 660 l 1
 534 0 l 1
 384 0 l 1
 246 330 l 1
 190 473 l 1
 186 473 l 1
 193 401 207 313 207 236 c 2
 207 0 l 1
 66 0 l 1
EndSplineSet
Validated: 1
EndChar

StartChar: Ncaron
Encoding: 327 327 69
Width: 600
GlyphClass: 2
Flags: HMW
HStem: 0 21G<66 66 66 207 384 384 384 534> 0 184<384 414 410 414 410 534> 473 186<186 190 186 186> 709 121<234 234 234 251 361 378>
VStem: 66 141<0 236 0 659> 393 141<423 659 0 659>
LayerCount: 2
Fore
SplineSet
234 709 m 1xbc
 138 830 l 1
 251 830 l 1
 304 768 l 1
 308 768 l 1
 361 830 l 1
 474 830 l 1
 378 709 l 1
 234 709 l 1xbc
66 0 m 1
 66 660 l 1
 216 660 l 1
 354 328 l 1
 410 184 l 1
 414 184 l 1x7c
 407 254 393 346 393 423 c 2
 393 660 l 1
 534 660 l 1
 534 0 l 1
 384 0 l 1
 246 330 l 1
 190 473 l 1
 186 473 l 1
 193 401 207 313 207 236 c 2
 207 0 l 1
 66 0 l 1
EndSplineSet
Validated: 1
EndChar

StartChar: uni1E44
Encoding: 7748 7748 70
Width: 600
GlyphClass: 2
Flags: HMW
HStem: 0 21G<66 66 66 207 384 384 384 534> 0 184<384 414 410 414 410 534> 474 185<186 190 186 186> 709 154<281.5 330.5>
VStem: 66 141<0 236 0 659> 221 170<763.5 808.5> 393 141<423 659 0 659>
LayerCount: 2
Fore
SplineSet
306 709 m 0xbc
 257 709 221 741 221 786 c 0
 221 831 257 863 306 863 c 0
 355 863 391 831 391 786 c 0
 391 741 355 709 306 709 c 0xbc
66 0 m 1xba
 66 660 l 1
 216 660 l 1
 354 328 l 1
 410 184 l 1
 414 184 l 1x7a
 407 254 393 346 393 423 c 2
 393 660 l 1
 534 660 l 1
 534 0 l 1
 384 0 l 1
 246 331 l 1
 190 474 l 1
 186 474 l 1
 193 401 207 314 207 236 c 2
 207 0 l 1
 66 0 l 1xba
EndSplineSet
Validated: 1
EndChar

StartChar: Ntilde
Encoding: 209 209 71
Width: 600
GlyphClass: 2
Flags: HMW
HStem: 0 21G<66 66 66 207 384 384 384 534> 0 184<384 414 410 414 410 534> 474 185<186 190 186 186> 711 137<136 270 136 270 217 395>
VStem: 66 141<0 236 0 659> 136 75<711 711> 393 141<423 659 0 659> 401 75<848 848>
LayerCount: 2
Fore
SplineSet
136 711 m 1x95
 146 802 191 848 243 848 c 0
 297 848 332 802 363 802 c 0
 380 802 394 814 401 848 c 1
 476 848 l 1
 466 756 421 711 369 711 c 0
 315 711 280 757 249 757 c 0
 232 757 218 744 211 711 c 1
 136 711 l 1x95
66 0 m 1xba
 66 660 l 1
 216 660 l 1
 354 328 l 1
 410 184 l 1
 414 184 l 1x7a
 407 254 393 346 393 423 c 2
 393 660 l 1
 534 660 l 1
 534 0 l 1
 384 0 l 1
 246 331 l 1
 190 474 l 1
 186 474 l 1
 193 401 207 314 207 236 c 2
 207 0 l 1
 66 0 l 1xba
EndSplineSet
Validated: 1
EndChar

StartChar: O
Encoding: 79 79 72
Width: 600
GlyphClass: 2
Flags: HMW
HStem: -12 127<266 334 266 377.5> 545 127<266 334>
VStem: 38 151<266.5 399.5 266.5 441> 411 151<266.5 399.5>
LayerCount: 2
Fore
SplineSet
300 -12 m 0
 145 -12 38 118 38 333 c 0
 38 549 145 672 300 672 c 0
 455 672 562 548 562 333 c 0
 562 118 455 -12 300 -12 c 0
300 115 m 0
 368 115 411 200 411 333 c 0
 411 466 368 545 300 545 c 0
 232 545 189 466 189 333 c 0
 189 200 232 115 300 115 c 0
EndSplineSet
Validated: 1
EndChar

StartChar: Oacute
Encoding: 211 211 73
Width: 600
GlyphClass: 2
Flags: HMW
HStem: -12 127<266 334 266 377.5> 544 127<266 334> 709 121<225 462 306 342>
VStem: 38 151<265.5 398 265.5 439.5> 411 151<265.5 398>
LayerCount: 2
Fore
SplineSet
225 709 m 1
 306 830 l 1
 462 830 l 1
 342 709 l 1
 225 709 l 1
300 -12 m 0
 145 -12 38 117 38 332 c 0
 38 547 145 671 300 671 c 0
 455 671 562 546 562 332 c 0
 562 117 455 -12 300 -12 c 0
300 115 m 0
 368 115 411 199 411 332 c 0
 411 464 368 544 300 544 c 0
 232 544 189 464 189 332 c 0
 189 199 232 115 300 115 c 0
EndSplineSet
Validated: 1
EndChar

StartChar: Obreve
Encoding: 334 334 74
Width: 600
GlyphClass: 2
Flags: HMW
HStem: -12 127<266 334 266 377.5> 544 127<266 334> 709 121<163 343.5>
VStem: 38 151<265.5 398 265.5 439.5> 411 151<265.5 398>
LayerCount: 2
Fore
SplineSet
300 709 m 0
 213 709 171 759 163 830 c 1
 244 830 l 1
 250 804 266 783 300 783 c 0
 334 783 350 804 356 830 c 1
 437 830 l 1
 429 759 387 709 300 709 c 0
300 -12 m 0
 145 -12 38 117 38 332 c 0
 38 547 145 671 300 671 c 0
 455 671 562 546 562 332 c 0
 562 117 455 -12 300 -12 c 0
300 115 m 0
 368 115 411 199 411 332 c 0
 411 464 368 544 300 544 c 0
 232 544 189 464 189 332 c 0
 189 199 232 115 300 115 c 0
EndSplineSet
Validated: 1
EndChar

StartChar: uni01D1
Encoding: 465 465 75
Width: 600
GlyphClass: 2
Flags: HMW
HStem: -12 127<266 334 266 377.5> 544 127<266 334> 709 121<228 228 228 245 355 372>
VStem: 38 151<265.5 398 265.5 439.5> 411 151<265.5 398>
LayerCount: 2
Fore
SplineSet
228 709 m 1
 132 830 l 1
 245 830 l 1
 298 768 l 1
 302 768 l 1
 355 830 l 1
 468 830 l 1
 372 709 l 1
 228 709 l 1
300 -12 m 0
 145 -12 38 117 38 332 c 0
 38 547 145 671 300 671 c 0
 455 671 562 546 562 332 c 0
 562 117 455 -12 300 -12 c 0
300 115 m 0
 368 115 411 199 411 332 c 0
 411 464 368 544 300 544 c 0
 232 544 189 464 189 332 c 0
 189 199 232 115 300 115 c 0
EndSplineSet
Validated: 1
EndChar

StartChar: Ocircumflex
Encoding: 212 212 76
Width: 600
GlyphClass: 2
Flags: HMW
HStem: -12 127<266 334 266 377.5> 544 127<266 334> 709 121<132 372 228 245 355 355 355 372 228 468>
VStem: 38 151<265.5 398 265.5 439.5> 411 151<265.5 398>
LayerCount: 2
Fore
SplineSet
132 709 m 1
 228 830 l 1
 372 830 l 1
 468 709 l 1
 355 709 l 1
 302 771 l 1
 298 771 l 1
 245 709 l 1
 132 709 l 1
300 -12 m 0
 145 -12 38 117 38 332 c 0
 38 547 145 671 300 671 c 0
 455 671 562 546 562 332 c 0
 562 117 455 -12 300 -12 c 0
300 115 m 0
 368 115 411 199 411 332 c 0
 411 464 368 544 300 544 c 0
 232 544 189 464 189 332 c 0
 189 199 232 115 300 115 c 0
EndSplineSet
Validated: 1
EndChar

StartChar: Odieresis
Encoding: 214 214 77
Width: 600
GlyphClass: 2
Flags: HMW
HStem: -12 127<266 334 266 377.5> 544 127<266 334> 708 140<180.5 221.5 378.5 419.5>
VStem: 38 151<266 399 266 440.5> 131 140<758 798> 329 140<758 798> 411 151<266 399>
LayerCount: 2
Fore
SplineSet
201 708 m 0xec
 160 708 131 738 131 778 c 0
 131 818 160 848 201 848 c 0
 242 848 271 818 271 778 c 0
 271 738 242 708 201 708 c 0xec
399 708 m 0
 358 708 329 738 329 778 c 0
 329 818 358 848 399 848 c 0
 440 848 469 818 469 778 c 0
 469 738 440 708 399 708 c 0
300 -12 m 0xf2
 145 -12 38 117 38 333 c 0
 38 548 145 671 300 671 c 0
 455 671 562 547 562 333 c 0
 562 117 455 -12 300 -12 c 0xf2
300 115 m 0
 368 115 411 199 411 333 c 0
 411 465 368 544 300 544 c 0
 232 544 189 465 189 333 c 0
 189 199 232 115 300 115 c 0
EndSplineSet
Validated: 1
EndChar

StartChar: Ograve
Encoding: 210 210 78
Width: 600
GlyphClass: 2
Flags: HMW
HStem: -12 127<266 334 266 377.5> 544 127<266 334> 709 121<258 258 258 294 138 375>
VStem: 38 151<265.5 398 265.5 439.5> 411 151<265.5 398>
LayerCount: 2
Fore
SplineSet
258 709 m 1
 138 830 l 1
 294 830 l 1
 375 709 l 1
 258 709 l 1
300 -12 m 0
 145 -12 38 117 38 332 c 0
 38 547 145 671 300 671 c 0
 455 671 562 546 562 332 c 0
 562 117 455 -12 300 -12 c 0
300 115 m 0
 368 115 411 199 411 332 c 0
 411 464 368 544 300 544 c 0
 232 544 189 464 189 332 c 0
 189 199 232 115 300 115 c 0
EndSplineSet
Validated: 1
EndChar

StartChar: Ohungarumlaut
Encoding: 336 336 79
Width: 600
GlyphClass: 2
Flags: HMW
HStem: -12 127<266 334 266 377.5> 544 127<266 334> 709 121<163 351 226 262 342 351 406 441 342 342>
VStem: 38 151<265.5 398 265.5 439.5> 411 151<265.5 398>
LayerCount: 2
Fore
SplineSet
163 709 m 1
 226 830 l 1
 351 830 l 1
 262 709 l 1
 163 709 l 1
342 709 m 1
 406 830 l 1
 531 830 l 1
 441 709 l 1
 342 709 l 1
300 -12 m 0
 145 -12 38 117 38 332 c 0
 38 547 145 671 300 671 c 0
 455 671 562 546 562 332 c 0
 562 117 455 -12 300 -12 c 0
300 115 m 0
 368 115 411 199 411 332 c 0
 411 464 368 544 300 544 c 0
 232 544 189 464 189 332 c 0
 189 199 232 115 300 115 c 0
EndSplineSet
Validated: 1
EndChar

StartChar: Omacron
Encoding: 332 332 80
Width: 600
GlyphClass: 2
Flags: HMW
HStem: -12 127<266 334 266 377.5> 545 127<266 334> 728 93<159 441 159 441>
VStem: 38 151<266 399 266 440.5> 159 282<728 821 728 821> 411 151<266 399>
LayerCount: 2
Fore
SplineSet
159 728 m 1xe8
 159 821 l 1
 441 821 l 1
 441 728 l 1
 159 728 l 1xe8
300 -12 m 0xf4
 145 -12 38 117 38 333 c 0
 38 548 145 672 300 672 c 0
 455 672 562 547 562 333 c 0
 562 117 455 -12 300 -12 c 0xf4
300 115 m 0
 368 115 411 199 411 333 c 0
 411 465 368 545 300 545 c 0
 232 545 189 465 189 333 c 0
 189 199 232 115 300 115 c 0
EndSplineSet
Validated: 1
EndChar

StartChar: uni01EA
Encoding: 490 490 81
Width: 600
GlyphClass: 2
Flags: HMW
HStem: -225 95<294 367.5> -10 21G 545 127<266 334>
VStem: 38 151<266.5 399.5 266.5 441> 211 107<-105 -104> 411 151<266.5 399.5>
LayerCount: 2
Fore
SplineSet
326 -225 m 0
 262 -225 211 -191 211 -130 c 0xfc
 211 -78 244 -39 274 -12 c 1
 113 5 38 158 38 333 c 0xf4
 38 549 145 672 300 672 c 0
 455 672 562 548 562 333 c 0
 562 153 492 50 388 3 c 0
 337 -20 318 -60 318 -92 c 0
 318 -118 339 -130 361 -130 c 0
 374 -130 386 -123 396 -116 c 1
 430 -190 l 1
 405 -210 360 -225 326 -225 c 0
300 115 m 0
 368 115 411 200 411 333 c 0
 411 466 368 545 300 545 c 0
 232 545 189 466 189 333 c 0xf4
 189 200 232 115 300 115 c 0
EndSplineSet
Validated: 1
EndChar

StartChar: Oslash
Encoding: 216 216 82
Width: 600
GlyphClass: 2
Flags: HMW
HStem: -12 21G -12 127<287.5 334 287.5 377.5> 546 127<266 313.5>
VStem: 38 151<318 399.5 318 441> 411 151<266.5 345.5>
LayerCount: 2
Fore
SplineSet
108 -41 m 1x78
 30 9 l 1
 94 103 l 1xb8
 58 161 38 239 38 333 c 0
 38 549 145 673 300 673 c 0
 357 673 407 656 448 624 c 1
 501 702 l 1
 579 652 l 1
 511 552 l 1
 544 496 562 423 562 333 c 0
 562 118 455 -12 300 -12 c 0
 246 -12 198 3 159 33 c 1
 108 -41 l 1x78
195 249 m 1
 354 517 l 2
 354 518 355 519 355 520 c 0
 355 530 325 546 300 546 c 0
 232 546 189 466 189 333 c 0
 189 303 191 275 195 249 c 1
300 115 m 0x78
 368 115 411 200 411 333 c 0
 411 358 410 381 407 401 c 1
 237 147 l 1
 254 126 275 115 300 115 c 0x78
EndSplineSet
Validated: 1
EndChar

StartChar: Otilde
Encoding: 213 213 83
Width: 600
GlyphClass: 2
Flags: HMW
HStem: -12 127<266 334 266 377.5> 544 127<266 334> 711 137<130 264 130 264 211 389>
VStem: 38 151<266 399 266 440.5> 130 75<711 711> 395 75<848 848> 411 151<266 399>
LayerCount: 2
Fore
SplineSet
130 711 m 1xec
 140 802 185 848 237 848 c 0
 291 848 326 802 357 802 c 0
 374 802 388 814 395 848 c 1
 470 848 l 1
 460 756 415 711 363 711 c 0
 309 711 274 757 243 757 c 0
 226 757 212 744 205 711 c 1
 130 711 l 1xec
300 -12 m 0xf2
 145 -12 38 117 38 333 c 0
 38 548 145 671 300 671 c 0
 455 671 562 547 562 333 c 0
 562 117 455 -12 300 -12 c 0xf2
300 115 m 0
 368 115 411 199 411 333 c 0
 411 465 368 544 300 544 c 0
 232 544 189 465 189 333 c 0
 189 199 232 115 300 115 c 0
EndSplineSet
Validated: 1
EndChar

StartChar: OE
Encoding: 338 338 84
Width: 600
GlyphClass: 2
Flags: HMW
HStem: 0 119<278 287 287 294 278 595> 0 124<425 595 425 595> 278 123<425 546 425 546> 537 123<425 585 425 425> 541 119<245 585 278 585>
VStem: 19 151<253 412.5 253 446> 294 131<124 278 401 537>
LayerCount: 2
Fore
SplineSet
287 0 m 2x76
 133 0 19 107 19 333 c 0
 19 559 137 660 295 660 c 2
 585 660 l 1
 585 537 l 1
 425 537 l 1
 425 401 l 1
 546 401 l 1
 546 278 l 1
 425 278 l 1
 425 124 l 1
 595 124 l 1
 595 0 l 1
 287 0 l 2x76
278 119 m 2xae
 294 119 l 1
 294 541 l 1
 278 541 l 2
 212 541 170 492 170 333 c 0
 170 173 212 119 278 119 c 2xae
EndSplineSet
Validated: 1
EndChar

StartChar: P
Encoding: 80 80 85
Width: 600
GlyphClass: 2
Flags: HMW
HStem: 0 21G<74 74 74 221> 225 117<221 303 303 312 221 303> 543 117<221 303 221 221>
VStem: 74 147<0 225 342 543> 422 145<413.5 483>
LayerCount: 2
Fore
SplineSet
74 0 m 1
 74 660 l 1
 312 660 l 2
 453 660 567 608 567 448 c 0
 567 294 450 225 312 225 c 2
 221 225 l 1
 221 0 l 1
 74 0 l 1
221 342 m 1
 303 342 l 2
 384 342 422 379 422 448 c 0
 422 518 381 543 303 543 c 2
 221 543 l 1
 221 342 l 1
EndSplineSet
Validated: 1
EndChar

StartChar: Thorn
Encoding: 222 222 86
Width: 600
GlyphClass: 2
Flags: HMW
HStem: 0 21G<73 73 73 220> 125 117<220 302 302 311 220 302> 443 117<220 302 220 311> 640 20G<73 220 220 220>
VStem: 73 147<0 125 242 443 560 660> 421 145<314 383.5>
LayerCount: 2
Fore
SplineSet
73 0 m 1
 73 660 l 1
 220 660 l 1
 220 560 l 1
 311 560 l 2
 452 560 566 508 566 349 c 0
 566 193 449 125 311 125 c 2
 220 125 l 1
 220 0 l 1
 73 0 l 1
220 242 m 1
 302 242 l 2
 383 242 421 279 421 349 c 0
 421 418 380 443 302 443 c 2
 220 443 l 1
 220 242 l 1
EndSplineSet
Validated: 1
EndChar

StartChar: Q
Encoding: 81 81 87
Width: 600
GlyphClass: 2
Flags: HMW
HStem: -180 118<477.5 504.5> 545 127<262.5 331>
VStem: 36 151<266.5 399.5 266.5 441> 407 150<266.5 399.5>
LayerCount: 2
Fore
SplineSet
484 -180 m 0
 357 -180 269 -106 228 -3 c 1
 111 30 36 151 36 333 c 0
 36 549 141 672 297 672 c 0
 452 672 557 548 557 333 c 0
 557 160 489 39 382 0 c 1
 405 -48 454 -62 501 -62 c 0
 521 -62 540 -56 554 -49 c 1
 580 -159 l 1
 558 -171 525 -180 484 -180 c 0
297 115 m 0
 365 115 407 200 407 333 c 0
 407 466 365 545 297 545 c 0
 228 545 187 466 187 333 c 0
 187 200 228 115 297 115 c 0
EndSplineSet
Validated: 1
EndChar

StartChar: R
Encoding: 82 82 88
Width: 600
GlyphClass: 2
Flags: HMW
HStem: 0 21G<70 70 70 217 419 419 419 584> 239 117<217 289 289 294 217 289> 543 117<217 289 217 217>
VStem: 70 147<0 239 356 543> 408 145<422.5 488>
LayerCount: 2
Fore
SplineSet
70 0 m 1
 70 660 l 1
 301 660 l 2
 439 660 553 612 553 455 c 0
 553 358 506 296 437 265 c 1
 584 0 l 1
 419 0 l 1
 294 239 l 1
 217 239 l 1
 217 0 l 1
 70 0 l 1
217 356 m 1
 289 356 l 2
 367 356 408 390 408 455 c 0
 408 521 367 543 289 543 c 2
 217 543 l 1
 217 356 l 1
EndSplineSet
Validated: 1
EndChar

StartChar: Racute
Encoding: 340 340 89
Width: 600
GlyphClass: 2
Flags: HMW
HStem: 0 21G<70 70 70 217 419 419 419 584> 238 117<217 289 289 294 217 289> 542 117<217 289 217 217> 709 121<228 465 309 345>
VStem: 70 147<0 238 355 542> 408 145<421.5 486.5>
LayerCount: 2
Fore
SplineSet
228 709 m 1
 309 830 l 1
 465 830 l 1
 345 709 l 1
 228 709 l 1
70 0 m 1
 70 660 l 1
 301 660 l 2
 439 660 553 610 553 454 c 0
 553 357 506 295 437 264 c 1
 584 0 l 1
 419 0 l 1
 294 238 l 1
 217 238 l 1
 217 0 l 1
 70 0 l 1
217 355 m 1
 289 355 l 2
 367 355 408 389 408 454 c 0
 408 519 367 542 289 542 c 2
 217 542 l 1
 217 355 l 1
EndSplineSet
Validated: 1
EndChar

StartChar: Rcaron
Encoding: 344 344 90
Width: 600
GlyphClass: 2
Flags: HMW
HStem: 0 21G<70 70 70 217 419 419 419 584> 238 117<217 289 289 294 217 289> 542 117<217 289 217 217> 709 121<231 231 231 247 358 374>
VStem: 70 147<0 238 355 542> 408 145<421.5 486.5>
LayerCount: 2
Fore
SplineSet
231 709 m 1
 135 830 l 1
 247 830 l 1
 301 768 l 1
 305 768 l 1
 358 830 l 1
 470 830 l 1
 374 709 l 1
 231 709 l 1
70 0 m 1
 70 660 l 1
 301 660 l 2
 439 660 553 610 553 454 c 0
 553 357 506 295 437 264 c 1
 584 0 l 1
 419 0 l 1
 294 238 l 1
 217 238 l 1
 217 0 l 1
 70 0 l 1
217 355 m 1
 289 355 l 2
 367 355 408 389 408 454 c 0
 408 519 367 542 289 542 c 2
 217 542 l 1
 217 355 l 1
EndSplineSet
Validated: 1
EndChar

StartChar: S
Encoding: 83 83 91
Width: 600
GlyphClass: 2
Flags: HMW
HStem: -12 127<273.5 336 273.5 379> 545 127<286.5 343>
VStem: 76 149<463.5 503.5 463.5 531> 400 151<160 201>
LayerCount: 2
Fore
SplineSet
298 -12 m 0
 210 -12 120 20 50 83 c 1
 135 184 l 1
 184 143 245 115 302 115 c 0
 370 115 400 140 400 180 c 0
 400 222 362 236 299 260 c 2
 215 297 l 1
 142 324 76 380 76 476 c 0
 76 586 174 672 315 672 c 0
 394 672 473 642 532 585 c 1
 457 492 l 1
 412 526 371 545 315 545 c 0
 258 545 225 523 225 484 c 0
 225 443 269 429 332 406 c 1
 411 371 l 1
 497 339 551 285 551 192 c 0
 551 83 460 -12 298 -12 c 0
EndSplineSet
Validated: 1
EndChar

StartChar: Sacute
Encoding: 346 346 92
Width: 600
GlyphClass: 2
Flags: HMW
HStem: -12 127<273.5 336 273.5 379> 544 127<286.5 343> 709 121<233 469 313 350>
VStem: 76 149<462.5 502 462.5 529.5> 400 151<160 201>
LayerCount: 2
Fore
SplineSet
233 709 m 1
 313 830 l 1
 469 830 l 1
 350 709 l 1
 233 709 l 1
298 -12 m 0
 210 -12 120 20 50 83 c 1
 135 184 l 1
 184 143 245 115 302 115 c 0
 370 115 400 140 400 180 c 0
 400 222 362 235 299 259 c 2
 215 296 l 1
 142 323 76 379 76 475 c 0
 76 584 174 671 315 671 c 0
 394 671 473 640 532 584 c 1
 457 491 l 1
 412 524 371 544 315 544 c 0
 258 544 225 521 225 483 c 0
 225 442 269 428 332 405 c 1
 411 370 l 1
 497 338 551 285 551 192 c 0
 551 83 460 -12 298 -12 c 0
EndSplineSet
Validated: 1
EndChar

StartChar: Scaron
Encoding: 352 352 93
Width: 600
GlyphClass: 2
Flags: HMW
HStem: -12 127<273.5 336 273.5 379> 544 127<286.5 343> 709 121<236 236 236 252 363 379>
VStem: 76 149<462.5 502 462.5 529.5> 400 151<160 201>
LayerCount: 2
Fore
SplineSet
236 709 m 1
 140 830 l 1
 252 830 l 1
 305 768 l 1
 309 768 l 1
 363 830 l 1
 475 830 l 1
 379 709 l 1
 236 709 l 1
298 -12 m 0
 210 -12 120 20 50 83 c 1
 135 184 l 1
 184 143 245 115 302 115 c 0
 370 115 400 140 400 180 c 0
 400 222 362 235 299 259 c 2
 215 296 l 1
 142 323 76 379 76 475 c 0
 76 584 174 671 315 671 c 0
 394 671 473 640 532 584 c 1
 457 491 l 1
 412 524 371 544 315 544 c 0
 258 544 225 521 225 483 c 0
 225 442 269 428 332 405 c 1
 411 370 l 1
 497 338 551 285 551 192 c 0
 551 83 460 -12 298 -12 c 0
EndSplineSet
Validated: 1
EndChar

StartChar: Scedilla
Encoding: 350 350 94
Width: 600
GlyphClass: 2
Flags: HMW
HStem: -223 59<199 210> -10 21G<257 257> 545 127<286.5 343>
VStem: 76 149<463.5 503.5 463.5 531> 282 105<-133 -111> 400 151<160 201>
LayerCount: 2
Fore
SplineSet
210 -223 m 1
 199 -164 l 1
 247 -159 282 -146 282 -120 c 0
 282 -102 268 -88 224 -77 c 1
 257 -12 l 1xfc
 183 -3 109 30 50 83 c 1
 135 184 l 1
 184 143 245 115 302 115 c 0
 370 115 400 140 400 180 c 0
 400 222 362 236 299 260 c 2
 215 297 l 1
 142 324 76 380 76 476 c 0
 76 586 174 672 315 672 c 0
 394 672 473 642 532 585 c 1
 457 492 l 1
 412 526 371 545 315 545 c 0
 258 545 225 523 225 484 c 0
 225 443 269 429 332 406 c 1
 411 371 l 1
 497 339 551 285 551 192 c 0xf4
 551 94 477 6 343 -9 c 1
 329 -44 l 1
 363 -55 387 -77 387 -119 c 0xfc
 387 -188 305 -218 210 -223 c 1
EndSplineSet
Validated: 1
EndChar

StartChar: Scircumflex
Encoding: 348 348 95
Width: 600
GlyphClass: 2
Flags: HMW
HStem: -12 127<273.5 336 273.5 379> 544 127<286.5 343> 709 121<140 379 236 252 363 363 363 379 236 475>
VStem: 76 149<462.5 502 462.5 529.5> 400 151<160 201>
LayerCount: 2
Fore
SplineSet
140 709 m 1
 236 830 l 1
 379 830 l 1
 475 709 l 1
 363 709 l 1
 309 771 l 1
 305 771 l 1
 252 709 l 1
 140 709 l 1
298 -12 m 0
 210 -12 120 20 50 83 c 1
 135 184 l 1
 184 143 245 115 302 115 c 0
 370 115 400 140 400 180 c 0
 400 222 362 235 299 259 c 2
 215 296 l 1
 142 323 76 379 76 475 c 0
 76 584 174 671 315 671 c 0
 394 671 473 640 532 584 c 1
 457 491 l 1
 412 524 371 544 315 544 c 0
 258 544 225 521 225 483 c 0
 225 442 269 428 332 405 c 1
 411 370 l 1
 497 338 551 285 551 192 c 0
 551 83 460 -12 298 -12 c 0
EndSplineSet
Validated: 1
EndChar

StartChar: uni1E60
Encoding: 7776 7776 96
Width: 600
GlyphClass: 2
Flags: HMW
HStem: -12 127<273.5 336 273.5 379> 544 127<286.5 343> 709 154<282.5 332>
VStem: 76 149<463.5 503 463.5 530.5> 222 170<763.5 808.5> 400 151<160 201>
LayerCount: 2
Fore
SplineSet
307 709 m 0xec
 258 709 222 741 222 786 c 0
 222 831 258 863 307 863 c 0
 357 863 392 831 392 786 c 0
 392 741 357 709 307 709 c 0xec
298 -12 m 0
 210 -12 120 20 50 83 c 1
 135 184 l 1
 184 143 245 115 302 115 c 0
 370 115 400 140 400 180 c 0
 400 222 362 235 299 259 c 2
 215 296 l 1
 142 323 76 380 76 476 c 0
 76 585 174 671 315 671 c 0
 394 671 473 641 532 584 c 1
 457 491 l 1
 412 525 371 544 315 544 c 0
 258 544 225 522 225 484 c 0
 225 443 269 428 332 405 c 1
 411 370 l 1
 497 338 551 285 551 192 c 0xf4
 551 83 460 -12 298 -12 c 0
EndSplineSet
Validated: 1
EndChar

StartChar: uni1E9E
Encoding: 7838 7838 97
Width: 600
GlyphClass: 2
Flags: HMW
HStem: -12 119<366.5 384.5 366.5 451.5> 0 21G<64 215 64 64> 0 53<64 241> 553 119<270.5 319>
VStem: 64 151<0 427 0 447 0 509.5> 411 154<159 201.5>
LayerCount: 2
Fore
SplineSet
394 -12 m 0x9c
 320 -12 269 18 241 53 c 1x38
 317 142 l 1
 340 116 359 107 374 107 c 0
 395 107 411 137 411 181 c 0x9c
 411 222 377 259 309 279 c 1
 299 365 l 1
 374 493 l 1
 363 525 338 553 300 553 c 0
 241 553 215 511 215 427 c 2
 215 0 l 1
 64 0 l 1x58
 64 447 l 2
 64 572 133 672 304 672 c 0
 419 672 499 598 520 488 c 1
 448 363 l 1
 507 332 565 279 565 180 c 0
 565 72 509 -12 394 -12 c 0x9c
EndSplineSet
Validated: 1
EndChar

StartChar: T
Encoding: 84 84 98
Width: 600
GlyphClass: 2
Flags: HMW
HStem: 0 21G<226 226 226 374> 536 124<31 226 31 569 374 374 374 569>
VStem: 226 148<0 536 0 536>
LayerCount: 2
Fore
SplineSet
226 0 m 1
 226 536 l 1
 31 536 l 1
 31 660 l 1
 569 660 l 1
 569 536 l 1
 374 536 l 1
 374 0 l 1
 226 0 l 1
EndSplineSet
Validated: 1
EndChar

StartChar: Tcaron
Encoding: 356 356 99
Width: 600
GlyphClass: 2
Flags: HMW
HStem: 0 21G<226 226 226 374> 535 124<31 226 31 569 374 374 374 569> 709 121<228 228 228 245 355 372>
VStem: 226 148<0 535 0 535>
LayerCount: 2
Fore
SplineSet
228 709 m 1
 132 830 l 1
 245 830 l 1
 298 768 l 1
 302 768 l 1
 355 830 l 1
 468 830 l 1
 372 709 l 1
 228 709 l 1
226 0 m 1
 226 535 l 1
 31 535 l 1
 31 660 l 1
 569 660 l 1
 569 535 l 1
 374 535 l 1
 374 0 l 1
 226 0 l 1
EndSplineSet
Validated: 1
EndChar

StartChar: uni0162
Encoding: 354 354 100
Width: 600
GlyphClass: 2
Flags: HMW
HStem: -224 60<196 207> 0 21G<226 258 226 226 344 344 344 374> 536 124<31 226 31 569 374 374 374 569>
VStem: 226 148<0 536 0 536> 278 106<-133 -111>
LayerCount: 2
Fore
SplineSet
207 -224 m 1xf0
 196 -164 l 1
 243 -159 278 -146 278 -120 c 0
 278 -102 265 -88 220 -77 c 1
 258 0 l 1xe8
 226 0 l 1
 226 536 l 1
 31 536 l 1
 31 660 l 1
 569 660 l 1
 569 536 l 1
 374 536 l 1
 374 0 l 1
 344 0 l 1xf0
 326 -44 l 1
 359 -55 384 -77 384 -119 c 0xe8
 384 -188 301 -218 207 -224 c 1xf0
EndSplineSet
Validated: 1
EndChar

StartChar: U
Encoding: 85 85 101
Width: 600
GlyphClass: 2
Flags: HMW
HStem: -12 127<271 333 271 381> 640 20G<64 211 211 211 394 536 536 536>
VStem: 64 147<254 660> 394 142<239 254 254 660>
LayerCount: 2
Fore
SplineSet
302 -12 m 0
 143 -12 64 82 64 254 c 2
 64 660 l 1
 211 660 l 1
 211 239 l 2
 211 159 240 115 302 115 c 0
 364 115 394 159 394 239 c 2
 394 660 l 1
 536 660 l 1
 536 254 l 2
 536 82 460 -12 302 -12 c 0
EndSplineSet
Validated: 1
EndChar

StartChar: Uacute
Encoding: 218 218 102
Width: 600
GlyphClass: 2
Flags: HMW
HStem: -12 127<271 333 271 381> 709 121<225 462 306 342>
VStem: 64 147<253 659> 394 142<239 253 253 659>
LayerCount: 2
Fore
SplineSet
225 709 m 1
 306 830 l 1
 462 830 l 1
 342 709 l 1
 225 709 l 1
302 -12 m 0
 143 -12 64 82 64 253 c 2
 64 660 l 1
 211 660 l 1
 211 239 l 2
 211 158 240 115 302 115 c 0
 364 115 394 158 394 239 c 2
 394 660 l 1
 536 660 l 1
 536 253 l 2
 536 82 460 -12 302 -12 c 0
EndSplineSet
Validated: 1
EndChar

StartChar: Ubreve
Encoding: 364 364 103
Width: 600
GlyphClass: 2
Flags: HMW
HStem: -12 127<271 333 271 381> 709 121<163 343.5>
VStem: 64 147<253 659> 394 142<239 253 253 659>
LayerCount: 2
Fore
SplineSet
300 709 m 0
 213 709 171 759 163 830 c 1
 244 830 l 1
 250 804 266 783 300 783 c 0
 334 783 350 804 356 830 c 1
 437 830 l 1
 429 759 387 709 300 709 c 0
302 -12 m 0
 143 -12 64 82 64 253 c 2
 64 660 l 1
 211 660 l 1
 211 239 l 2
 211 158 240 115 302 115 c 0
 364 115 394 158 394 239 c 2
 394 660 l 1
 536 660 l 1
 536 253 l 2
 536 82 460 -12 302 -12 c 0
EndSplineSet
Validated: 1
EndChar

StartChar: uni01D3
Encoding: 467 467 104
Width: 600
GlyphClass: 2
Flags: HMW
HStem: -12 127<271 333 271 381> 709 121<228 228 228 245 355 372>
VStem: 64 147<253 659> 394 142<239 253 253 659>
LayerCount: 2
Fore
SplineSet
228 709 m 1
 132 830 l 1
 245 830 l 1
 298 768 l 1
 302 768 l 1
 355 830 l 1
 468 830 l 1
 372 709 l 1
 228 709 l 1
302 -12 m 0
 143 -12 64 82 64 253 c 2
 64 660 l 1
 211 660 l 1
 211 239 l 2
 211 158 240 115 302 115 c 0
 364 115 394 158 394 239 c 2
 394 660 l 1
 536 660 l 1
 536 253 l 2
 536 82 460 -12 302 -12 c 0
EndSplineSet
Validated: 1
EndChar

StartChar: Ucircumflex
Encoding: 219 219 105
Width: 600
GlyphClass: 2
Flags: HMW
HStem: -12 127<271 333 271 381> 709 121<132 372 228 245 355 355 355 372 228 468>
VStem: 64 147<253 659> 394 142<239 253 253 659>
LayerCount: 2
Fore
SplineSet
132 709 m 1
 228 830 l 1
 372 830 l 1
 468 709 l 1
 355 709 l 1
 302 771 l 1
 298 771 l 1
 245 709 l 1
 132 709 l 1
302 -12 m 0
 143 -12 64 82 64 253 c 2
 64 660 l 1
 211 660 l 1
 211 239 l 2
 211 158 240 115 302 115 c 0
 364 115 394 158 394 239 c 2
 394 660 l 1
 536 660 l 1
 536 253 l 2
 536 82 460 -12 302 -12 c 0
EndSplineSet
Validated: 1
EndChar

StartChar: Udieresis
Encoding: 220 220 106
Width: 600
GlyphClass: 2
Flags: HMW
HStem: -12 127<271 333 271 381> 708 140<180.5 221.5 378.5 419.5>
VStem: 64 147<254 659> 131 140<758 798> 329 140<758 798> 394 142<239 254 254 659>
LayerCount: 2
Fore
SplineSet
201 708 m 0xe4
 160 708 131 738 131 778 c 0xe4
 131 818 160 848 201 848 c 0
 242 848 271 818 271 778 c 0xd4
 271 738 242 708 201 708 c 0xe4
399 708 m 0
 358 708 329 738 329 778 c 0xe8
 329 818 358 848 399 848 c 0
 440 848 469 818 469 778 c 0
 469 738 440 708 399 708 c 0
302 -12 m 0
 143 -12 64 82 64 254 c 2
 64 660 l 1
 211 660 l 1
 211 239 l 2
 211 158 240 115 302 115 c 0
 364 115 394 158 394 239 c 2
 394 660 l 1
 536 660 l 1
 536 254 l 2
 536 82 460 -12 302 -12 c 0
EndSplineSet
Validated: 1
EndChar

StartChar: Ugrave
Encoding: 217 217 107
Width: 600
GlyphClass: 2
Flags: HMW
HStem: -12 127<271 333 271 381> 709 121<258 258 258 294 138 375>
VStem: 64 147<253 659> 394 142<239 253 253 659>
LayerCount: 2
Fore
SplineSet
258 709 m 1
 138 830 l 1
 294 830 l 1
 375 709 l 1
 258 709 l 1
302 -12 m 0
 143 -12 64 82 64 253 c 2
 64 660 l 1
 211 660 l 1
 211 239 l 2
 211 158 240 115 302 115 c 0
 364 115 394 158 394 239 c 2
 394 660 l 1
 536 660 l 1
 536 253 l 2
 536 82 460 -12 302 -12 c 0
EndSplineSet
Validated: 1
EndChar

StartChar: Uhungarumlaut
Encoding: 368 368 108
Width: 600
GlyphClass: 2
Flags: HMW
HStem: -12 127<271 333 271 381> 709 121<163 351 226 262 342 351 406 441 342 342>
VStem: 64 147<253 659> 394 142<239 253 253 659>
LayerCount: 2
Fore
SplineSet
163 709 m 1
 226 830 l 1
 351 830 l 1
 262 709 l 1
 163 709 l 1
342 709 m 1
 406 830 l 1
 531 830 l 1
 441 709 l 1
 342 709 l 1
302 -12 m 0
 143 -12 64 82 64 253 c 2
 64 660 l 1
 211 660 l 1
 211 239 l 2
 211 158 240 115 302 115 c 0
 364 115 394 158 394 239 c 2
 394 660 l 1
 536 660 l 1
 536 253 l 2
 536 82 460 -12 302 -12 c 0
EndSplineSet
Validated: 1
EndChar

StartChar: Umacron
Encoding: 362 362 109
Width: 600
GlyphClass: 2
Flags: HMW
HStem: -12 127<271 333 271 381> 728 93<159 441 159 441>
VStem: 64 147<254 659> 394 142<239 254 254 659>
LayerCount: 2
Fore
SplineSet
159 728 m 1
 159 821 l 1
 441 821 l 1
 441 728 l 1
 159 728 l 1
302 -12 m 0
 143 -12 64 82 64 254 c 2
 64 660 l 1
 211 660 l 1
 211 239 l 2
 211 159 240 115 302 115 c 0
 364 115 394 159 394 239 c 2
 394 660 l 1
 536 660 l 1
 536 254 l 2
 536 82 460 -12 302 -12 c 0
EndSplineSet
Validated: 1
EndChar

StartChar: Uogonek
Encoding: 370 370 110
Width: 600
GlyphClass: 2
Flags: HMW
HStem: -225 95<293 366.5> -10 21G -10 125 640 20G<64 211 211 211 394 536 536 536>
VStem: 64 147<254 660> 210 108<-105 -99> 394 142<239 254 254 660>
LayerCount: 2
Fore
SplineSet
325 -225 m 0xb6
 261 -225 210 -191 210 -130 c 0xd6
 210 -68 257 -30 274 -12 c 1
 133 -3 64 95 64 254 c 2
 64 660 l 1
 211 660 l 1
 211 239 l 2xba
 211 159 240 115 301 115 c 0
 363 115 394 159 394 239 c 2
 394 660 l 1
 536 660 l 1
 536 254 l 2
 536 128 494 48 412 9 c 0
 335 -28 318 -63 318 -92 c 0
 318 -118 339 -130 360 -130 c 0
 373 -130 386 -123 395 -116 c 1
 429 -190 l 1
 404 -210 360 -225 325 -225 c 0xb6
EndSplineSet
Validated: 1
EndChar

StartChar: Uring
Encoding: 366 366 111
Width: 600
GlyphClass: 2
Flags: HMW
HStem: -12 127<271 333 271 381> 704 55<288.5 311 288.5 333.5> 847 55<288.5 311>
VStem: 64 147<253 659> 187 72<789.5 816 789.5 832.5> 340 73<789.5 816> 394 142<239 253 253 659>
LayerCount: 2
Fore
SplineSet
300 704 m 0xec
 233 704 187 742 187 803 c 0
 187 862 233 902 300 902 c 0
 367 902 413 862 413 803 c 0
 413 742 367 704 300 704 c 0xec
300 759 m 0
 322 759 340 776 340 803 c 0
 340 829 322 847 300 847 c 0
 277 847 259 829 259 803 c 0
 259 776 277 759 300 759 c 0
302 -12 m 0xf2
 143 -12 64 82 64 253 c 2
 64 660 l 1
 211 660 l 1
 211 239 l 2
 211 158 240 115 302 115 c 0
 364 115 394 158 394 239 c 2
 394 660 l 1
 536 660 l 1
 536 253 l 2
 536 82 460 -12 302 -12 c 0xf2
EndSplineSet
Validated: 1
EndChar

StartChar: Utilde
Encoding: 360 360 112
Width: 600
GlyphClass: 2
Flags: HMW
HStem: -12 127<271 333 271 381> 711 137<130 264 130 264 211 389>
VStem: 64 147<254 659> 130 75<711 711> 394 142<239 254 254 659> 395 75<848 848>
LayerCount: 2
Fore
SplineSet
130 711 m 1xe8
 140 802 185 848 237 848 c 0
 291 848 326 802 357 802 c 0
 374 802 388 814 395 848 c 1
 470 848 l 1
 460 756 415 711 363 711 c 0
 309 711 274 757 243 757 c 0
 226 757 212 744 205 711 c 1xd4
 130 711 l 1xe8
302 -12 m 0
 143 -12 64 82 64 254 c 2
 64 660 l 1
 211 660 l 1
 211 239 l 2
 211 158 240 115 302 115 c 0
 364 115 394 158 394 239 c 2
 394 660 l 1
 536 660 l 1
 536 254 l 2
 536 82 460 -12 302 -12 c 0
EndSplineSet
Validated: 1
EndChar

StartChar: V
Encoding: 86 86 113
Width: 600
GlyphClass: 2
Flags: HMW
HStem: 0 21G<212 212 212 389> 0 139<212 305 301 305 301 389> 640 20G<15 171 171 171 435 585 585 585>
VStem: 15 570<660 660>
LayerCount: 2
Fore
SplineSet
212 0 m 1xb0
 15 660 l 1
 171 660 l 1
 250 351 l 2
 269 279 282 212 301 139 c 1
 305 139 l 1x70
 325 212 340 279 358 351 c 2
 435 660 l 1
 585 660 l 1
 389 0 l 1
 212 0 l 1xb0
EndSplineSet
Validated: 1
EndChar

StartChar: W
Encoding: 87 87 114
Width: 600
GlyphClass: 2
Flags: HMW
HStem: 0 139<91 182 179 182 179 242 428 432> 336 156<299 302 299 299> 640 20G<4 154 154 154 456 596 596 596>
VStem: 4 592<660 660>
LayerCount: 2
Fore
SplineSet
91 0 m 1
 4 660 l 1
 154 660 l 1
 175 307 l 2
 176 250 178 195 179 139 c 1
 182 139 l 1
 192 195 206 251 217 307 c 2
 262 492 l 1
 351 492 l 1
 394 307 l 2
 404 253 418 196 428 139 c 1
 432 139 l 1
 434 196 434 252 437 307 c 2
 456 660 l 1
 596 660 l 1
 515 0 l 1
 361 0 l 1
 320 210 l 2
 312 251 305 296 302 336 c 1
 299 336 l 1
 295 296 289 251 281 210 c 2
 242 0 l 1
 91 0 l 1
EndSplineSet
Validated: 1
EndChar

StartChar: Wacute
Encoding: 7810 7810 115
Width: 600
GlyphClass: 2
Flags: HMW
HStem: 0 139<91 182 179 182 179 242 428 432> 335 156<299 302 299 299> 709 121<225 462 306 342>
VStem: 4 592<659 659>
LayerCount: 2
Fore
SplineSet
225 709 m 1
 306 830 l 1
 462 830 l 1
 342 709 l 1
 225 709 l 1
91 0 m 1
 4 660 l 1
 154 660 l 1
 175 307 l 2
 176 250 178 195 179 139 c 1
 182 139 l 1
 192 195 206 251 217 307 c 2
 262 491 l 1
 351 491 l 1
 394 307 l 2
 404 253 418 196 428 139 c 1
 432 139 l 1
 434 196 434 253 437 307 c 2
 456 660 l 1
 596 660 l 1
 515 0 l 1
 361 0 l 1
 320 209 l 2
 312 250 305 295 302 335 c 1
 299 335 l 1
 295 295 289 250 281 209 c 2
 242 0 l 1
 91 0 l 1
EndSplineSet
Validated: 1
EndChar

StartChar: Wcircumflex
Encoding: 372 372 116
Width: 600
GlyphClass: 2
Flags: HMW
HStem: 0 139<91 182 179 182 179 242 428 432> 335 156<299 302 299 299> 709 121<132 372 228 245 355 355 355 372 228 468>
VStem: 4 592<659 659>
LayerCount: 2
Fore
SplineSet
132 709 m 1
 228 830 l 1
 372 830 l 1
 468 709 l 1
 355 709 l 1
 302 771 l 1
 298 771 l 1
 245 709 l 1
 132 709 l 1
91 0 m 1
 4 660 l 1
 154 660 l 1
 175 307 l 2
 176 250 178 195 179 139 c 1
 182 139 l 1
 192 195 206 251 217 307 c 2
 262 491 l 1
 351 491 l 1
 394 307 l 2
 404 253 418 196 428 139 c 1
 432 139 l 1
 434 196 434 253 437 307 c 2
 456 660 l 1
 596 660 l 1
 515 0 l 1
 361 0 l 1
 320 209 l 2
 312 250 305 295 302 335 c 1
 299 335 l 1
 295 295 289 250 281 209 c 2
 242 0 l 1
 91 0 l 1
EndSplineSet
Validated: 1
EndChar

StartChar: Wdieresis
Encoding: 7812 7812 117
Width: 600
GlyphClass: 2
Flags: HMW
HStem: 0 139<91 182 179 182 179 242 428 432> 335 156<299 302 299 299> 708 140<180.5 221.5 378.5 419.5>
VStem: 131 140<758 798> 329 140<758 798>
LayerCount: 2
Fore
SplineSet
201 708 m 0
 160 708 131 738 131 778 c 0
 131 818 160 848 201 848 c 0
 242 848 271 818 271 778 c 0
 271 738 242 708 201 708 c 0
399 708 m 0
 358 708 329 738 329 778 c 0
 329 818 358 848 399 848 c 0
 440 848 469 818 469 778 c 0
 469 738 440 708 399 708 c 0
91 0 m 1
 4 660 l 1
 154 660 l 1
 175 307 l 2
 176 250 178 195 179 139 c 1
 182 139 l 1
 192 195 206 251 217 307 c 2
 262 491 l 1
 351 491 l 1
 394 307 l 2
 404 253 418 196 428 139 c 1
 432 139 l 1
 434 196 434 252 437 307 c 2
 456 660 l 1
 596 660 l 1
 515 0 l 1
 361 0 l 1
 320 209 l 2
 312 250 305 296 302 335 c 1
 299 335 l 1
 295 296 289 250 281 209 c 2
 242 0 l 1
 91 0 l 1
EndSplineSet
Validated: 1
EndChar

StartChar: Wgrave
Encoding: 7808 7808 118
Width: 600
GlyphClass: 2
Flags: HMW
HStem: 0 139<91 182 179 182 179 242 428 432> 335 156<299 302 299 299> 709 121<258 258 258 294 138 375>
VStem: 4 592<659 659>
LayerCount: 2
Fore
SplineSet
258 709 m 1
 138 830 l 1
 294 830 l 1
 375 709 l 1
 258 709 l 1
91 0 m 1
 4 660 l 1
 154 660 l 1
 175 307 l 2
 176 250 178 195 179 139 c 1
 182 139 l 1
 192 195 206 251 217 307 c 2
 262 491 l 1
 351 491 l 1
 394 307 l 2
 404 253 418 196 428 139 c 1
 432 139 l 1
 434 196 434 253 437 307 c 2
 456 660 l 1
 596 660 l 1
 515 0 l 1
 361 0 l 1
 320 209 l 2
 312 250 305 295 302 335 c 1
 299 335 l 1
 295 295 289 250 281 209 c 2
 242 0 l 1
 91 0 l 1
EndSplineSet
Validated: 1
EndChar

StartChar: X
Encoding: 88 88 119
Width: 600
GlyphClass: 2
Flags: HMW
HStem: 0 21G<18 18 18 175 418 418 418 582> 640 20G<29 194 194 194 413 571 571 571>
VStem: 18 564<0 0>
LayerCount: 2
Fore
SplineSet
18 0 m 1
 208 339 l 1
 29 660 l 1
 194 660 l 1
 257 534 l 2
 272 504 287 470 307 428 c 1
 311 428 l 1
 327 470 341 504 355 534 c 2
 413 660 l 1
 571 660 l 1
 392 332 l 1
 582 0 l 1
 418 0 l 1
 347 136 l 2
 329 170 313 204 295 244 c 1
 291 244 l 1
 275 204 260 170 243 136 c 2
 175 0 l 1
 18 0 l 1
EndSplineSet
Validated: 1
EndChar

StartChar: Y
Encoding: 89 89 120
Width: 600
GlyphClass: 2
Flags: HMW
HStem: 0 21G<226 226 226 374> 640 20G<16 174 174 174 430 584 584 584>
VStem: 226 148<0 223 0 223>
LayerCount: 2
Fore
SplineSet
226 0 m 1
 226 223 l 1
 16 660 l 1
 174 660 l 1
 240 500 l 2
 260 450 279 402 299 349 c 1
 303 349 l 1
 324 402 343 450 364 500 c 2
 430 660 l 1
 584 660 l 1
 374 223 l 1
 374 0 l 1
 226 0 l 1
EndSplineSet
Validated: 1
EndChar

StartChar: Yacute
Encoding: 221 221 121
Width: 600
GlyphClass: 2
Flags: HMW
HStem: 0 21G<226 226 226 374> 709 121<225 462 306 342>
VStem: 226 148<0 223 0 223>
LayerCount: 2
Fore
SplineSet
225 709 m 1
 306 830 l 1
 462 830 l 1
 342 709 l 1
 225 709 l 1
226 0 m 1
 226 223 l 1
 16 660 l 1
 174 660 l 1
 240 499 l 2
 260 449 279 401 299 349 c 1
 303 349 l 1
 324 401 343 449 364 499 c 2
 430 660 l 1
 584 660 l 1
 374 223 l 1
 374 0 l 1
 226 0 l 1
EndSplineSet
Validated: 1
EndChar

StartChar: Ycircumflex
Encoding: 374 374 122
Width: 600
GlyphClass: 2
Flags: HMW
HStem: 0 21G<226 226 226 374> 709 121<132 372 228 245 355 355 355 372 228 468>
VStem: 226 148<0 223 0 223>
LayerCount: 2
Fore
SplineSet
132 709 m 1
 228 830 l 1
 372 830 l 1
 468 709 l 1
 355 709 l 1
 302 771 l 1
 298 771 l 1
 245 709 l 1
 132 709 l 1
226 0 m 1
 226 223 l 1
 16 660 l 1
 174 660 l 1
 240 499 l 2
 260 449 279 401 299 349 c 1
 303 349 l 1
 324 401 343 449 364 499 c 2
 430 660 l 1
 584 660 l 1
 374 223 l 1
 374 0 l 1
 226 0 l 1
EndSplineSet
Validated: 1
EndChar

StartChar: Ydieresis
Encoding: 376 376 123
Width: 600
GlyphClass: 2
Flags: HMW
HStem: 0 21G<226 226 226 374> 708 140<180.5 221.5 378.5 419.5>
VStem: 131 140<758 798> 226 148<0 223 0 223> 329 140<758 798>
LayerCount: 2
Fore
SplineSet
201 708 m 0xe8
 160 708 131 738 131 778 c 0
 131 818 160 848 201 848 c 0
 242 848 271 818 271 778 c 0
 271 738 242 708 201 708 c 0xe8
399 708 m 0
 358 708 329 738 329 778 c 0
 329 818 358 848 399 848 c 0
 440 848 469 818 469 778 c 0
 469 738 440 708 399 708 c 0
226 0 m 1xd0
 226 223 l 1
 16 660 l 1
 174 660 l 1
 240 499 l 2
 260 449 279 401 299 349 c 1
 303 349 l 1
 324 401 343 449 364 499 c 2
 430 660 l 1
 584 660 l 1
 374 223 l 1
 374 0 l 1
 226 0 l 1xd0
EndSplineSet
Validated: 1
EndChar

StartChar: uni1E8E
Encoding: 7822 7822 124
Width: 600
GlyphClass: 2
Flags: HMW
HStem: 0 21G<226 226 226 374> 709 154<275.5 324.5>
VStem: 215 170<763.5 808.5> 226 148<0 223 0 223>
LayerCount: 2
Fore
SplineSet
300 709 m 0xe0
 251 709 215 741 215 786 c 0
 215 831 251 863 300 863 c 0
 349 863 385 831 385 786 c 0
 385 741 349 709 300 709 c 0xe0
226 0 m 1xd0
 226 223 l 1
 16 660 l 1
 174 660 l 1
 240 499 l 2
 260 449 279 401 299 349 c 1
 303 349 l 1
 324 401 343 449 364 499 c 2
 430 660 l 1
 584 660 l 1
 374 223 l 1
 374 0 l 1
 226 0 l 1xd0
EndSplineSet
Validated: 1
EndChar

StartChar: Ygrave
Encoding: 7922 7922 125
Width: 600
GlyphClass: 2
Flags: HMW
HStem: 0 21G<226 226 226 374> 709 121<258 258 258 294 138 375>
VStem: 226 148<0 223 0 223>
LayerCount: 2
Fore
SplineSet
258 709 m 1
 138 830 l 1
 294 830 l 1
 375 709 l 1
 258 709 l 1
226 0 m 1
 226 223 l 1
 16 660 l 1
 174 660 l 1
 240 499 l 2
 260 449 279 401 299 349 c 1
 303 349 l 1
 324 401 343 449 364 499 c 2
 430 660 l 1
 584 660 l 1
 374 223 l 1
 374 0 l 1
 226 0 l 1
EndSplineSet
Validated: 1
EndChar

StartChar: uni1EF8
Encoding: 7928 7928 126
Width: 600
GlyphClass: 2
Flags: HMW
HStem: 0 21G<226 226 226 374> 711 137<130 264 130 264 211 389>
VStem: 130 75<711 711> 226 148<0 223 0 223> 395 75<848 848>
LayerCount: 2
Fore
SplineSet
130 711 m 1
 140 802 185 848 237 848 c 0
 291 848 326 802 357 802 c 0
 374 802 388 814 395 848 c 1
 470 848 l 1
 460 756 415 711 363 711 c 0
 309 711 274 757 243 757 c 0
 226 757 212 744 205 711 c 1
 130 711 l 1
226 0 m 1xd0
 226 223 l 1
 16 660 l 1
 174 660 l 1
 240 499 l 2
 260 449 279 401 299 349 c 1
 303 349 l 1
 324 401 343 449 364 499 c 2
 430 660 l 1
 584 660 l 1
 374 223 l 1
 374 0 l 1
 226 0 l 1xd0
EndSplineSet
Validated: 1
EndChar

StartChar: Z
Encoding: 90 90 127
Width: 600
GlyphClass: 2
Flags: HMW
HStem: 0 124<238 547 238 547> 537 123<85 362 85 543>
VStem: 56 491<0 89 89 89>
LayerCount: 2
Fore
SplineSet
56 0 m 1
 56 89 l 1
 362 537 l 1
 85 537 l 1
 85 660 l 1
 543 660 l 1
 543 571 l 1
 238 124 l 1
 547 124 l 1
 547 0 l 1
 56 0 l 1
EndSplineSet
Validated: 1
EndChar

StartChar: Zacute
Encoding: 377 377 128
Width: 600
GlyphClass: 2
Flags: HMW
HStem: 0 124<238 547 238 547> 536 123<85 362 85 543> 709 121<240 476 320 357>
VStem: 56 491<0 89 89 89>
LayerCount: 2
Fore
SplineSet
240 709 m 1
 320 830 l 1
 476 830 l 1
 357 709 l 1
 240 709 l 1
56 0 m 1
 56 89 l 1
 362 536 l 1
 85 536 l 1
 85 660 l 1
 543 660 l 1
 543 570 l 1
 238 124 l 1
 547 124 l 1
 547 0 l 1
 56 0 l 1
EndSplineSet
Validated: 1
EndChar

StartChar: Zcaron
Encoding: 381 381 129
Width: 600
GlyphClass: 2
Flags: HMW
HStem: 0 124<238 547 238 547> 536 123<85 362 85 543> 709 121<243 243 243 259 370 386>
VStem: 56 491<0 89 89 89>
LayerCount: 2
Fore
SplineSet
243 709 m 1
 147 830 l 1
 259 830 l 1
 312 768 l 1
 316 768 l 1
 370 830 l 1
 482 830 l 1
 386 709 l 1
 243 709 l 1
56 0 m 1
 56 89 l 1
 362 536 l 1
 85 536 l 1
 85 660 l 1
 543 660 l 1
 543 570 l 1
 238 124 l 1
 547 124 l 1
 547 0 l 1
 56 0 l 1
EndSplineSet
Validated: 1
EndChar

StartChar: Zdotaccent
Encoding: 379 379 130
Width: 600
GlyphClass: 2
Flags: HMW
HStem: 0 124<238 547 238 547> 536 123<85 362 85 543> 709 154<289.5 339>
VStem: 229 170<763.5 808.5>
LayerCount: 2
Fore
SplineSet
314 709 m 0
 265 709 229 741 229 786 c 0
 229 831 265 863 314 863 c 0
 364 863 399 831 399 786 c 0
 399 741 364 709 314 709 c 0
56 0 m 1
 56 89 l 1
 362 536 l 1
 85 536 l 1
 85 660 l 1
 543 660 l 1
 543 570 l 1
 238 124 l 1
 547 124 l 1
 547 0 l 1
 56 0 l 1
EndSplineSet
Validated: 1
EndChar

StartChar: a
Encoding: 97 97 131
Width: 600
GlyphClass: 2
Flags: HMW
HStem: -12 114<250 256> 0 21G<415 535 415 415> 240 88<388 388> 405 118<268.5 315.5>
VStem: 61 141<135 175 135 198> 388 147<152 240 240 240>
AnchorPoint: "Ancre-2" 311 510 basechar 0
AnchorPoint: "Ancre-1" 540 10 basechar 0
AnchorPoint: "Ancre-0" 300 0 basechar 0
LayerCount: 2
Fore
SplineSet
224 -12 m 0xbc
 124 -12 61 55 61 141 c 0
 61 255 153 313 388 328 c 1
 383 376 349 405 282 405 c 0
 234 405 187 386 151 357 c 1
 99 453 l 1
 147 493 226 523 311 523 c 0
 450 523 535 448 535 294 c 2
 535 0 l 1
 415 0 l 1x7c
 404 58 l 1
 400 58 l 1
 350 19 288 -12 224 -12 c 0xbc
271 102 m 0
 315 102 353 123 388 152 c 1
 388 240 l 1
 242 231 202 198 202 152 c 0
 202 118 229 102 271 102 c 0
EndSplineSet
Validated: 1
EndChar

StartChar: aacute
Encoding: 225 225 132
Width: 600
GlyphClass: 2
Flags: HMW
HStem: -12 114<250 256> 0 21G<415 535 415 415> 240 88<388 388> 405 118<268.5 315.5> 574 167<191 430 280 298>
VStem: 61 141<135 175 135 198> 388 147<152 240 240 240>
AnchorPoint: "Ancre-2" 313 741 basechar 0
AnchorPoint: "Ancre-1" 540 10 basechar 0
AnchorPoint: "Ancre-0" 300 0 basechar 0
LayerCount: 2
Fore
SplineSet
191 574 m 1x7a
 280 741 l 1
 430 741 l 1
 298 574 l 1
 191 574 l 1x7a
224 -12 m 0xbe
 124 -12 61 55 61 141 c 0
 61 255 153 313 388 328 c 1
 383 376 349 405 282 405 c 0
 234 405 187 386 151 357 c 1
 99 453 l 1
 147 493 226 523 311 523 c 0
 450 523 535 448 535 294 c 2
 535 0 l 1
 415 0 l 1x7e
 404 58 l 1
 400 58 l 1
 350 19 288 -12 224 -12 c 0xbe
271 102 m 0
 315 102 353 123 388 152 c 1
 388 240 l 1
 242 231 202 198 202 152 c 0
 202 118 229 102 271 102 c 0
EndSplineSet
Validated: 1
EndChar

StartChar: abreve
Encoding: 259 259 133
Width: 600
GlyphClass: 2
Flags: HMW
HStem: -12 114<250 256> 0 21G<415 535 415 415> 240 88<388 388> 405 118<268.5 315.5> 574 81<291 331 291 360.5>
VStem: 61 141<135 175 135 198> 164 82<730 730> 376 82<730 730> 388 147<152 240 240 240>
AnchorPoint: "Ancre-2" 313 730 basechar 0
AnchorPoint: "Ancre-1" 540 10 basechar 0
AnchorPoint: "Ancre-0" 300 0 basechar 0
LayerCount: 2
Fore
SplineSet
311 574 m 0x7a80
 212 574 166 649 164 730 c 1
 246 730 l 1
 251 688 271 655 311 655 c 0
 351 655 371 688 376 730 c 1
 458 730 l 1x7b
 456 649 410 574 311 574 c 0x7a80
224 -12 m 0xbc80
 124 -12 61 55 61 141 c 0
 61 255 153 313 388 328 c 1
 383 376 349 405 282 405 c 0
 234 405 187 386 151 357 c 1
 99 453 l 1
 147 493 226 523 311 523 c 0
 450 523 535 448 535 294 c 2
 535 0 l 1
 415 0 l 1x7c80
 404 58 l 1
 400 58 l 1
 350 19 288 -12 224 -12 c 0xbc80
271 102 m 0
 315 102 353 123 388 152 c 1
 388 240 l 1
 242 231 202 198 202 152 c 0
 202 118 229 102 271 102 c 0
EndSplineSet
Validated: 1
EndChar

StartChar: uni01CE
Encoding: 462 462 134
Width: 600
GlyphClass: 2
Flags: HMW
HStem: -12 114<250 256> 0 21G<415 535 415 415> 240 88<388 388> 405 118<268.5 315.5> 574 167<249 249 249 256 366 373>
VStem: 61 141<135 175 135 198> 388 147<152 240 240 240>
AnchorPoint: "Ancre-2" 313 741 basechar 0
AnchorPoint: "Ancre-1" 540 10 basechar 0
AnchorPoint: "Ancre-0" 300 0 basechar 0
LayerCount: 2
Fore
SplineSet
249 574 m 1x7a
 149 741 l 1
 256 741 l 1
 309 645 l 1
 313 645 l 1
 366 741 l 1
 473 741 l 1
 373 574 l 1
 249 574 l 1x7a
224 -12 m 0xbe
 124 -12 61 55 61 141 c 0
 61 255 153 313 388 328 c 1
 383 376 349 405 282 405 c 0
 234 405 187 386 151 357 c 1
 99 453 l 1
 147 493 226 523 311 523 c 0
 450 523 535 448 535 294 c 2
 535 0 l 1
 415 0 l 1x7e
 404 58 l 1
 400 58 l 1
 350 19 288 -12 224 -12 c 0xbe
271 102 m 0
 315 102 353 123 388 152 c 1
 388 240 l 1
 242 231 202 198 202 152 c 0
 202 118 229 102 271 102 c 0
EndSplineSet
Validated: 1
EndChar

StartChar: acircumflex
Encoding: 226 226 135
Width: 600
GlyphClass: 2
Flags: HMW
HStem: -12 114<250 256> 0 21G<415 535 415 415> 240 88<388 388> 405 118<268.5 315.5> 574 167<149 373 249 256 366 366 366 373 249 473>
VStem: 61 141<135 175 135 198> 388 147<152 240 240 240>
AnchorPoint: "Ancre-2" 313 741 basechar 0
AnchorPoint: "Ancre-1" 540 10 basechar 0
AnchorPoint: "Ancre-0" 300 0 basechar 0
LayerCount: 2
Fore
SplineSet
149 574 m 1x7a
 249 741 l 1
 373 741 l 1
 473 574 l 1
 366 574 l 1
 313 669 l 1
 309 669 l 1
 256 574 l 1
 149 574 l 1x7a
224 -12 m 0xbe
 124 -12 61 55 61 141 c 0
 61 255 153 313 388 328 c 1
 383 376 349 405 282 405 c 0
 234 405 187 386 151 357 c 1
 99 453 l 1
 147 493 226 523 311 523 c 0
 450 523 535 448 535 294 c 2
 535 0 l 1
 415 0 l 1x7e
 404 58 l 1
 400 58 l 1
 350 19 288 -12 224 -12 c 0xbe
271 102 m 0
 315 102 353 123 388 152 c 1
 388 240 l 1
 242 231 202 198 202 152 c 0
 202 118 229 102 271 102 c 0
EndSplineSet
Validated: 1
EndChar

StartChar: adieresis
Encoding: 228 228 136
Width: 600
GlyphClass: 2
Flags: HMW
HStem: -12 114<250 256> 0 21G<415 535 415 415> 240 88<388 388> 405 118<268.5 315.5> 571 157<179 225 397 443>
VStem: 61 141<135 175 135 198> 123 157<627.5 672> 342 157<627.5 672> 388 147<152 240 240 240>
AnchorPoint: "Ancre-2" 313 728 basechar 0
AnchorPoint: "Ancre-1" 540 10 basechar 0
AnchorPoint: "Ancre-0" 300 0 basechar 0
LayerCount: 2
Fore
SplineSet
202 571 m 0x7a80
 156 571 123 605 123 650 c 0
 123 694 156 728 202 728 c 0
 248 728 280 694 280 650 c 0
 280 605 248 571 202 571 c 0x7a80
420 571 m 0xbd
 374 571 342 605 342 650 c 0
 342 694 374 728 420 728 c 0
 466 728 499 694 499 650 c 0
 499 605 466 571 420 571 c 0xbd
224 -12 m 0
 124 -12 61 55 61 141 c 0
 61 255 153 313 388 328 c 1
 383 376 349 405 282 405 c 0
 234 405 187 386 151 357 c 1
 99 453 l 1
 147 493 226 523 311 523 c 0
 450 523 535 448 535 294 c 2
 535 0 l 1x7c80
 415 0 l 1x7b
 404 58 l 1
 400 58 l 1
 350 19 288 -12 224 -12 c 0
271 102 m 0
 315 102 353 123 388 152 c 1
 388 240 l 1xbc80
 242 231 202 198 202 152 c 0
 202 118 229 102 271 102 c 0
EndSplineSet
Validated: 1
EndChar

StartChar: agrave
Encoding: 224 224 137
Width: 600
GlyphClass: 2
Flags: HMW
HStem: -12 114<250 256> 0 21G<415 535 415 415> 240 88<388 388> 405 118<268.5 315.5> 574 167<323 323 323 341 191 430>
VStem: 61 141<135 175 135 198> 388 147<152 240 240 240>
AnchorPoint: "Ancre-2" 313 741 basechar 0
AnchorPoint: "Ancre-1" 540 10 basechar 0
AnchorPoint: "Ancre-0" 300 0 basechar 0
LayerCount: 2
Fore
SplineSet
323 574 m 1x7a
 191 741 l 1
 341 741 l 1
 430 574 l 1
 323 574 l 1x7a
224 -12 m 0xbe
 124 -12 61 55 61 141 c 0
 61 255 153 313 388 328 c 1
 383 376 349 405 282 405 c 0
 234 405 187 386 151 357 c 1
 99 453 l 1
 147 493 226 523 311 523 c 0
 450 523 535 448 535 294 c 2
 535 0 l 1
 415 0 l 1x7e
 404 58 l 1
 400 58 l 1
 350 19 288 -12 224 -12 c 0xbe
271 102 m 0
 315 102 353 123 388 152 c 1
 388 240 l 1
 242 231 202 198 202 152 c 0
 202 118 229 102 271 102 c 0
EndSplineSet
Validated: 1
EndChar

StartChar: amacron
Encoding: 257 257 138
Width: 600
GlyphClass: 2
Flags: HMW
HStem: -12 114<250 256> 0 21G<415 535 415 415> 240 88<388 388> 405 118<268.5 315.5> 592 93<173 449 173 449>
VStem: 61 141<135 175 135 198> 173 276<592 685 592 685> 388 147<152 240 240 240>
AnchorPoint: "Ancre-2" 313 685 basechar 0
AnchorPoint: "Ancre-1" 540 10 basechar 0
AnchorPoint: "Ancre-0" 300 0 basechar 0
LayerCount: 2
Fore
SplineSet
173 592 m 1x7a
 173 685 l 1
 449 685 l 1
 449 592 l 1
 173 592 l 1x7a
224 -12 m 0xbd
 124 -12 61 55 61 141 c 0
 61 255 153 313 388 328 c 1
 383 376 349 405 282 405 c 0
 234 405 187 386 151 357 c 1
 99 453 l 1
 147 493 226 523 311 523 c 0
 450 523 535 448 535 294 c 2
 535 0 l 1
 415 0 l 1x7d
 404 58 l 1
 400 58 l 1
 350 19 288 -12 224 -12 c 0xbd
271 102 m 0
 315 102 353 123 388 152 c 1
 388 240 l 1
 242 231 202 198 202 152 c 0
 202 118 229 102 271 102 c 0
EndSplineSet
Validated: 1
EndChar

StartChar: aogonek
Encoding: 261 261 139
Width: 600
GlyphClass: 2
Flags: HMW
HStem: -210 21G<409.5 454.5> -210 87<409.5 480.5> -12 114<250 256> 0 21G<483 535 483 483> 240 88<388 388> 405 118<268.5 315.5>
VStem: 61 141<135 175 135 198> 333 99<-98.5 -89.5> 388 147<152 240 240 240>
AnchorPoint: "Ancre-2" 311 510 basechar 0
AnchorPoint: "Ancre-1" 540 10 basechar 0
AnchorPoint: "Ancre-0" 300 0 basechar 0
LayerCount: 2
Fore
SplineSet
509 -111 m 1x5d
 540 -177 l 1
 514 -197 470 -210 439 -210 c 0
 380 -210 333 -179 333 -119 c 0
 333 -60 377 -18 403 0 c 1
 415 0 l 1
 404 58 l 1
 400 58 l 1
 350 19 288 -12 224 -12 c 0xaf
 124 -12 61 55 61 141 c 0
 61 255 153 313 388 328 c 1
 383 376 349 405 282 405 c 0
 234 405 187 386 151 357 c 1
 99 453 l 1
 147 493 226 523 311 523 c 0
 450 523 535 448 535 294 c 2
 535 0 l 1x9e80
 483 0 l 1
 448 -28 432 -56 432 -85 c 0
 432 -112 453 -123 474 -123 c 0
 487 -123 500 -117 509 -111 c 1x5d
388 152 m 1xae80
 388 240 l 1
 242 231 202 198 202 152 c 0
 202 118 229 102 271 102 c 0
 315 102 353 123 388 152 c 1xae80
EndSplineSet
Validated: 1
EndChar

StartChar: aring
Encoding: 229 229 140
Width: 600
GlyphClass: 2
Flags: HMW
HStem: -12 114<250 256> 0 21G<415 535 415 415> 240 88<388 388> 405 118<268.5 315.5> 548 55<299.5 322.5 299.5 344.5> 697 55<299.5 322.5>
VStem: 61 141<135 175 135 198> 198 72<636 664 636 681> 352 72<636 664> 388 147<152 240 240 240>
AnchorPoint: "Ancre-2" 313 752 basechar 0
AnchorPoint: "Ancre-1" 540 10 basechar 0
AnchorPoint: "Ancre-0" 300 0 basechar 0
LayerCount: 2
Fore
SplineSet
311 548 m 0x7d80
 244 548 198 588 198 650 c 0
 198 712 244 752 311 752 c 0
 378 752 424 712 424 650 c 0
 424 588 378 548 311 548 c 0x7d80
311 603 m 0
 334 603 352 622 352 650 c 0
 352 678 334 697 311 697 c 0
 288 697 270 678 270 650 c 0
 270 622 288 603 311 603 c 0
224 -12 m 0xb640
 124 -12 61 55 61 141 c 0
 61 255 153 313 388 328 c 1
 383 376 349 405 282 405 c 0
 234 405 187 386 151 357 c 1
 99 453 l 1
 147 493 226 523 311 523 c 0
 450 523 535 448 535 294 c 2
 535 0 l 1
 415 0 l 1x7640
 404 58 l 1
 400 58 l 1
 350 19 288 -12 224 -12 c 0xb640
271 102 m 0
 315 102 353 123 388 152 c 1
 388 240 l 1
 242 231 202 198 202 152 c 0
 202 118 229 102 271 102 c 0
EndSplineSet
Validated: 1
EndChar

StartChar: atilde
Encoding: 227 227 141
Width: 600
GlyphClass: 2
Flags: HMW
HStem: -12 114<250 256> 0 21G<415 535 415 415> 240 88<388 388> 405 118<268.5 315.5> 575 91<350 374.5 350 395.5> 628 90<247.5 272>
VStem: 61 141<135 175 135 198> 388 147<152 240 240 240>
AnchorPoint: "Ancre-2" 313 718 basechar 0
AnchorPoint: "Ancre-1" 540 10 basechar 0
AnchorPoint: "Ancre-0" 300 0 basechar 0
LayerCount: 2
Fore
SplineSet
140 575 m 1x79
 152 672 196 718 257 718 c 0
 306 718 336 666 364 666 c 0x79
 385 666 398 679 407 718 c 1
 482 718 l 1x75
 470 622 426 575 365 575 c 0x79
 315 575 286 628 258 628 c 0x75
 237 628 224 615 215 575 c 1
 140 575 l 1x79
224 -12 m 0xbb
 124 -12 61 55 61 141 c 0
 61 255 153 313 388 328 c 1
 383 376 349 405 282 405 c 0
 234 405 187 386 151 357 c 1
 99 453 l 1
 147 493 226 523 311 523 c 0
 450 523 535 448 535 294 c 2
 535 0 l 1
 415 0 l 1x7b
 404 58 l 1
 400 58 l 1
 350 19 288 -12 224 -12 c 0xbb
271 102 m 0
 315 102 353 123 388 152 c 1
 388 240 l 1
 242 231 202 198 202 152 c 0
 202 118 229 102 271 102 c 0
EndSplineSet
Validated: 1
EndChar

StartChar: ae
Encoding: 230 230 142
Width: 600
GlyphClass: 2
Flags: HMW
HStem: -12 115<426.5 464 426.5 466> 212 91<359 476 357 586 359 359> 406 117<170.5 203> 410 113<409 444>
VStem: 16 132<136.5 173.5 136.5 194> 241 116<218 303> 476 117<303 332>
LayerCount: 2
Fore
SplineSet
154 -12 m 0xde
 64 -12 16 56 16 142 c 0
 16 246 90 299 241 329 c 1
 237 378 222 406 184 406 c 0
 157 406 116 392 81 370 c 1xee
 29 466 l 1
 84 500 137 523 194 523 c 0
 252 523 287 492 310 446 c 1
 344 497 380 523 438 523 c 0
 540 523 593 411 593 278 c 0
 593 250 589 226 586 212 c 1
 359 212 l 1
 370 140 403 103 450 103 c 0
 478 103 501 111 528 130 c 1
 578 36 l 1
 540 5 487 -12 445 -12 c 0
 374 -12 328 19 294 68 c 1
 242 12 199 -12 154 -12 c 0xde
357 303 m 1
 476 303 l 1
 476 361 464 410 424 410 c 0
 391 410 364 376 357 303 c 1
194 102 m 0
 213 102 237 115 255 139 c 1
 247 161 242 191 241 218 c 2
 240 239 l 1
 175 225 148 194 148 153 c 0
 148 120 165 102 194 102 c 0
EndSplineSet
Validated: 1
EndChar

StartChar: b
Encoding: 98 98 143
Width: 600
GlyphClass: 2
Flags: HMW
HStem: -12 120<315 332 292 393.5> 0 21G<72 187 72 72> 403 120<329 342>
VStem: 72 147<143 353 544 723> 402 151<208 307.5>
LayerCount: 2
Fore
SplineSet
338 -12 m 0xb8
 292 -12 244 11 203 56 c 1
 199 56 l 1xb8
 187 0 l 1
 72 0 l 1x78
 72 723 l 1
 219 723 l 1
 219 544 l 1
 215 463 l 1
 254 500 305 523 353 523 c 0
 477 523 553 421 553 264 c 0
 553 89 449 -12 338 -12 c 0xb8
305 108 m 0
 359 108 402 155 402 261 c 0
 402 354 373 403 311 403 c 0
 279 403 250 387 219 353 c 1
 219 143 l 1
 247 117 279 108 305 108 c 0
EndSplineSet
Validated: 1
EndChar

StartChar: uni0180
Encoding: 384 384 144
Width: 600
GlyphClass: 2
Flags: HMW
HStem: -12 120<315 332 292 393.5> 0 21G<72 187 72 72> 382 120<329 342> 574 71<219 401 219 401>
VStem: 72 147<143 333 523 574 645 723> 402 151<201 294>
LayerCount: 2
Fore
SplineSet
338 -12 m 0xbc
 292 -12 244 11 203 56 c 1
 199 56 l 1xbc
 187 0 l 1
 72 0 l 1x7c
 72 574 l 1
 6 574 l 1
 6 639 l 1
 72 644 l 1
 72 723 l 1
 219 723 l 1
 219 645 l 1
 401 645 l 1
 401 574 l 1
 219 574 l 1
 219 523 l 1
 215 442 l 1
 254 480 305 502 353 502 c 0
 477 502 553 404 553 254 c 0
 553 84 449 -12 338 -12 c 0xbc
305 108 m 0
 359 108 402 151 402 251 c 0
 402 337 373 382 311 382 c 0
 279 382 250 367 219 333 c 1
 219 143 l 1
 247 117 279 108 305 108 c 0
EndSplineSet
Validated: 1
EndChar

StartChar: c
Encoding: 99 99 145
Width: 600
GlyphClass: 2
Flags: HMW
HStem: -12 119<316 377> 404 119<319.5 380.5>
VStem: 67 151<210 300 210 340>
AnchorPoint: "Ancre-2" 320 510 basechar 0
AnchorPoint: "Ancre-1" 0 0 basechar 0
AnchorPoint: "Ancre-0" 300 0 basechar 0
LayerCount: 2
Fore
SplineSet
343 -12 m 0
 187 -12 67 85 67 255 c 0
 67 425 201 523 354 523 c 0
 432 523 498 493 540 453 c 1
 472 362 l 1
 434 391 399 404 362 404 c 0
 277 404 218 345 218 255 c 0
 218 165 275 107 357 107 c 0
 409 107 453 130 488 156 c 1
 548 63 l 1
 488 12 411 -12 343 -12 c 0
EndSplineSet
Validated: 1
EndChar

StartChar: cacute
Encoding: 263 263 146
Width: 600
GlyphClass: 2
Flags: HMW
HStem: -12 119<316 377> 404 119<319.5 380.5> 574 167<200 439 289 307>
VStem: 67 151<210 300 210 340>
AnchorPoint: "Ancre-2" 322 741 basechar 0
AnchorPoint: "Ancre-1" 0 0 basechar 0
AnchorPoint: "Ancre-0" 300 0 basechar 0
LayerCount: 2
Fore
SplineSet
200 574 m 1
 289 741 l 1
 439 741 l 1
 307 574 l 1
 200 574 l 1
343 -12 m 0
 187 -12 67 85 67 255 c 0
 67 425 201 523 354 523 c 0
 432 523 498 493 540 453 c 1
 472 362 l 1
 434 391 399 404 362 404 c 0
 277 404 218 345 218 255 c 0
 218 165 275 107 357 107 c 0
 409 107 453 130 488 156 c 1
 548 63 l 1
 488 12 411 -12 343 -12 c 0
EndSplineSet
Validated: 1
EndChar

StartChar: ccaron
Encoding: 269 269 147
Width: 600
GlyphClass: 2
Flags: HMW
HStem: -12 119<316 377> 404 119<319.5 380.5> 574 167<258 258 258 265 375 382>
VStem: 67 151<210 300 210 340>
AnchorPoint: "Ancre-2" 322 741 basechar 0
AnchorPoint: "Ancre-1" 0 0 basechar 0
AnchorPoint: "Ancre-0" 300 0 basechar 0
LayerCount: 2
Fore
SplineSet
258 574 m 1
 158 741 l 1
 265 741 l 1
 318 645 l 1
 322 645 l 1
 375 741 l 1
 482 741 l 1
 382 574 l 1
 258 574 l 1
343 -12 m 0
 187 -12 67 85 67 255 c 0
 67 425 201 523 354 523 c 0
 432 523 498 493 540 453 c 1
 472 362 l 1
 434 391 399 404 362 404 c 0
 277 404 218 345 218 255 c 0
 218 165 275 107 357 107 c 0
 409 107 453 130 488 156 c 1
 548 63 l 1
 488 12 411 -12 343 -12 c 0
EndSplineSet
Validated: 1
EndChar

StartChar: ccedilla
Encoding: 231 231 148
Width: 600
GlyphClass: 2
Flags: HMW
HStem: -221 59<206 217> -12 119<349 349> -4 21G<266 266> 404 119<319.5 380.5>
VStem: 67 151<210 300 210 340> 288 106<-131 -109.5>
AnchorPoint: "Ancre-2" 320 510 basechar 0
AnchorPoint: "Ancre-1" 0 0 basechar 0
AnchorPoint: "Ancre-0" 302 -221 basechar 0
LayerCount: 2
Fore
SplineSet
336 -43 m 1xdc
 369 -54 394 -76 394 -117 c 0
 394 -186 311 -216 217 -221 c 1
 206 -162 l 1
 254 -157 288 -144 288 -118 c 0
 288 -101 275 -87 230 -76 c 1
 266 -4 l 1xbc
 149 23 67 114 67 255 c 0
 67 425 201 523 354 523 c 0
 432 523 498 493 540 453 c 1
 472 362 l 1
 434 391 399 404 362 404 c 0
 277 404 218 345 218 255 c 0
 218 165 275 107 357 107 c 0
 409 107 453 130 488 156 c 1
 548 63 l 1
 490 14 416 -11 349 -12 c 1
 336 -43 l 1xdc
EndSplineSet
Validated: 1
EndChar

StartChar: ccircumflex
Encoding: 265 265 149
Width: 600
GlyphClass: 2
Flags: HMW
HStem: -12 119<316 377> 404 119<319.5 380.5> 574 167<158 382 258 265 375 375 375 382 258 482>
VStem: 67 151<210 300 210 340>
AnchorPoint: "Ancre-2" 322 741 basechar 0
AnchorPoint: "Ancre-1" 0 0 basechar 0
AnchorPoint: "Ancre-0" 300 0 basechar 0
LayerCount: 2
Fore
SplineSet
158 574 m 1
 258 741 l 1
 382 741 l 1
 482 574 l 1
 375 574 l 1
 322 669 l 1
 318 669 l 1
 265 574 l 1
 158 574 l 1
343 -12 m 0
 187 -12 67 85 67 255 c 0
 67 425 201 523 354 523 c 0
 432 523 498 493 540 453 c 1
 472 362 l 1
 434 391 399 404 362 404 c 0
 277 404 218 345 218 255 c 0
 218 165 275 107 357 107 c 0
 409 107 453 130 488 156 c 1
 548 63 l 1
 488 12 411 -12 343 -12 c 0
EndSplineSet
Validated: 1
EndChar

StartChar: cdotaccent
Encoding: 267 267 150
Width: 600
GlyphClass: 2
Flags: HMW
HStem: -12 119<316 377> 404 119<319.5 380.5> 586 200<291 349>
VStem: 67 151<210 300 210 340> 220 200<654 714>
AnchorPoint: "Ancre-2" 322 750 basechar 0
AnchorPoint: "Ancre-1" 0 0 basechar 0
AnchorPoint: "Ancre-0" 300 0 basechar 0
LayerCount: 2
Fore
SplineSet
320 586 m 0
 262 586 220 624 220 684 c 0
 220 744 262 786 320 786 c 0
 378 786 420 744 420 684 c 0
 420 624 378 586 320 586 c 0
343 -12 m 0xd0
 187 -12 67 85 67 255 c 0
 67 425 201 523 354 523 c 0
 432 523 498 493 540 453 c 1
 472 362 l 1
 434 391 399 404 362 404 c 0
 277 404 218 345 218 255 c 0
 218 165 275 107 357 107 c 0
 409 107 453 130 488 156 c 1
 548 63 l 1
 488 12 411 -12 343 -12 c 0xd0
EndSplineSet
Validated: 1
EndChar

StartChar: d
Encoding: 100 100 151
Width: 600
GlyphClass: 2
Flags: HMW
HStem: -12 120<263.5 281> 0 21G<408 528 408 408> 403 120<271 287.5 205 312.5>
VStem: 47 151<206 306 206 338.5> 381 147<157 367 367 367 547 723 0 723>
LayerCount: 2
Fore
SplineSet
256 -12 m 0xb8
 130 -12 47 88 47 255 c 0
 47 422 151 523 259 523 c 0
 316 523 351 501 386 467 c 1
 381 547 l 1
 381 723 l 1
 528 723 l 1
 528 0 l 1
 408 0 l 1x78
 397 53 l 1
 394 53 l 1
 357 16 306 -12 256 -12 c 0xb8
294 108 m 0
 327 108 355 122 381 157 c 1
 381 367 l 1
 354 393 327 403 298 403 c 0
 244 403 198 355 198 257 c 0
 198 155 233 108 294 108 c 0
EndSplineSet
Validated: 1
EndChar

StartChar: eth
Encoding: 240 240 152
Width: 600
GlyphClass: 2
Flags: HMW
HStem: -12 119<267.5 334.5 267.5 375> 359 109<262 292 210 319.5> 652 20G<135 135> 741 20G<199 199>
VStem: 47 134<193 276 193 307.5> 413 137<213 271.5>
LayerCount: 2
Fore
SplineSet
295 -12 m 0
 160 -12 47 83 47 234 c 0
 47 381 152 468 268 468 c 0
 316 468 362 451 394 410 c 1
 375 474 343 524 296 568 c 1
 147 491 l 1
 109 556 l 1
 229 619 l 1
 201 638 170 656 135 672 c 1
 199 761 l 1
 250 738 299 710 344 677 c 1
 480 748 l 1
 518 682 l 1
 407 624 l 1
 493 542 550 431 550 273 c 0
 550 108 455 -12 295 -12 c 0
300 107 m 0
 369 107 413 161 413 265 c 0
 413 278 413 290 412 301 c 1
 378 343 341 359 298 359 c 0
 226 359 181 318 181 234 c 0
 181 152 235 107 300 107 c 0
EndSplineSet
Validated: 1
EndChar

StartChar: dcaron
Encoding: 271 271 153
Width: 600
GlyphClass: 2
Flags: HMW
HStem: -12 120<241.5 259> 0 21G<386 506 386 386> 403 120<248.5 265 183 290> 564 159<359 543 359 606>
VStem: 25 150<206 306 206 338.5> 359 147<157 367 367 367 547 723 0 723> 540 90
LayerCount: 2
Fore
SplineSet
543 564 m 1x7e
 538 792 l 1
 632 792 l 1
 630 723 l 1
 606 564 l 1
 543 564 l 1x7e
234 -12 m 0xbe
 107 -12 25 88 25 255 c 0
 25 422 129 523 237 523 c 0
 293 523 329 501 364 467 c 1
 359 547 l 1
 359 723 l 1
 506 723 l 1
 506 0 l 1
 386 0 l 1x7e
 375 53 l 1
 371 53 l 1
 335 16 284 -12 234 -12 c 0xbe
272 108 m 0
 305 108 333 122 359 157 c 1
 359 367 l 1
 332 393 305 403 275 403 c 0
 222 403 175 355 175 257 c 0
 175 155 211 108 272 108 c 0
EndSplineSet
Validated: 1
EndChar

StartChar: dcroat
Encoding: 273 273 154
Width: 600
GlyphClass: 2
Flags: HMW
HStem: -12 120<263.5 281> 0 21G<408 528 408 408> 382 120<272 287.5 205 313.5> 574 71<226 381 226 381>
VStem: 47 151<199.5 292.5 199.5 325> 381 147<157 346 346 346 527 574 574 574 645 723>
LayerCount: 2
Fore
SplineSet
256 -12 m 0xbc
 130 -12 47 84 47 245 c 0
 47 405 151 502 259 502 c 0
 316 502 351 480 386 447 c 1
 381 527 l 1
 381 574 l 1
 226 574 l 1
 226 645 l 1
 381 645 l 1
 381 723 l 1
 528 723 l 1
 528 645 l 1
 594 645 l 1
 594 580 l 1
 528 575 l 1
 528 0 l 1
 408 0 l 1x7c
 397 53 l 1
 394 53 l 1
 357 16 306 -12 256 -12 c 0xbc
294 108 m 0
 327 108 355 122 381 157 c 1
 381 346 l 1
 354 371 327 382 300 382 c 0
 244 382 198 338 198 247 c 0
 198 152 233 108 294 108 c 0
EndSplineSet
Validated: 1
EndChar

StartChar: e
Encoding: 101 101 155
Width: 600
GlyphClass: 2
Flags: HMW
HStem: -12 112<313.5 363> 212 98<206 413 204 540 206 206> 410 113<289.5 349.5>
VStem: 55 151<212 212 212 338.5> 413 133<310 340>
AnchorPoint: "Ancre-2" 313 510 basechar 0
AnchorPoint: "Ancre-1" 470 10 basechar 0
AnchorPoint: "Ancre-0" 300 0 basechar 0
LayerCount: 2
Fore
SplineSet
330 -12 m 0
 176 -12 55 86 55 255 c 0
 55 422 181 523 313 523 c 0
 466 523 546 417 546 278 c 0
 546 252 542 225 540 212 c 1
 206 212 l 1
 216 134 277 100 350 100 c 0
 395 100 434 112 478 136 c 1
 526 47 l 1
 470 11 396 -12 330 -12 c 0
204 310 m 1
 413 310 l 1
 413 370 383 410 316 410 c 0
 263 410 217 378 204 310 c 1
EndSplineSet
Validated: 1
EndChar

StartChar: eacute
Encoding: 233 233 156
Width: 600
GlyphClass: 2
Flags: HMW
HStem: -12 112<313.5 363> 212 98<206 413 204 540 206 206> 410 113<289.5 349.5> 574 167<193 432 282 300>
VStem: 55 151<212 212 212 338.5> 413 133<310 340>
AnchorPoint: "Ancre-2" 315 741 basechar 0
AnchorPoint: "Ancre-1" 470 10 basechar 0
AnchorPoint: "Ancre-0" 300 0 basechar 0
LayerCount: 2
Fore
SplineSet
193 574 m 1
 282 741 l 1
 432 741 l 1
 300 574 l 1
 193 574 l 1
330 -12 m 0
 176 -12 55 86 55 255 c 0
 55 422 181 523 313 523 c 0
 466 523 546 417 546 278 c 0
 546 252 542 225 540 212 c 1
 206 212 l 1
 216 134 277 100 350 100 c 0
 395 100 434 112 478 136 c 1
 526 47 l 1
 470 11 396 -12 330 -12 c 0
204 310 m 1
 413 310 l 1
 413 370 383 410 316 410 c 0
 263 410 217 378 204 310 c 1
EndSplineSet
Validated: 1
EndChar

StartChar: ebreve
Encoding: 277 277 157
Width: 600
GlyphClass: 2
Flags: HMW
HStem: -12 112<313.5 363> 212 98<206 413 204 540 206 206> 410 113<289.5 349.5> 574 81<293 333 293 362.5>
VStem: 55 151<212 212 212 338.5> 166 82<730 730> 378 82<730 730> 413 133<310 340>
AnchorPoint: "Ancre-2" 315 730 basechar 0
AnchorPoint: "Ancre-1" 470 10 basechar 0
AnchorPoint: "Ancre-0" 300 0 basechar 0
LayerCount: 2
Fore
SplineSet
313 574 m 0xf5
 214 574 168 649 166 730 c 1
 248 730 l 1
 253 688 273 655 313 655 c 0
 353 655 373 688 378 730 c 1
 460 730 l 1xf6
 458 649 412 574 313 574 c 0xf5
330 -12 m 0xf9
 176 -12 55 86 55 255 c 0
 55 422 181 523 313 523 c 0
 466 523 546 417 546 278 c 0
 546 252 542 225 540 212 c 1
 206 212 l 1
 216 134 277 100 350 100 c 0
 395 100 434 112 478 136 c 1
 526 47 l 1
 470 11 396 -12 330 -12 c 0xf9
204 310 m 1
 413 310 l 1
 413 370 383 410 316 410 c 0
 263 410 217 378 204 310 c 1
EndSplineSet
Validated: 1
EndChar

StartChar: ecaron
Encoding: 283 283 158
Width: 600
GlyphClass: 2
Flags: HMW
HStem: -12 112<313.5 363> 212 98<206 413 204 540 206 206> 410 113<289.5 349.5> 574 167<251 251 251 258 368 375>
VStem: 55 151<212 212 212 338.5> 413 133<310 340>
AnchorPoint: "Ancre-2" 315 741 basechar 0
AnchorPoint: "Ancre-1" 470 10 basechar 0
AnchorPoint: "Ancre-0" 300 0 basechar 0
LayerCount: 2
Fore
SplineSet
251 574 m 1
 151 741 l 1
 258 741 l 1
 311 645 l 1
 315 645 l 1
 368 741 l 1
 475 741 l 1
 375 574 l 1
 251 574 l 1
330 -12 m 0
 176 -12 55 86 55 255 c 0
 55 422 181 523 313 523 c 0
 466 523 546 417 546 278 c 0
 546 252 542 225 540 212 c 1
 206 212 l 1
 216 134 277 100 350 100 c 0
 395 100 434 112 478 136 c 1
 526 47 l 1
 470 11 396 -12 330 -12 c 0
204 310 m 1
 413 310 l 1
 413 370 383 410 316 410 c 0
 263 410 217 378 204 310 c 1
EndSplineSet
Validated: 1
EndChar

StartChar: ecircumflex
Encoding: 234 234 159
Width: 600
GlyphClass: 2
Flags: HMW
HStem: -12 112<313.5 363> 212 98<206 413 204 540 206 206> 410 113<289.5 349.5> 574 167<151 375 251 258 368 368 368 375 251 475>
VStem: 55 151<212 212 212 338.5> 413 133<310 340>
AnchorPoint: "Ancre-2" 315 741 basechar 0
AnchorPoint: "Ancre-1" 470 10 basechar 0
AnchorPoint: "Ancre-0" 300 0 basechar 0
LayerCount: 2
Fore
SplineSet
151 574 m 1
 251 741 l 1
 375 741 l 1
 475 574 l 1
 368 574 l 1
 315 669 l 1
 311 669 l 1
 258 574 l 1
 151 574 l 1
330 -12 m 0
 176 -12 55 86 55 255 c 0
 55 422 181 523 313 523 c 0
 466 523 546 417 546 278 c 0
 546 252 542 225 540 212 c 1
 206 212 l 1
 216 134 277 100 350 100 c 0
 395 100 434 112 478 136 c 1
 526 47 l 1
 470 11 396 -12 330 -12 c 0
204 310 m 1
 413 310 l 1
 413 370 383 410 316 410 c 0
 263 410 217 378 204 310 c 1
EndSplineSet
Validated: 1
EndChar

StartChar: edieresis
Encoding: 235 235 160
Width: 600
GlyphClass: 2
Flags: HMW
HStem: -12 112<313.5 363> 212 98<206 413 204 540 206 206> 410 113<289.5 349.5> 571 157<181 227 399 445>
VStem: 55 151<212 212 212 338.5> 125 157<627.5 672> 344 157<627.5 672> 413 133<310 340>
AnchorPoint: "Ancre-2" 315 728 basechar 0
AnchorPoint: "Ancre-1" 470 10 basechar 0
AnchorPoint: "Ancre-0" 300 0 basechar 0
LayerCount: 2
Fore
SplineSet
204 571 m 0xf5
 158 571 125 605 125 650 c 0
 125 694 158 728 204 728 c 0
 250 728 282 694 282 650 c 0
 282 605 250 571 204 571 c 0xf5
422 571 m 0xfa
 376 571 344 605 344 650 c 0
 344 694 376 728 422 728 c 0
 468 728 501 694 501 650 c 0
 501 605 468 571 422 571 c 0xfa
330 -12 m 0
 176 -12 55 86 55 255 c 0
 55 422 181 523 313 523 c 0
 466 523 546 417 546 278 c 0
 546 252 542 225 540 212 c 1xf9
 206 212 l 1
 216 134 277 100 350 100 c 0
 395 100 434 112 478 136 c 1
 526 47 l 1
 470 11 396 -12 330 -12 c 0
204 310 m 1
 413 310 l 1
 413 370 383 410 316 410 c 0xf9
 263 410 217 378 204 310 c 1
EndSplineSet
Validated: 1
EndChar

StartChar: edotaccent
Encoding: 279 279 161
Width: 600
GlyphClass: 2
Flags: HMW
HStem: -12 112<313.5 363> 212 98<206 413 204 540 206 206> 410 113<289.5 349.5> 586 200<284 342>
VStem: 55 151<212 212 212 338.5> 213 200<654 714> 413 133<310 340>
AnchorPoint: "Ancre-2" 315 750 basechar 0
AnchorPoint: "Ancre-1" 470 10 basechar 0
AnchorPoint: "Ancre-0" 300 0 basechar 0
LayerCount: 2
Fore
SplineSet
313 586 m 0xf4
 255 586 213 624 213 684 c 0
 213 744 255 786 313 786 c 0
 371 786 413 744 413 684 c 0
 413 624 371 586 313 586 c 0xf4
330 -12 m 0xea
 176 -12 55 86 55 255 c 0
 55 422 181 523 313 523 c 0
 466 523 546 417 546 278 c 0
 546 252 542 225 540 212 c 1
 206 212 l 1
 216 134 277 100 350 100 c 0
 395 100 434 112 478 136 c 1
 526 47 l 1
 470 11 396 -12 330 -12 c 0xea
204 310 m 1
 413 310 l 1
 413 370 383 410 316 410 c 0
 263 410 217 378 204 310 c 1
EndSplineSet
Validated: 1
EndChar

StartChar: egrave
Encoding: 232 232 162
Width: 600
GlyphClass: 2
Flags: HMW
HStem: -12 112<313.5 363> 212 98<206 413 204 540 206 206> 410 113<289.5 349.5> 574 167<325 325 325 343 193 432>
VStem: 55 151<212 212 212 338.5> 413 133<310 340>
AnchorPoint: "Ancre-2" 315 741 basechar 0
AnchorPoint: "Ancre-1" 470 10 basechar 0
AnchorPoint: "Ancre-0" 300 0 basechar 0
LayerCount: 2
Fore
SplineSet
325 574 m 1
 193 741 l 1
 343 741 l 1
 432 574 l 1
 325 574 l 1
330 -12 m 0
 176 -12 55 86 55 255 c 0
 55 422 181 523 313 523 c 0
 466 523 546 417 546 278 c 0
 546 252 542 225 540 212 c 1
 206 212 l 1
 216 134 277 100 350 100 c 0
 395 100 434 112 478 136 c 1
 526 47 l 1
 470 11 396 -12 330 -12 c 0
204 310 m 1
 413 310 l 1
 413 370 383 410 316 410 c 0
 263 410 217 378 204 310 c 1
EndSplineSet
Validated: 1
EndChar

StartChar: emacron
Encoding: 275 275 163
Width: 600
GlyphClass: 2
Flags: HMW
HStem: -12 112<313.5 363> 212 98<206 413 204 540 206 206> 410 113<289.5 349.5> 592 93<175 451 175 451>
VStem: 55 151<212 212 212 338.5> 175 276<592 685 592 685> 413 133<310 340>
AnchorPoint: "Ancre-2" 315 685 basechar 0
AnchorPoint: "Ancre-1" 470 10 basechar 0
AnchorPoint: "Ancre-0" 300 0 basechar 0
LayerCount: 2
Fore
SplineSet
175 592 m 1xf4
 175 685 l 1
 451 685 l 1
 451 592 l 1
 175 592 l 1xf4
330 -12 m 0xfa
 176 -12 55 86 55 255 c 0
 55 422 181 523 313 523 c 0
 466 523 546 417 546 278 c 0
 546 252 542 225 540 212 c 1
 206 212 l 1
 216 134 277 100 350 100 c 0
 395 100 434 112 478 136 c 1
 526 47 l 1
 470 11 396 -12 330 -12 c 0xfa
204 310 m 1
 413 310 l 1
 413 370 383 410 316 410 c 0
 263 410 217 378 204 310 c 1
EndSplineSet
Validated: 1
EndChar

StartChar: eogonek
Encoding: 281 281 164
Width: 600
GlyphClass: 2
Flags: HMW
HStem: -210 21G<339.5 384.5> -210 87<339.5 410.5> -12 112 212 98<206 413 204 540 206 206> 410 113<289.5 349.5>
VStem: 55 151<212 212 212 338.5> 263 99<-98.5 -95.5> 413 133<310 340>
AnchorPoint: "Ancre-2" 313 510 basechar 0
AnchorPoint: "Ancre-1" 470 10 basechar 0
AnchorPoint: "Ancre-0" 300 0 basechar 0
LayerCount: 2
Fore
SplineSet
546 278 m 0xbf
 546 252 542 225 540 212 c 1
 206 212 l 1
 216 134 277 100 350 100 c 0
 395 100 434 112 478 136 c 1
 526 47 l 1
 492 25 452 11 412 0 c 1
 378 -27 362 -56 362 -85 c 0
 362 -112 383 -123 404 -123 c 0
 417 -123 430 -117 439 -111 c 1x7f
 470 -177 l 1
 444 -197 400 -210 369 -210 c 0
 310 -210 263 -179 263 -119 c 0
 263 -72 291 -34 316 -12 c 1
 169 -6 55 91 55 255 c 0
 55 422 181 523 313 523 c 0
 466 523 546 417 546 278 c 0xbf
204 310 m 1
 413 310 l 1
 413 370 383 410 316 410 c 0
 263 410 217 378 204 310 c 1
EndSplineSet
Validated: 1
EndChar

StartChar: uni1EBD
Encoding: 7869 7869 165
Width: 600
GlyphClass: 2
Flags: HMW
HStem: -12 112<313.5 363> 212 98<206 413 204 540 206 206> 410 113<289.5 349.5> 575 91<352 376.5 352 397.5> 628 90<249.5 274>
VStem: 55 151<212 212 212 338.5> 413 133<310 340>
AnchorPoint: "Ancre-2" 315 718 basechar 0
AnchorPoint: "Ancre-1" 470 10 basechar 0
AnchorPoint: "Ancre-0" 300 0 basechar 0
LayerCount: 2
Fore
SplineSet
142 575 m 1xf6
 154 672 198 718 259 718 c 0
 308 718 338 666 366 666 c 0xf6
 387 666 400 679 409 718 c 1
 484 718 l 1xee
 472 622 428 575 367 575 c 0xf6
 317 575 288 628 260 628 c 0xee
 239 628 226 615 217 575 c 1
 142 575 l 1xf6
330 -12 m 0
 176 -12 55 86 55 255 c 0
 55 422 181 523 313 523 c 0
 466 523 546 417 546 278 c 0
 546 252 542 225 540 212 c 1
 206 212 l 1
 216 134 277 100 350 100 c 0
 395 100 434 112 478 136 c 1
 526 47 l 1
 470 11 396 -12 330 -12 c 0
204 310 m 1
 413 310 l 1
 413 370 383 410 316 410 c 0
 263 410 217 378 204 310 c 1
EndSplineSet
Validated: 1
EndChar

StartChar: f
Encoding: 102 102 166
Width: 600
GlyphClass: 2
Flags: HMW
HStem: 0 21G<213 213 213 360> 395 115<82 213 360 531> 619 116<421.5 463.5 357.5 472>
VStem: 213 147<0 395 0 395 510 526 526 527 0 584.5>
LayerCount: 2
Fore
SplineSet
213 0 m 1
 213 395 l 1
 82 395 l 1
 82 510 l 1
 213 510 l 1
 213 526 l 2
 213 643 280 735 435 735 c 0
 492 735 543 722 585 707 c 1
 557 599 l 1
 526 612 491 619 453 619 c 0
 390 619 360 590 360 527 c 2
 360 510 l 1
 531 510 l 1
 531 395 l 1
 360 395 l 1
 360 0 l 1
 213 0 l 1
EndSplineSet
Validated: 1
EndChar

StartChar: g
Encoding: 103 103 167
Width: 600
GlyphClass: 2
Flags: HMW
HStem: -217 115<249.5 306.5 249.5 354.5> 13 118<265 279.5> 403 120<271 288 205 311.5> 490 20G<413 528 528 528>
VStem: 47 149<223 309.5 223 342.5> 381 147<182 367 367 367>
AnchorPoint: "Ancre-2" 300 510 basechar 0
AnchorPoint: "Ancre-1" 0 0 basechar 0
AnchorPoint: "Ancre-0" 300 0 basechar 0
LayerCount: 2
Fore
SplineSet
270 -217 m 0xdc
 215 -217 136 -202 78 -154 c 1
 127 -54 l 1
 174 -91 229 -102 270 -102 c 0
 343 -102 385 -55 386 -15 c 2
 389 68 l 1
 356 34 303 13 256 13 c 0
 131 13 47 116 47 264 c 0
 47 421 148 523 262 523 c 0
 314 523 359 501 397 457 c 1
 401 457 l 1xec
 413 510 l 1
 528 510 l 1
 528 0 l 2
 528 -137 439 -217 270 -217 c 0xdc
294 131 m 0
 326 131 354 145 381 182 c 1
 381 367 l 1
 354 393 327 403 296 403 c 0xec
 246 403 196 353 196 266 c 0
 196 180 236 131 294 131 c 0
EndSplineSet
Validated: 1
EndChar

StartChar: gbreve
Encoding: 287 287 168
Width: 600
GlyphClass: 2
Flags: HMW
HStem: -217 115<249.5 306.5 249.5 354.5> 13 118<265 279.5> 403 120<271 288 205 311.5> 490 20G<413 528 528 528> 574 81<280 320 280 349.5>
VStem: 47 149<223 309.5 223 342.5> 153 82<730 730> 365 82<730 730> 381 147<182 367 367 367>
AnchorPoint: "Ancre-2" 302 730 basechar 0
AnchorPoint: "Ancre-1" 0 0 basechar 0
AnchorPoint: "Ancre-0" 300 0 basechar 0
LayerCount: 2
Fore
SplineSet
300 574 m 0xdb
 201 574 155 649 153 730 c 1
 235 730 l 1
 240 688 260 655 300 655 c 0
 340 655 360 688 365 730 c 1
 447 730 l 1
 445 649 399 574 300 574 c 0xdb
270 -217 m 0
 215 -217 136 -202 78 -154 c 1
 127 -54 l 1
 174 -91 229 -102 270 -102 c 0
 343 -102 385 -55 386 -15 c 2
 389 68 l 1
 356 34 303 13 256 13 c 0
 131 13 47 116 47 264 c 0
 47 421 148 523 262 523 c 0
 314 523 359 501 397 457 c 1
 401 457 l 1xec80
 413 510 l 1
 528 510 l 1
 528 0 l 2xdc80
 528 -137 439 -217 270 -217 c 0
294 131 m 0xec80
 326 131 354 145 381 182 c 1
 381 367 l 1
 354 393 327 403 296 403 c 0
 246 403 196 353 196 266 c 0
 196 180 236 131 294 131 c 0xec80
EndSplineSet
Validated: 1
EndChar

StartChar: gcaron
Encoding: 487 487 169
Width: 600
GlyphClass: 2
Flags: HMW
HStem: -217 115<249.5 306.5 249.5 354.5> 13 118<265 279.5> 403 120<271 288 205 311.5> 490 20G<413 528 528 528> 574 167<238 238 238 245 355 362>
VStem: 47 149<223 309.5 223 342.5> 381 147<182 367 367 367>
AnchorPoint: "Ancre-2" 302 741 basechar 0
AnchorPoint: "Ancre-1" 0 0 basechar 0
AnchorPoint: "Ancre-0" 300 0 basechar 0
LayerCount: 2
Fore
SplineSet
238 574 m 1xde
 138 741 l 1
 245 741 l 1
 298 645 l 1
 302 645 l 1
 355 741 l 1
 462 741 l 1
 362 574 l 1
 238 574 l 1xde
270 -217 m 0
 215 -217 136 -202 78 -154 c 1
 127 -54 l 1
 174 -91 229 -102 270 -102 c 0
 343 -102 385 -55 386 -15 c 2
 389 68 l 1
 356 34 303 13 256 13 c 0
 131 13 47 116 47 264 c 0
 47 421 148 523 262 523 c 0
 314 523 359 501 397 457 c 1
 401 457 l 1xee
 413 510 l 1
 528 510 l 1
 528 0 l 2
 528 -137 439 -217 270 -217 c 0
294 131 m 0
 326 131 354 145 381 182 c 1
 381 367 l 1
 354 393 327 403 296 403 c 0xee
 246 403 196 353 196 266 c 0
 196 180 236 131 294 131 c 0
EndSplineSet
Validated: 1
EndChar

StartChar: gcircumflex
Encoding: 285 285 170
Width: 600
GlyphClass: 2
Flags: HMW
HStem: -217 115<249.5 306.5 249.5 354.5> 13 118<265 279.5> 403 120<271 288 205 311.5> 490 20G<413 528 528 528> 574 167<138 362 238 245 355 355 355 362 238 462>
VStem: 47 149<223 309.5 223 342.5> 381 147<182 367 367 367>
AnchorPoint: "Ancre-2" 302 741 basechar 0
AnchorPoint: "Ancre-1" 0 0 basechar 0
AnchorPoint: "Ancre-0" 300 0 basechar 0
LayerCount: 2
Fore
SplineSet
138 574 m 1xde
 238 741 l 1
 362 741 l 1
 462 574 l 1
 355 574 l 1
 302 669 l 1
 298 669 l 1
 245 574 l 1
 138 574 l 1xde
270 -217 m 0
 215 -217 136 -202 78 -154 c 1
 127 -54 l 1
 174 -91 229 -102 270 -102 c 0
 343 -102 385 -55 386 -15 c 2
 389 68 l 1
 356 34 303 13 256 13 c 0
 131 13 47 116 47 264 c 0
 47 421 148 523 262 523 c 0
 314 523 359 501 397 457 c 1
 401 457 l 1xee
 413 510 l 1
 528 510 l 1
 528 0 l 2
 528 -137 439 -217 270 -217 c 0
294 131 m 0
 326 131 354 145 381 182 c 1
 381 367 l 1
 354 393 327 403 296 403 c 0xee
 246 403 196 353 196 266 c 0
 196 180 236 131 294 131 c 0
EndSplineSet
Validated: 1
EndChar

StartChar: gdotaccent
Encoding: 289 289 171
Width: 600
GlyphClass: 2
Flags: HMW
HStem: -217 115<249.5 306.5 249.5 354.5> 13 118<265 279.5> 403 120<271 288 205 311.5> 490 20G<413 528 528 528> 586 200<271 329>
VStem: 47 149<223 309.5 223 342.5> 200 200<654 714> 381 147<182 367 367 367>
AnchorPoint: "Ancre-2" 302 750 basechar 0
AnchorPoint: "Ancre-1" 0 0 basechar 0
AnchorPoint: "Ancre-0" 300 0 basechar 0
LayerCount: 2
Fore
SplineSet
300 586 m 0xda
 242 586 200 624 200 684 c 0
 200 744 242 786 300 786 c 0
 358 786 400 744 400 684 c 0
 400 624 358 586 300 586 c 0xda
270 -217 m 0
 215 -217 136 -202 78 -154 c 1
 127 -54 l 1
 174 -91 229 -102 270 -102 c 0
 343 -102 385 -55 386 -15 c 2
 389 68 l 1
 356 34 303 13 256 13 c 0
 131 13 47 116 47 264 c 0
 47 421 148 523 262 523 c 0
 314 523 359 501 397 457 c 1
 401 457 l 1xed
 413 510 l 1
 528 510 l 1
 528 0 l 2xdd
 528 -137 439 -217 270 -217 c 0
294 131 m 0xed
 326 131 354 145 381 182 c 1
 381 367 l 1
 354 393 327 403 296 403 c 0
 246 403 196 353 196 266 c 0
 196 180 236 131 294 131 c 0xed
EndSplineSet
Validated: 1
EndChar

StartChar: uni1E21
Encoding: 7713 7713 172
Width: 600
GlyphClass: 2
Flags: HMW
HStem: -217 115<249.5 306.5 249.5 354.5> 13 118<265 279.5> 403 120<271 288 205 311.5> 490 20G<413 528 528 528> 592 93<162 438 162 438>
VStem: 47 149<223 309.5 223 342.5> 162 276<592 685 592 685> 381 147<182 367 367 367>
AnchorPoint: "Ancre-2" 302 685 basechar 0
AnchorPoint: "Ancre-1" 0 0 basechar 0
AnchorPoint: "Ancre-0" 300 0 basechar 0
LayerCount: 2
Fore
SplineSet
162 592 m 1xda
 162 685 l 1
 438 685 l 1
 438 592 l 1
 162 592 l 1xda
270 -217 m 0
 215 -217 136 -202 78 -154 c 1
 127 -54 l 1
 174 -91 229 -102 270 -102 c 0
 343 -102 385 -55 386 -15 c 2
 389 68 l 1
 356 34 303 13 256 13 c 0
 131 13 47 116 47 264 c 0
 47 421 148 523 262 523 c 0
 314 523 359 501 397 457 c 1
 401 457 l 1xed
 413 510 l 1
 528 510 l 1
 528 0 l 2xdd
 528 -137 439 -217 270 -217 c 0
294 131 m 0xed
 326 131 354 145 381 182 c 1
 381 367 l 1
 354 393 327 403 296 403 c 0
 246 403 196 353 196 266 c 0
 196 180 236 131 294 131 c 0xed
EndSplineSet
Validated: 1
EndChar

StartChar: h
Encoding: 104 104 173
Width: 600
GlyphClass: 2
Flags: HMW
HStem: 0 21G<72 72 72 219 393 393 393 540> 398 125<341.5 347>
VStem: 72 147<0 341 544 723> 393 147<0 296 296 315 0 331>
LayerCount: 2
Fore
SplineSet
72 0 m 1
 72 723 l 1
 219 723 l 1
 219 544 l 1
 211 445 l 1
 250 485 304 523 379 523 c 0
 490 523 540 444 540 315 c 2
 540 0 l 1
 393 0 l 1
 393 296 l 2
 393 366 374 398 320 398 c 0
 280 398 254 378 219 341 c 1
 219 0 l 1
 72 0 l 1
EndSplineSet
Validated: 1
EndChar

StartChar: hbar
Encoding: 295 295 174
Width: 600
GlyphClass: 2
Flags: HMW
HStem: 0 21G<72 72 72 219 393 393 393 540> 377 125<341.5 347> 574 71<219 401 219 401>
VStem: 72 147<0 321 523 574 645 723> 393 147<0 275 275 294 0 310>
LayerCount: 2
Fore
SplineSet
72 0 m 1
 72 574 l 1
 6 574 l 1
 6 639 l 1
 72 644 l 1
 72 723 l 1
 219 723 l 1
 219 645 l 1
 401 645 l 1
 401 574 l 1
 219 574 l 1
 219 523 l 1
 211 424 l 1
 250 465 304 502 379 502 c 0
 490 502 540 423 540 294 c 2
 540 0 l 1
 393 0 l 1
 393 275 l 2
 393 345 374 377 320 377 c 0
 280 377 254 358 219 321 c 1
 219 0 l 1
 72 0 l 1
EndSplineSet
Validated: 1
EndChar

StartChar: hcircumflex
Encoding: 293 293 175
Width: 600
GlyphClass: 2
Flags: HMW
HStem: 0 21G<72 72 72 219 393 393 393 540> 398 125<341.5 347> 772 123<-18 221 78 94 205 205 205 221 78 317>
VStem: 72 147<0 341 544 723> 393 147<0 296 296 315 0 331>
LayerCount: 2
Fore
SplineSet
-18 772 m 1
 78 895 l 1
 221 895 l 1
 317 772 l 1
 205 772 l 1
 151 835 l 1
 147 835 l 1
 94 772 l 1
 -18 772 l 1
72 0 m 1
 72 723 l 1
 219 723 l 1
 219 544 l 1
 211 445 l 1
 250 485 304 523 379 523 c 0
 490 523 540 444 540 315 c 2
 540 0 l 1
 393 0 l 1
 393 296 l 2
 393 366 374 398 320 398 c 0
 280 398 254 378 219 341 c 1
 219 0 l 1
 72 0 l 1
EndSplineSet
Validated: 1
EndChar

StartChar: i
Encoding: 105 105 176
Width: 600
GlyphClass: 2
Flags: HMW
HStem: 0 119<61 231 61 231 378 548> 395 115<61 231 61 378> 570 200<269 327>
VStem: 198 200<638 698> 231 147<119 395 395 395>
AnchorPoint: "Ancre-2" 300 734 basechar 0
AnchorPoint: "Ancre-1" 380 21 basechar 0
AnchorPoint: "Ancre-0" 253 0 basechar 0
LayerCount: 2
Fore
SplineSet
298 570 m 0xf0
 240 570 198 608 198 668 c 0
 198 728 240 770 298 770 c 0
 356 770 398 728 398 668 c 0
 398 608 356 570 298 570 c 0xf0
61 0 m 1
 61 119 l 1
 231 119 l 1
 231 395 l 1
 61 395 l 1
 61 510 l 1
 378 510 l 1
 378 119 l 1xc8
 548 119 l 1
 548 0 l 1
 61 0 l 1
EndSplineSet
Validated: 1
EndChar

StartChar: dotlessi
Encoding: 305 305 177
Width: 600
GlyphClass: 2
Flags: HMW
HStem: 0 119<61 231 61 231 378 548> 395 115<61 231 61 378>
VStem: 231 147<119 395 395 395>
AnchorPoint: "Ancre-2" 298 494 basechar 0
AnchorPoint: "Ancre-1" 380 21 basechar 0
AnchorPoint: "Ancre-0" 253 0 basechar 0
LayerCount: 2
Fore
SplineSet
61 0 m 1
 61 119 l 1
 231 119 l 1
 231 395 l 1
 61 395 l 1
 61 510 l 1
 378 510 l 1
 378 119 l 1
 548 119 l 1
 548 0 l 1
 61 0 l 1
EndSplineSet
Validated: 1
EndChar

StartChar: iacute
Encoding: 237 237 178
Width: 600
GlyphClass: 2
Flags: HMW
HStem: 0 119<61 231 61 231 378 548> 395 115<61 231 61 378> 558 167<178 417 267 285>
VStem: 231 147<119 395 395 395>
AnchorPoint: "Ancre-2" 300 725 basechar 0
AnchorPoint: "Ancre-1" 380 21 basechar 0
AnchorPoint: "Ancre-0" 253 0 basechar 0
LayerCount: 2
Fore
SplineSet
178 558 m 1
 267 723 l 1
 417 723 l 1
 285 558 l 1
 178 558 l 1
61 0 m 1
 61 119 l 1
 231 119 l 1
 231 395 l 1
 61 395 l 1
 61 510 l 1
 378 510 l 1
 378 119 l 1
 548 119 l 1
 548 0 l 1
 61 0 l 1
EndSplineSet
Validated: 1
EndChar

StartChar: ibreve
Encoding: 301 301 179
Width: 600
GlyphClass: 2
Flags: HMW
HStem: 0 119<61 231 61 231 378 548> 395 115<61 231 61 378> 558 81<278 318 278 347.5>
VStem: 151 82<714 714> 231 147<119 395 395 395> 363 82<714 714>
AnchorPoint: "Ancre-2" 300 714 basechar 0
AnchorPoint: "Ancre-1" 380 21 basechar 0
AnchorPoint: "Ancre-0" 253 0 basechar 0
LayerCount: 2
Fore
SplineSet
298 558 m 0xf4
 199 558 153 633 151 714 c 1
 233 714 l 1
 238 672 258 639 298 639 c 0
 338 639 358 672 363 714 c 1
 445 714 l 1
 443 633 397 558 298 558 c 0xf4
61 0 m 1
 61 119 l 1
 231 119 l 1
 231 395 l 1
 61 395 l 1
 61 510 l 1
 378 510 l 1
 378 119 l 1xe8
 548 119 l 1
 548 0 l 1
 61 0 l 1
EndSplineSet
Validated: 1
EndChar

StartChar: uni01D0
Encoding: 464 464 180
Width: 600
GlyphClass: 2
Flags: HMW
HStem: 0 119<61 231 61 231 378 548> 395 115<61 231 61 378> 558 167<236 236 236 243 353 360>
VStem: 231 147<119 395 395 395>
AnchorPoint: "Ancre-2" 300 725 basechar 0
AnchorPoint: "Ancre-1" 380 21 basechar 0
AnchorPoint: "Ancre-0" 253 0 basechar 0
LayerCount: 2
Fore
SplineSet
236 558 m 1
 136 723 l 1
 243 723 l 1
 296 629 l 1
 300 629 l 1
 353 723 l 1
 460 723 l 1
 360 558 l 1
 236 558 l 1
61 0 m 1
 61 119 l 1
 231 119 l 1
 231 395 l 1
 61 395 l 1
 61 510 l 1
 378 510 l 1
 378 119 l 1
 548 119 l 1
 548 0 l 1
 61 0 l 1
EndSplineSet
Validated: 1
EndChar

StartChar: icircumflex
Encoding: 238 238 181
Width: 600
GlyphClass: 2
Flags: HMW
HStem: 0 119<61 231 61 231 378 548> 395 115<61 231 61 378> 558 167<136 360 236 243 353 353 353 360 236 460>
VStem: 231 147<119 395 395 395>
AnchorPoint: "Ancre-2" 300 725 basechar 0
AnchorPoint: "Ancre-1" 380 21 basechar 0
AnchorPoint: "Ancre-0" 253 0 basechar 0
LayerCount: 2
Fore
SplineSet
136 558 m 1
 236 723 l 1
 360 723 l 1
 460 558 l 1
 353 558 l 1
 300 653 l 1
 296 653 l 1
 243 558 l 1
 136 558 l 1
61 0 m 1
 61 119 l 1
 231 119 l 1
 231 395 l 1
 61 395 l 1
 61 510 l 1
 378 510 l 1
 378 119 l 1
 548 119 l 1
 548 0 l 1
 61 0 l 1
EndSplineSet
Validated: 1
EndChar

StartChar: idieresis
Encoding: 239 239 182
Width: 600
GlyphClass: 2
Flags: HMW
HStem: 0 119<61 231 61 231 378 548> 395 115<61 231 61 378> 555 157<166 212 384 430>
VStem: 110 157<611.5 656> 231 147<119 395 395 395> 329 157<611.5 656>
AnchorPoint: "Ancre-2" 300 712 basechar 0
AnchorPoint: "Ancre-1" 380 21 basechar 0
AnchorPoint: "Ancre-0" 253 0 basechar 0
LayerCount: 2
Fore
SplineSet
189 555 m 0xf4
 143 555 110 589 110 634 c 0
 110 678 143 712 189 712 c 0
 235 712 267 678 267 634 c 0
 267 589 235 555 189 555 c 0xf4
407 555 m 0
 361 555 329 589 329 634 c 0
 329 678 361 712 407 712 c 0
 453 712 486 678 486 634 c 0
 486 589 453 555 407 555 c 0
61 0 m 1
 61 119 l 1
 231 119 l 1
 231 395 l 1
 61 395 l 1
 61 510 l 1
 378 510 l 1
 378 119 l 1xc8
 548 119 l 1
 548 0 l 1
 61 0 l 1
EndSplineSet
Validated: 1
EndChar

StartChar: igrave
Encoding: 236 236 183
Width: 600
GlyphClass: 2
Flags: HMW
HStem: 0 119<61 231 61 231 378 548> 395 115<61 231 61 378> 558 167<310 310 310 328 178 417>
VStem: 231 147<119 395 395 395>
AnchorPoint: "Ancre-2" 300 725 basechar 0
AnchorPoint: "Ancre-1" 380 21 basechar 0
AnchorPoint: "Ancre-0" 253 0 basechar 0
LayerCount: 2
Fore
SplineSet
310 558 m 1
 178 723 l 1
 328 723 l 1
 417 558 l 1
 310 558 l 1
61 0 m 1
 61 119 l 1
 231 119 l 1
 231 395 l 1
 61 395 l 1
 61 510 l 1
 378 510 l 1
 378 119 l 1
 548 119 l 1
 548 0 l 1
 61 0 l 1
EndSplineSet
Validated: 1
EndChar

StartChar: imacron
Encoding: 299 299 184
Width: 600
GlyphClass: 2
Flags: HMW
HStem: 0 119<61 231 61 231 378 548> 395 115<61 231 61 378> 576 93<160 436 160 436>
VStem: 160 276<576 669 576 669> 231 147<119 395 395 395>
AnchorPoint: "Ancre-2" 300 669 basechar 0
AnchorPoint: "Ancre-1" 380 21 basechar 0
AnchorPoint: "Ancre-0" 253 0 basechar 0
LayerCount: 2
Fore
SplineSet
160 576 m 1xf0
 160 669 l 1
 436 669 l 1
 436 576 l 1
 160 576 l 1xf0
61 0 m 1
 61 119 l 1
 231 119 l 1
 231 395 l 1
 61 395 l 1
 61 510 l 1
 378 510 l 1
 378 119 l 1xe8
 548 119 l 1
 548 0 l 1
 61 0 l 1
EndSplineSet
Validated: 1
EndChar

StartChar: iogonek
Encoding: 303 303 185
Width: 600
GlyphClass: 2
Flags: HMW
HStem: -199 87<249.5 320.5> 0 119<61 227 61 231 378 548 61 311> 395 115<61 231 61 378> 570 200<269 327>
VStem: 173 99<-87.5 -84> 198 200<638 698> 231 147<119 395 395 395>
AnchorPoint: "Ancre-2" 300 734 basechar 0
AnchorPoint: "Ancre-1" 380 21 basechar 0
AnchorPoint: "Ancre-0" 253 0 basechar 0
LayerCount: 2
Fore
SplineSet
298 570 m 0x74
 240 570 198 608 198 668 c 0
 198 728 240 770 298 770 c 0
 356 770 398 728 398 668 c 0
 398 608 356 570 298 570 c 0x74
311 0 m 1x68
 284 -24 272 -49 272 -74 c 0
 272 -101 293 -112 314 -112 c 0
 327 -112 340 -106 349 -100 c 1
 380 -166 l 1
 354 -186 310 -199 279 -199 c 0
 220 -199 173 -168 173 -108 c 0
 173 -60 202 -22 227 0 c 1xe8
 61 0 l 1
 61 119 l 1
 231 119 l 1
 231 395 l 1
 61 395 l 1
 61 510 l 1
 378 510 l 1
 378 119 l 1x62
 548 119 l 1
 548 0 l 1
 311 0 l 1x68
EndSplineSet
Validated: 1
EndChar

StartChar: itilde
Encoding: 297 297 186
Width: 600
GlyphClass: 2
Flags: HMW
HStem: 0 119<61 231 61 231 378 548> 395 115<61 231 61 378> 559 91<337 361.5 337 382.5> 612 90<234.5 259>
VStem: 231 147<119 395 395 395>
AnchorPoint: "Ancre-2" 300 702 basechar 0
AnchorPoint: "Ancre-1" 380 21 basechar 0
AnchorPoint: "Ancre-0" 253 0 basechar 0
LayerCount: 2
Fore
SplineSet
127 559 m 1xe8
 139 656 183 702 244 702 c 0xd8
 293 702 323 650 351 650 c 0xe8
 372 650 385 663 394 702 c 1
 469 702 l 1xd8
 457 606 413 559 352 559 c 0xe8
 302 559 273 612 245 612 c 0xd8
 224 612 211 599 202 559 c 1
 127 559 l 1xe8
61 0 m 1
 61 119 l 1
 231 119 l 1
 231 395 l 1
 61 395 l 1
 61 510 l 1
 378 510 l 1
 378 119 l 1
 548 119 l 1
 548 0 l 1
 61 0 l 1
EndSplineSet
Validated: 1
EndChar

StartChar: j
Encoding: 106 106 187
Width: 600
GlyphClass: 2
Flags: HMW
HStem: -217 115<171.5 221.5 171.5 285> 395 115<79 278 79 425> 586 200<316 374>
VStem: 245 200<654 714> 278 147<8 14 14 395 395 395>
AnchorPoint: "Ancre-2" 347 750 basechar 0
AnchorPoint: "Ancre-1" 0 0 basechar 0
AnchorPoint: "Ancre-0" 300 0 basechar 0
LayerCount: 2
Fore
SplineSet
345 586 m 0xf0
 287 586 245 624 245 684 c 0
 245 744 287 786 345 786 c 0
 403 786 445 744 445 684 c 0
 445 624 403 586 345 586 c 0xf0
195 -217 m 0
 134 -217 85 -203 42 -182 c 1
 85 -77 l 1
 125 -96 157 -102 186 -102 c 0
 257 -102 278 -37 278 8 c 2
 278 395 l 1
 79 395 l 1
 79 510 l 1
 425 510 l 1
 425 14 l 2xc8
 425 -111 375 -217 195 -217 c 0
EndSplineSet
Validated: 1
EndChar

StartChar: uni0237
Encoding: 567 567 188
Width: 600
GlyphClass: 2
Flags: HMW
HStem: -217 115<171.5 221.5 171.5 285> 395 115<79 278 79 425>
VStem: 278 147<8 14 14 395 395 395>
AnchorPoint: "Ancre-2" 345 510 basechar 0
AnchorPoint: "Ancre-1" 0 0 basechar 0
AnchorPoint: "Ancre-0" 300 0 basechar 0
LayerCount: 2
Fore
SplineSet
195 -217 m 0
 134 -217 85 -203 42 -182 c 1
 85 -77 l 1
 125 -96 157 -102 186 -102 c 0
 257 -102 278 -37 278 8 c 2
 278 395 l 1
 79 395 l 1
 79 510 l 1
 425 510 l 1
 425 14 l 2
 425 -111 375 -217 195 -217 c 0
EndSplineSet
Validated: 1
EndChar

StartChar: jcircumflex
Encoding: 309 309 189
Width: 600
GlyphClass: 2
Flags: HMW
HStem: -217 115<171.5 221.5 171.5 285> 395 115<79 278 79 425> 574 167<183 407 283 290 400 400 400 407 283 507>
VStem: 278 147<8 14 14 395 395 395>
AnchorPoint: "Ancre-2" 347 741 basechar 0
AnchorPoint: "Ancre-1" 0 0 basechar 0
AnchorPoint: "Ancre-0" 300 0 basechar 0
LayerCount: 2
Fore
SplineSet
183 574 m 1
 283 741 l 1
 407 741 l 1
 507 574 l 1
 400 574 l 1
 347 669 l 1
 343 669 l 1
 290 574 l 1
 183 574 l 1
195 -217 m 0
 134 -217 85 -203 42 -182 c 1
 85 -77 l 1
 125 -96 157 -102 186 -102 c 0
 257 -102 278 -37 278 8 c 2
 278 395 l 1
 79 395 l 1
 79 510 l 1
 425 510 l 1
 425 14 l 2
 425 -111 375 -217 195 -217 c 0
EndSplineSet
Validated: 1
EndChar

StartChar: k
Encoding: 107 107 190
Width: 600
GlyphClass: 2
Flags: HMW
HStem: 0 21G<76 76 76 223 426 426 426 585> 490 20G<409 570 570 570>
VStem: 76 147<0 129 300 723>
LayerCount: 2
Fore
SplineSet
76 0 m 1
 76 723 l 1
 223 723 l 1
 223 300 l 1
 227 300 l 1
 409 510 l 1
 570 510 l 1
 382 301 l 1
 585 0 l 1
 426 0 l 1
 296 211 l 1
 223 129 l 1
 223 0 l 1
 76 0 l 1
EndSplineSet
Validated: 1
EndChar

StartChar: kgreenlandic
Encoding: 312 312 191
Width: 600
GlyphClass: 2
Flags: HMW
HStem: 0 21G<76 76 76 223 426 426 426 585> 490 20G<76 223 223 223 409 570 570 570>
VStem: 76 147<0 127 303 510>
LayerCount: 2
Fore
SplineSet
76 0 m 1
 76 510 l 1
 223 510 l 1
 223 303 l 1
 226 304 l 1
 409 510 l 1
 570 510 l 1
 382 301 l 1
 585 0 l 1
 426 0 l 1
 297 204 l 1
 223 127 l 1
 223 0 l 1
 76 0 l 1
EndSplineSet
Validated: 1
EndChar

StartChar: l
Encoding: 108 108 192
Width: 600
GlyphClass: 2
Flags: HMW
HStem: -12 119<412.5 426> 607 116<62 206 62 353>
VStem: 206 147<198 607 607 607>
LayerCount: 2
Fore
SplineSet
395 -12 m 0
 270 -12 206 69 206 198 c 2
 206 607 l 1
 62 607 l 1
 62 723 l 1
 353 723 l 1
 353 191 l 2
 353 128 392 107 433 107 c 0
 456 107 480 111 511 124 c 1
 544 16 l 1
 492 -1 457 -12 395 -12 c 0
EndSplineSet
Validated: 1
EndChar

StartChar: lacute
Encoding: 314 314 193
Width: 600
GlyphClass: 2
Flags: HMW
HStem: -12 119<412.5 426> 607 116<62 206 62 353> 780 123<190 427 271 307>
VStem: 206 147<198 607 607 607>
LayerCount: 2
Fore
SplineSet
190 780 m 1
 271 903 l 1
 427 903 l 1
 307 780 l 1
 190 780 l 1
395 -12 m 0
 270 -12 206 69 206 198 c 2
 206 607 l 1
 62 607 l 1
 62 723 l 1
 353 723 l 1
 353 191 l 2
 353 128 392 107 433 107 c 0
 456 107 480 111 511 124 c 1
 544 16 l 1
 492 -1 457 -12 395 -12 c 0
EndSplineSet
Validated: 1
EndChar

StartChar: lcaron
Encoding: 318 318 194
Width: 600
GlyphClass: 2
Flags: HMW
HStem: -12 119<412.5 426> 564 228<414 414 414 477> 607 116<62 206 62 353>
VStem: 206 147<198 607 607 607> 412 91
LayerCount: 2
Fore
SplineSet
414 564 m 1xd8
 409 792 l 1
 503 792 l 1
 502 723 l 1
 477 564 l 1
 414 564 l 1xd8
395 -12 m 0
 270 -12 206 69 206 198 c 2
 206 607 l 1
 62 607 l 1
 62 723 l 1
 353 723 l 1xb8
 353 191 l 2
 353 128 392 107 433 107 c 0
 456 107 480 111 511 124 c 1
 544 16 l 1
 492 -1 457 -12 395 -12 c 0
EndSplineSet
Validated: 1
EndChar

StartChar: ldot
Encoding: 320 320 195
Width: 600
GlyphClass: 2
Flags: HMW
HStem: -12 119<363 376> 271 183<442.5 499.5> 607 116<12 156 12 303>
VStem: 156 147<198 607 607 607> 373 196<335 389.5>
LayerCount: 2
Fore
SplineSet
345 -12 m 0
 221 -12 156 69 156 198 c 2
 156 607 l 1
 12 607 l 1
 12 723 l 1
 303 723 l 1
 303 191 l 2
 303 128 342 107 384 107 c 0
 407 107 430 111 461 124 c 1
 494 16 l 1
 443 -1 407 -12 345 -12 c 0
471 271 m 0
 414 271 373 308 373 362 c 0
 373 417 414 454 471 454 c 0
 528 454 569 417 569 362 c 0
 569 308 528 271 471 271 c 0
EndSplineSet
Validated: 1
EndChar

StartChar: lslash
Encoding: 322 322 196
Width: 600
GlyphClass: 2
Flags: HMW
HStem: -12 119<412.5 426> 607 116<62 206 62 353>
VStem: 206 147<198 288 288 288 479 607 607 607>
LayerCount: 2
Fore
SplineSet
395 -12 m 0
 270 -12 206 69 206 198 c 2
 206 288 l 1
 93 223 l 1
 93 340 l 1
 206 406 l 1
 206 607 l 1
 62 607 l 1
 62 723 l 1
 353 723 l 1
 353 479 l 1
 501 563 l 1
 501 445 l 1
 353 361 l 1
 353 191 l 2
 353 128 392 107 433 107 c 0
 456 107 480 111 511 124 c 1
 544 16 l 1
 492 -1 457 -12 395 -12 c 0
EndSplineSet
Validated: 1
EndChar

StartChar: m
Encoding: 109 109 197
Width: 600
GlyphClass: 2
Flags: HMW
HStem: 0 21G<36 36 36 174 248 248 248 361 435 435 435 573> 398 125<209.5 289 238.5 417> 490 20G<36 146 146 146> 503 20G<238.5 289 435 497.5>
VStem: 36 138<0 346 0 510> 248 113<0 346 0 347 0 364> 435 138<0 347 347 358 0 364>
LayerCount: 2
Fore
SplineSet
36 0 m 1x9e
 36 510 l 1
 146 510 l 1xae
 157 446 l 1
 161 446 l 1
 180 489 210 523 267 523 c 0
 311 523 342 494 354 439 c 1
 372 486 407 523 463 523 c 0
 532 523 573 460 573 358 c 2
 573 0 l 1
 435 0 l 1
 435 347 l 2
 435 381 427 398 407 398 c 0
 388 398 374 380 361 346 c 1
 361 0 l 1
 248 0 l 1
 248 347 l 2
 248 381 238 398 219 398 c 0
 200 398 188 380 174 346 c 1xce
 174 0 l 1
 36 0 l 1x9e
EndSplineSet
Validated: 1
EndChar

StartChar: n
Encoding: 110 110 198
Width: 600
GlyphClass: 2
Flags: HMW
HStem: 0 21G<72 72 72 219 393 393 393 540> 398 125<341 347> 490 20G<72 192 192 192>
VStem: 72 147<0 341 0 510> 393 147<0 296 296 315 0 331>
AnchorPoint: "Ancre-2" 310 510 basechar 0
AnchorPoint: "Ancre-1" 0 0 basechar 0
AnchorPoint: "Ancre-0" 300 0 basechar 0
LayerCount: 2
Fore
SplineSet
72 0 m 1xb8
 72 510 l 1
 192 510 l 1xb8
 203 441 l 1
 207 441 l 1
 250 485 304 523 378 523 c 0
 490 523 540 444 540 315 c 2
 540 0 l 1
 393 0 l 1
 393 296 l 2
 393 366 374 398 320 398 c 0
 280 398 254 378 219 341 c 1xd8
 219 0 l 1
 72 0 l 1xb8
EndSplineSet
Validated: 1
EndChar

StartChar: nacute
Encoding: 324 324 199
Width: 600
GlyphClass: 2
Flags: HMW
HStem: 0 21G<72 72 72 219 393 393 393 540> 398 125<341 347> 490 20G<72 192 192 192> 574 167<190 429 279 297>
VStem: 72 147<0 341 0 510> 393 147<0 296 296 315 0 331>
AnchorPoint: "Ancre-2" 312 741 basechar 0
AnchorPoint: "Ancre-1" 0 0 basechar 0
AnchorPoint: "Ancre-0" 300 0 basechar 0
LayerCount: 2
Fore
SplineSet
190 574 m 1xbc
 279 741 l 1
 429 741 l 1
 297 574 l 1
 190 574 l 1xbc
72 0 m 1
 72 510 l 1
 192 510 l 1xbc
 203 441 l 1
 207 441 l 1
 250 485 304 523 378 523 c 0
 490 523 540 444 540 315 c 2
 540 0 l 1
 393 0 l 1
 393 296 l 2
 393 366 374 398 320 398 c 0
 280 398 254 378 219 341 c 1xdc
 219 0 l 1
 72 0 l 1
EndSplineSet
Validated: 1
EndChar

StartChar: ncaron
Encoding: 328 328 200
Width: 600
GlyphClass: 2
Flags: HMW
HStem: 0 21G<72 72 72 219 393 393 393 540> 398 125<341 347> 490 20G<72 192 192 192> 574 167<248 248 248 255 365 372>
VStem: 72 147<0 341 0 510> 393 147<0 296 296 315 0 331>
AnchorPoint: "Ancre-2" 312 741 basechar 0
AnchorPoint: "Ancre-1" 0 0 basechar 0
AnchorPoint: "Ancre-0" 300 0 basechar 0
LayerCount: 2
Fore
SplineSet
248 574 m 1xbc
 148 741 l 1
 255 741 l 1
 308 645 l 1
 312 645 l 1
 365 741 l 1
 472 741 l 1
 372 574 l 1
 248 574 l 1xbc
72 0 m 1
 72 510 l 1
 192 510 l 1xbc
 203 441 l 1
 207 441 l 1
 250 485 304 523 378 523 c 0
 490 523 540 444 540 315 c 2
 540 0 l 1
 393 0 l 1
 393 296 l 2
 393 366 374 398 320 398 c 0
 280 398 254 378 219 341 c 1xdc
 219 0 l 1
 72 0 l 1
EndSplineSet
Validated: 1
EndChar

StartChar: uni1E45
Encoding: 7749 7749 201
Width: 600
GlyphClass: 2
Flags: HMW
HStem: 0 21G<72 72 72 219 393 393 393 540> 398 125<341 347> 490 20G<72 192 192 192> 586 200<281 339>
VStem: 72 147<0 341 0 510> 210 200<654 714> 393 147<0 296 296 315 0 331>
AnchorPoint: "Ancre-2" 312 750 basechar 0
AnchorPoint: "Ancre-1" 0 0 basechar 0
AnchorPoint: "Ancre-0" 300 0 basechar 0
LayerCount: 2
Fore
SplineSet
310 586 m 0xb4
 252 586 210 624 210 684 c 0
 210 744 252 786 310 786 c 0
 368 786 410 744 410 684 c 0
 410 624 368 586 310 586 c 0xb4
72 0 m 1xda
 72 510 l 1
 192 510 l 1xba
 203 441 l 1
 207 441 l 1
 250 485 304 523 378 523 c 0
 490 523 540 444 540 315 c 2
 540 0 l 1
 393 0 l 1
 393 296 l 2
 393 366 374 398 320 398 c 0
 280 398 254 378 219 341 c 1
 219 0 l 1
 72 0 l 1xda
EndSplineSet
Validated: 1
EndChar

StartChar: ntilde
Encoding: 241 241 202
Width: 600
GlyphClass: 2
Flags: HMW
HStem: 0 21G<72 72 72 219 393 393 393 540> 398 125<341 347> 490 20G<72 192 192 192> 575 91<349 373.5 349 394.5> 628 90<246.5 271>
VStem: 72 147<0 341 0 510> 393 147<0 296 296 315 0 331>
AnchorPoint: "Ancre-2" 312 718 basechar 0
AnchorPoint: "Ancre-1" 0 0 basechar 0
AnchorPoint: "Ancre-0" 300 0 basechar 0
LayerCount: 2
Fore
SplineSet
139 575 m 1xb6
 151 672 195 718 256 718 c 0
 305 718 335 666 363 666 c 0xb6
 384 666 397 679 406 718 c 1
 481 718 l 1xae
 469 622 425 575 364 575 c 0xb6
 314 575 285 628 257 628 c 0xae
 236 628 223 615 214 575 c 1
 139 575 l 1xb6
72 0 m 1
 72 510 l 1
 192 510 l 1xb6
 203 441 l 1
 207 441 l 1
 250 485 304 523 378 523 c 0
 490 523 540 444 540 315 c 2
 540 0 l 1
 393 0 l 1
 393 296 l 2
 393 366 374 398 320 398 c 0
 280 398 254 378 219 341 c 1xd6
 219 0 l 1
 72 0 l 1
EndSplineSet
Validated: 1
EndChar

StartChar: o
Encoding: 111 111 203
Width: 600
GlyphClass: 2
Flags: HMW
HStem: -12 119<266 334 266 365.5> 404 119<266 334>
VStem: 47 151<210 300 210 340> 402 151<210 300>
AnchorPoint: "Ancre-2" 300 510 basechar 0
AnchorPoint: "Ancre-1" 0 0 basechar 0
AnchorPoint: "Ancre-0" 300 0 basechar 0
LayerCount: 2
Fore
SplineSet
300 -12 m 0
 169 -12 47 85 47 255 c 0
 47 425 169 523 300 523 c 0
 431 523 553 425 553 255 c 0
 553 85 431 -12 300 -12 c 0
300 107 m 0
 368 107 402 165 402 255 c 0
 402 345 368 404 300 404 c 0
 232 404 198 345 198 255 c 0
 198 165 232 107 300 107 c 0
EndSplineSet
Validated: 1
EndChar

StartChar: oacute
Encoding: 243 243 204
Width: 600
GlyphClass: 2
Flags: HMW
HStem: -12 119<266 334 266 365.5> 404 119<266 334> 574 167<180 419 269 287>
VStem: 47 151<210 300 210 340> 402 151<210 300>
AnchorPoint: "Ancre-2" 302 741 basechar 0
AnchorPoint: "Ancre-1" 0 0 basechar 0
AnchorPoint: "Ancre-0" 300 0 basechar 0
LayerCount: 2
Fore
SplineSet
180 574 m 1
 269 741 l 1
 419 741 l 1
 287 574 l 1
 180 574 l 1
300 -12 m 0
 169 -12 47 85 47 255 c 0
 47 425 169 523 300 523 c 0
 431 523 553 425 553 255 c 0
 553 85 431 -12 300 -12 c 0
300 107 m 0
 368 107 402 165 402 255 c 0
 402 345 368 404 300 404 c 0
 232 404 198 345 198 255 c 0
 198 165 232 107 300 107 c 0
EndSplineSet
Validated: 1
EndChar

StartChar: obreve
Encoding: 335 335 205
Width: 600
GlyphClass: 2
Flags: HMW
HStem: -12 119<266 334 266 365.5> 404 119<266 334> 574 81<280 320 280 349.5>
VStem: 47 151<210 300 210 340> 153 82<730 730> 365 82<730 730> 402 151<210 300>
AnchorPoint: "Ancre-2" 302 730 basechar 0
AnchorPoint: "Ancre-1" 0 0 basechar 0
AnchorPoint: "Ancre-0" 300 0 basechar 0
LayerCount: 2
Fore
SplineSet
300 574 m 0xec
 201 574 155 649 153 730 c 1
 235 730 l 1
 240 688 260 655 300 655 c 0
 340 655 360 688 365 730 c 1
 447 730 l 1
 445 649 399 574 300 574 c 0xec
300 -12 m 0xf2
 169 -12 47 85 47 255 c 0
 47 425 169 523 300 523 c 0
 431 523 553 425 553 255 c 0
 553 85 431 -12 300 -12 c 0xf2
300 107 m 0
 368 107 402 165 402 255 c 0
 402 345 368 404 300 404 c 0
 232 404 198 345 198 255 c 0
 198 165 232 107 300 107 c 0
EndSplineSet
Validated: 1
EndChar

StartChar: uni01D2
Encoding: 466 466 206
Width: 600
GlyphClass: 2
Flags: HMW
HStem: -12 119<266 334 266 365.5> 404 119<266 334> 574 167<238 238 238 245 355 362>
VStem: 47 151<210 300 210 340> 402 151<210 300>
AnchorPoint: "Ancre-2" 302 741 basechar 0
AnchorPoint: "Ancre-1" 0 0 basechar 0
AnchorPoint: "Ancre-0" 300 0 basechar 0
LayerCount: 2
Fore
SplineSet
238 574 m 1
 138 741 l 1
 245 741 l 1
 298 645 l 1
 302 645 l 1
 355 741 l 1
 462 741 l 1
 362 574 l 1
 238 574 l 1
300 -12 m 0
 169 -12 47 85 47 255 c 0
 47 425 169 523 300 523 c 0
 431 523 553 425 553 255 c 0
 553 85 431 -12 300 -12 c 0
300 107 m 0
 368 107 402 165 402 255 c 0
 402 345 368 404 300 404 c 0
 232 404 198 345 198 255 c 0
 198 165 232 107 300 107 c 0
EndSplineSet
Validated: 1
EndChar

StartChar: ocircumflex
Encoding: 244 244 207
Width: 600
GlyphClass: 2
Flags: HMW
HStem: -12 119<266 334 266 365.5> 404 119<266 334> 574 167<138 362 238 245 355 355 355 362 238 462>
VStem: 47 151<210 300 210 340> 402 151<210 300>
AnchorPoint: "Ancre-2" 302 741 basechar 0
AnchorPoint: "Ancre-1" 0 0 basechar 0
AnchorPoint: "Ancre-0" 300 0 basechar 0
LayerCount: 2
Fore
SplineSet
138 574 m 1
 238 741 l 1
 362 741 l 1
 462 574 l 1
 355 574 l 1
 302 669 l 1
 298 669 l 1
 245 574 l 1
 138 574 l 1
300 -12 m 0
 169 -12 47 85 47 255 c 0
 47 425 169 523 300 523 c 0
 431 523 553 425 553 255 c 0
 553 85 431 -12 300 -12 c 0
300 107 m 0
 368 107 402 165 402 255 c 0
 402 345 368 404 300 404 c 0
 232 404 198 345 198 255 c 0
 198 165 232 107 300 107 c 0
EndSplineSet
Validated: 1
EndChar

StartChar: odieresis
Encoding: 246 246 208
Width: 600
GlyphClass: 2
Flags: HMW
HStem: -12 119<266 334 266 365.5> 404 119<266 334> 571 157<168 214 386 432>
VStem: 47 151<210 300 210 340> 112 157<627.5 672> 331 157<627.5 672> 402 151<210 300>
AnchorPoint: "Ancre-2" 302 728 basechar 0
AnchorPoint: "Ancre-1" 0 0 basechar 0
AnchorPoint: "Ancre-0" 300 0 basechar 0
LayerCount: 2
Fore
SplineSet
191 571 m 0xec
 145 571 112 605 112 650 c 0
 112 694 145 728 191 728 c 0
 237 728 269 694 269 650 c 0
 269 605 237 571 191 571 c 0xec
409 571 m 0
 363 571 331 605 331 650 c 0
 331 694 363 728 409 728 c 0
 455 728 488 694 488 650 c 0
 488 605 455 571 409 571 c 0
300 -12 m 0xf2
 169 -12 47 85 47 255 c 0
 47 425 169 523 300 523 c 0
 431 523 553 425 553 255 c 0
 553 85 431 -12 300 -12 c 0xf2
300 107 m 0
 368 107 402 165 402 255 c 0
 402 345 368 404 300 404 c 0
 232 404 198 345 198 255 c 0
 198 165 232 107 300 107 c 0
EndSplineSet
Validated: 1
EndChar

StartChar: ograve
Encoding: 242 242 209
Width: 600
GlyphClass: 2
Flags: HMW
HStem: -12 119<266 334 266 365.5> 404 119<266 334> 574 167<312 312 312 330 180 419>
VStem: 47 151<210 300 210 340> 402 151<210 300>
AnchorPoint: "Ancre-2" 302 741 basechar 0
AnchorPoint: "Ancre-1" 0 0 basechar 0
AnchorPoint: "Ancre-0" 300 0 basechar 0
LayerCount: 2
Fore
SplineSet
312 574 m 1
 180 741 l 1
 330 741 l 1
 419 574 l 1
 312 574 l 1
300 -12 m 0
 169 -12 47 85 47 255 c 0
 47 425 169 523 300 523 c 0
 431 523 553 425 553 255 c 0
 553 85 431 -12 300 -12 c 0
300 107 m 0
 368 107 402 165 402 255 c 0
 402 345 368 404 300 404 c 0
 232 404 198 345 198 255 c 0
 198 165 232 107 300 107 c 0
EndSplineSet
Validated: 1
EndChar

StartChar: ohungarumlaut
Encoding: 337 337 210
Width: 600
GlyphClass: 2
Flags: HMW
HStem: -12 119<266 334 266 365.5> 404 119<266 334> 573 151<122 307 190 212 292 307 361 383 292 292>
VStem: 47 151<210 300 210 340> 402 151<210 300>
AnchorPoint: "Ancre-2" 300 510 basechar 0
AnchorPoint: "Ancre-1" 0 0 basechar 0
AnchorPoint: "Ancre-0" 300 0 basechar 0
LayerCount: 2
Fore
SplineSet
122 573 m 1
 190 723 l 1
 307 723 l 1
 212 573 l 1
 122 573 l 1
292 573 m 1
 361 723 l 1
 478 723 l 1
 383 573 l 1
 292 573 l 1
300 -12 m 0
 169 -12 47 85 47 255 c 0
 47 425 169 523 300 523 c 0
 431 523 553 425 553 255 c 0
 553 85 431 -12 300 -12 c 0
300 107 m 0
 368 107 402 165 402 255 c 0
 402 345 368 404 300 404 c 0
 232 404 198 345 198 255 c 0
 198 165 232 107 300 107 c 0
EndSplineSet
Validated: 1
EndChar

StartChar: omacron
Encoding: 333 333 211
Width: 600
GlyphClass: 2
Flags: HMW
HStem: -12 119<266 334 266 365.5> 404 119<266 334> 592 93<162 438 162 438>
VStem: 47 151<210 300 210 340> 162 276<592 685 592 685> 402 151<210 300>
AnchorPoint: "Ancre-2" 302 685 basechar 0
AnchorPoint: "Ancre-1" 0 0 basechar 0
AnchorPoint: "Ancre-0" 300 0 basechar 0
LayerCount: 2
Fore
SplineSet
162 592 m 1xe8
 162 685 l 1
 438 685 l 1
 438 592 l 1
 162 592 l 1xe8
300 -12 m 0xf4
 169 -12 47 85 47 255 c 0
 47 425 169 523 300 523 c 0
 431 523 553 425 553 255 c 0
 553 85 431 -12 300 -12 c 0xf4
300 107 m 0
 368 107 402 165 402 255 c 0
 402 345 368 404 300 404 c 0
 232 404 198 345 198 255 c 0
 198 165 232 107 300 107 c 0
EndSplineSet
Validated: 1
EndChar

StartChar: uni01EB
Encoding: 491 491 212
Width: 600
GlyphClass: 2
Flags: HMW
HStem: -210 21G<290.5 335.5> -210 87<290.5 361.5> -10 21G 404 119<266 334>
VStem: 47 151<210 300 210 340> 214 99<-98.5 -95> 402 151<210 300>
AnchorPoint: "Ancre-2" 300 510 basechar 0
AnchorPoint: "Ancre-1" 0 0 basechar 0
AnchorPoint: "Ancre-0" 300 0 basechar 0
LayerCount: 2
Fore
SplineSet
358 -6 m 1xbe
 327 -32 313 -58 313 -85 c 0
 313 -112 334 -123 355 -123 c 0
 368 -123 381 -117 390 -111 c 1x7e
 421 -177 l 1
 395 -197 351 -210 320 -210 c 0
 261 -210 214 -179 214 -119 c 0xbe
 214 -71 244 -34 269 -12 c 1
 150 2 47 99 47 255 c 0xba
 47 425 169 523 300 523 c 0
 431 523 553 425 553 255 c 0
 553 110 465 19 358 -6 c 1xbe
198 255 m 0xba
 198 165 232 107 300 107 c 0
 368 107 402 165 402 255 c 0
 402 345 368 404 300 404 c 0
 232 404 198 345 198 255 c 0xba
EndSplineSet
Validated: 1
EndChar

StartChar: oslash
Encoding: 248 248 213
Width: 600
GlyphClass: 2
Flags: HMW
HStem: -12 114<288 334 288 365.5> 408 115<266 312>
VStem: 47 151<243 300 243 340> 402 151<210 267>
AnchorPoint: "Ancre-2" 300 510 basechar 0
AnchorPoint: "Ancre-1" 0 0 basechar 0
AnchorPoint: "Ancre-0" 0 0 basechar 0
LayerCount: 2
Fore
SplineSet
117 -26 m 1
 62 17 l 1
 108 75 l 1
 71 119 47 180 47 255 c 0
 47 425 169 523 300 523 c 0
 349 523 397 509 438 482 c 1
 483 538 l 1
 538 494 l 1
 491 436 l 1
 529 391 553 330 553 255 c 0
 553 85 431 -12 300 -12 c 0
 250 -12 202 2 161 29 c 1
 117 -26 l 1
205 190 m 1
 359 387 l 1
 343 401 324 408 300 408 c 0
 232 408 198 345 198 255 c 0
 198 231 200 209 205 190 c 1
300 102 m 0
 368 102 402 165 402 255 c 0
 402 279 400 302 395 322 c 1
 240 125 l 1
 256 110 276 102 300 102 c 0
EndSplineSet
Validated: 1
EndChar

StartChar: otilde
Encoding: 245 245 214
Width: 600
GlyphClass: 2
Flags: HMW
HStem: -12 119<266 334 266 365.5> 404 119<266 334> 575 91<339 363.5 339 384.5> 628 90<236.5 261>
VStem: 47 151<210 300 210 340> 402 151<210 300>
AnchorPoint: "Ancre-2" 302 718 basechar 0
AnchorPoint: "Ancre-1" 0 0 basechar 0
AnchorPoint: "Ancre-0" 300 0 basechar 0
LayerCount: 2
Fore
SplineSet
129 575 m 1xec
 141 672 185 718 246 718 c 0
 295 718 325 666 353 666 c 0xec
 374 666 387 679 396 718 c 1
 471 718 l 1xdc
 459 622 415 575 354 575 c 0xec
 304 575 275 628 247 628 c 0xdc
 226 628 213 615 204 575 c 1
 129 575 l 1xec
300 -12 m 0
 169 -12 47 85 47 255 c 0
 47 425 169 523 300 523 c 0
 431 523 553 425 553 255 c 0
 553 85 431 -12 300 -12 c 0
300 107 m 0
 368 107 402 165 402 255 c 0
 402 345 368 404 300 404 c 0
 232 404 198 345 198 255 c 0
 198 165 232 107 300 107 c 0
EndSplineSet
Validated: 1
EndChar

StartChar: oe
Encoding: 339 339 215
Width: 600
GlyphClass: 2
Flags: HMW
HStem: -12 115<430.5 467 430.5 468.5> -12 118<185 224 185 224.5> 212 91<364 476 362 586 364 364> 405 118<185 224> 410 113<413.5 446>
VStem: 12 132<210 300 210 340> 262 100<210 303> 476 116<303 332>
LayerCount: 2
Fore
SplineSet
195 -12 m 0x77
 93 -12 12 85 12 255 c 0
 12 425 96 523 198 523 c 0
 255 523 295 487 319 432 c 1
 346 490 389 523 438 523 c 0
 537 523 592 411 592 278 c 0
 592 250 590 235 586 212 c 1
 364 212 l 1
 375 140 407 103 454 103 c 0
 480 103 502 111 528 130 c 1xb7
 578 36 l 1
 540 5 489 -12 448 -12 c 0
 396 -12 349 17 320 69 c 1
 291 16 254 -12 195 -12 c 0x77
362 303 m 1
 476 303 l 1
 476 361 465 410 427 410 c 0x6f
 393 410 368 376 362 303 c 1
206 106 m 0
 242 106 262 165 262 255 c 0
 262 345 242 405 206 405 c 0x77
 164 405 144 345 144 255 c 0
 144 165 164 106 206 106 c 0
EndSplineSet
Validated: 1
EndChar

StartChar: p
Encoding: 112 112 216
Width: 600
GlyphClass: 2
Flags: HMW
HStem: -205 21G<72 72 72 219> -12 120<316 331.5 291.5 393.5> 403 120<327.5 342> 490 20G<72 192 192 192>
VStem: 72 147<-205 -40 143 353> 402 151<208 307.5>
LayerCount: 2
Fore
SplineSet
72 -205 m 1xdc
 72 510 l 1
 192 510 l 1xdc
 203 458 l 1
 206 458 l 1
 246 495 301 523 354 523 c 0xec
 478 523 553 421 553 263 c 0
 553 89 449 -12 338 -12 c 0
 294 -12 250 7 214 44 c 1
 219 -40 l 1
 219 -205 l 1
 72 -205 l 1xdc
304 108 m 0
 359 108 402 155 402 261 c 0
 402 354 373 403 311 403 c 0
 279 403 250 387 219 353 c 1xec
 219 143 l 1
 247 117 279 108 304 108 c 0
EndSplineSet
Validated: 1
EndChar

StartChar: thorn
Encoding: 254 254 217
Width: 600
GlyphClass: 2
Flags: HMW
HStem: -12 120<314.5 330.5 291.5 393> 403 120<329 342> 640 20G<72 219 219 219>
VStem: 72 147<-184 -40 143 353 542 660> 402 151<208 307.5>
LayerCount: 2
Fore
SplineSet
72 -184 m 1
 72 660 l 1
 219 660 l 1
 219 542 l 1
 215 463 l 1
 255 500 304 523 354 523 c 0
 477 523 553 421 553 263 c 0
 553 89 447 -12 339 -12 c 0
 290 -12 250 11 216 44 c 1
 219 -40 l 1
 219 -184 l 1
 72 -184 l 1
304 108 m 0
 357 108 402 155 402 261 c 0
 402 354 374 403 310 403 c 0
 280 403 250 387 219 353 c 1
 219 143 l 1
 246 117 279 108 304 108 c 0
EndSplineSet
Validated: 1
EndChar

StartChar: q
Encoding: 113 113 218
Width: 600
GlyphClass: 2
Flags: HMW
HStem: -206 21G<381 381 381 528> -12 120<263.5 279.5> 403 120<271 287 205 312.5> 490 20G<413 528 528 528>
VStem: 47 151<206 306 206 338.5> 381 147<-206 -32 -32 -32 157 367 367 367>
LayerCount: 2
Fore
SplineSet
381 -206 m 1xdc
 381 -32 l 1
 387 48 l 1
 352 13 303 -12 256 -12 c 0
 130 -12 47 88 47 255 c 0
 47 422 151 523 259 523 c 0
 315 523 356 503 397 457 c 1
 401 457 l 1xec
 413 510 l 1
 528 510 l 1
 528 -206 l 1
 381 -206 l 1xdc
294 108 m 0
 327 108 355 122 381 157 c 1
 381 367 l 1
 354 393 327 403 298 403 c 0
 244 403 198 355 198 257 c 0
 198 155 233 108 294 108 c 0
EndSplineSet
Validated: 1
EndChar

StartChar: r
Encoding: 114 114 219
Width: 600
GlyphClass: 2
Flags: HMW
HStem: 0 21G<116 116 116 263> 394 129<412.5 448.5> 490 20G<116 236 236 236> 503 20G<412.5 474>
VStem: 116 147<0 268 0 510>
AnchorPoint: "Ancre-2" 300 510 basechar 0
AnchorPoint: "Ancre-1" 0 0 basechar 0
AnchorPoint: "Ancre-0" 300 0 basechar 0
LayerCount: 2
Fore
SplineSet
116 0 m 1xc8
 116 510 l 1
 236 510 l 1xa8
 248 398 l 1
 251 398 l 1
 300 482 373 523 452 523 c 0xc8
 496 523 519 516 548 503 c 1x98
 518 379 l 1
 487 388 467 394 430 394 c 0
 369 394 305 360 263 268 c 1
 263 0 l 1
 116 0 l 1xc8
EndSplineSet
Validated: 1
EndChar

StartChar: racute
Encoding: 341 341 220
Width: 600
GlyphClass: 2
Flags: HMW
HStem: 0 21G<116 116 116 263> 394 129<412.5 448.5> 490 20G<116 236 236 236> 503 20G<412.5 474> 574 167<180 419 269 287>
VStem: 116 147<0 268 0 510>
AnchorPoint: "Ancre-2" 302 741 basechar 0
AnchorPoint: "Ancre-1" 0 0 basechar 0
AnchorPoint: "Ancre-0" 300 0 basechar 0
LayerCount: 2
Fore
SplineSet
180 574 m 1xcc
 269 741 l 1
 419 741 l 1
 287 574 l 1
 180 574 l 1xcc
116 0 m 1
 116 510 l 1
 236 510 l 1xac
 248 398 l 1
 251 398 l 1
 300 482 373 523 452 523 c 0xcc
 496 523 519 515 548 502 c 1x9c
 518 379 l 1
 487 388 467 394 430 394 c 0
 369 394 305 360 263 268 c 1
 263 0 l 1
 116 0 l 1
EndSplineSet
Validated: 1
EndChar

StartChar: rcaron
Encoding: 345 345 221
Width: 600
GlyphClass: 2
Flags: HMW
HStem: 0 21G<116 116 116 263> 394 129<412.5 448.5> 490 20G<116 236 236 236> 503 20G<412.5 474> 574 167<238 238 238 245 355 362>
VStem: 116 147<0 268 0 510>
AnchorPoint: "Ancre-2" 302 741 basechar 0
AnchorPoint: "Ancre-1" 0 0 basechar 0
AnchorPoint: "Ancre-0" 300 0 basechar 0
LayerCount: 2
Fore
SplineSet
238 574 m 1xcc
 138 741 l 1
 245 741 l 1
 298 645 l 1
 302 645 l 1
 355 741 l 1
 462 741 l 1
 362 574 l 1
 238 574 l 1xcc
116 0 m 1
 116 510 l 1
 236 510 l 1xac
 248 398 l 1
 251 398 l 1
 300 482 373 523 452 523 c 0xcc
 496 523 519 515 548 502 c 1x9c
 518 379 l 1
 487 388 467 394 430 394 c 0
 369 394 305 360 263 268 c 1
 263 0 l 1
 116 0 l 1
EndSplineSet
Validated: 1
EndChar

StartChar: s
Encoding: 115 115 222
Width: 600
GlyphClass: 2
Flags: HMW
HStem: -12 109<266 332.5 266 375.5> 413 110<285 342>
VStem: 84 146<355 384.5 355 411> 394 146<128 158>
AnchorPoint: "Ancre-2" 313 510 basechar 0
AnchorPoint: "Ancre-1" 0 0 basechar 0
AnchorPoint: "Ancre-0" 300 0 basechar 0
LayerCount: 2
Fore
SplineSet
296 -12 m 0
 207 -12 116 23 53 66 c 1
 119 158 l 1
 176 121 233 97 299 97 c 0
 366 97 394 114 394 142 c 0
 394 174 341 192 261 215 c 0
 174 240 84 283 84 364 c 0
 84 458 171 523 313 523 c 0
 401 523 475 487 527 453 c 1
 461 365 l 1
 416 393 368 413 316 413 c 0
 254 413 230 398 230 371 c 0
 230 339 287 323 357 304 c 0
 455 277 540 239 540 151 c 0
 540 59 455 -12 296 -12 c 0
EndSplineSet
Validated: 1
EndChar

StartChar: sacute
Encoding: 347 347 223
Width: 600
GlyphClass: 2
Flags: HMW
HStem: -12 109<266 332.5 266 375.5> 413 110<285 342> 574 167<193 432 282 300>
VStem: 84 146<355 384.5 355 411> 394 146<128 158>
AnchorPoint: "Ancre-2" 315 741 basechar 0
AnchorPoint: "Ancre-1" 0 0 basechar 0
AnchorPoint: "Ancre-0" 300 0 basechar 0
LayerCount: 2
Fore
SplineSet
193 574 m 1
 282 741 l 1
 432 741 l 1
 300 574 l 1
 193 574 l 1
296 -12 m 0
 207 -12 116 23 53 66 c 1
 119 158 l 1
 176 121 233 97 299 97 c 0
 366 97 394 114 394 142 c 0
 394 174 341 192 261 215 c 0
 174 240 84 283 84 364 c 0
 84 458 171 523 313 523 c 0
 401 523 475 487 527 453 c 1
 461 365 l 1
 416 393 368 413 316 413 c 0
 254 413 230 398 230 371 c 0
 230 339 287 323 357 304 c 0
 455 277 540 239 540 151 c 0
 540 59 455 -12 296 -12 c 0
EndSplineSet
Validated: 1
EndChar

StartChar: scaron
Encoding: 353 353 224
Width: 600
GlyphClass: 2
Flags: HMW
HStem: -12 109<266 332.5 266 375.5> 413 110<285 342> 574 167<251 251 251 258 368 375>
VStem: 84 146<355 384.5 355 411> 394 146<128 158>
AnchorPoint: "Ancre-2" 315 741 basechar 0
AnchorPoint: "Ancre-1" 0 0 basechar 0
AnchorPoint: "Ancre-0" 300 0 basechar 0
LayerCount: 2
Fore
SplineSet
251 574 m 1
 151 741 l 1
 258 741 l 1
 311 645 l 1
 315 645 l 1
 368 741 l 1
 475 741 l 1
 375 574 l 1
 251 574 l 1
296 -12 m 0
 207 -12 116 23 53 66 c 1
 119 158 l 1
 176 121 233 97 299 97 c 0
 366 97 394 114 394 142 c 0
 394 174 341 192 261 215 c 0
 174 240 84 283 84 364 c 0
 84 458 171 523 313 523 c 0
 401 523 475 487 527 453 c 1
 461 365 l 1
 416 393 368 413 316 413 c 0
 254 413 230 398 230 371 c 0
 230 339 287 323 357 304 c 0
 455 277 540 239 540 151 c 0
 540 59 455 -12 296 -12 c 0
EndSplineSet
Validated: 1
EndChar

StartChar: scedilla
Encoding: 351 351 225
Width: 600
GlyphClass: 2
Flags: HMW
HStem: -221 59<206 217> -10 21G<263 263> -10 107<263 332.5> 413 110<285 342>
VStem: 84 146<355 384.5> 288 106<-131 -109.5> 394 146<128 158>
AnchorPoint: "Ancre-2" 313 510 basechar 0
AnchorPoint: "Ancre-1" 0 0 basechar 0
AnchorPoint: "Ancre-0" 302 -221 basechar 0
LayerCount: 2
Fore
SplineSet
540 151 m 0xda
 540 70 474 6 350 -9 c 1
 336 -43 l 1
 369 -54 394 -76 394 -117 c 0
 394 -186 311 -216 217 -221 c 1
 206 -162 l 1
 254 -157 288 -144 288 -118 c 0
 288 -101 275 -87 230 -76 c 1
 263 -12 l 1xdc
 185 -5 108 28 53 66 c 1
 119 158 l 1
 176 121 233 97 299 97 c 0
 366 97 394 114 394 142 c 0xba
 394 174 341 192 261 215 c 0
 174 240 84 283 84 364 c 0
 84 458 171 523 313 523 c 0
 401 523 475 487 527 453 c 1
 461 365 l 1
 416 393 368 413 316 413 c 0
 254 413 230 398 230 371 c 0
 230 339 287 323 357 304 c 0
 455 277 540 239 540 151 c 0xda
EndSplineSet
Validated: 1
EndChar

StartChar: scircumflex
Encoding: 349 349 226
Width: 600
GlyphClass: 2
Flags: HMW
HStem: -12 109<266 332.5 266 375.5> 413 110<285 342> 574 167<151 375 251 258 368 368 368 375 251 475>
VStem: 84 146<355 384.5 355 411> 394 146<128 158>
AnchorPoint: "Ancre-2" 315 741 basechar 0
AnchorPoint: "Ancre-1" 0 0 basechar 0
AnchorPoint: "Ancre-0" 300 0 basechar 0
LayerCount: 2
Fore
SplineSet
151 574 m 1
 251 741 l 1
 375 741 l 1
 475 574 l 1
 368 574 l 1
 315 669 l 1
 311 669 l 1
 258 574 l 1
 151 574 l 1
296 -12 m 0
 207 -12 116 23 53 66 c 1
 119 158 l 1
 176 121 233 97 299 97 c 0
 366 97 394 114 394 142 c 0
 394 174 341 192 261 215 c 0
 174 240 84 283 84 364 c 0
 84 458 171 523 313 523 c 0
 401 523 475 487 527 453 c 1
 461 365 l 1
 416 393 368 413 316 413 c 0
 254 413 230 398 230 371 c 0
 230 339 287 323 357 304 c 0
 455 277 540 239 540 151 c 0
 540 59 455 -12 296 -12 c 0
EndSplineSet
Validated: 1
EndChar

StartChar: uni1E61
Encoding: 7777 7777 227
Width: 600
GlyphClass: 2
Flags: HMW
HStem: -12 109<266 332.5 266 375.5> 413 110<285 342> 586 200<284 342>
VStem: 84 146<355 384.5 355 411> 213 200<654 714> 394 146<128 158>
AnchorPoint: "Ancre-2" 315 750 basechar 0
AnchorPoint: "Ancre-1" 0 0 basechar 0
AnchorPoint: "Ancre-0" 300 0 basechar 0
LayerCount: 2
Fore
SplineSet
313 586 m 0xe8
 255 586 213 624 213 684 c 0
 213 744 255 786 313 786 c 0
 371 786 413 744 413 684 c 0
 413 624 371 586 313 586 c 0xe8
296 -12 m 0
 207 -12 116 23 53 66 c 1
 119 158 l 1
 176 121 233 97 299 97 c 0
 366 97 394 114 394 142 c 0
 394 174 341 192 261 215 c 0
 174 240 84 283 84 364 c 0
 84 458 171 523 313 523 c 0
 401 523 475 487 527 453 c 1
 461 365 l 1
 416 393 368 413 316 413 c 0
 254 413 230 398 230 371 c 0
 230 339 287 323 357 304 c 0
 455 277 540 239 540 151 c 0xd4
 540 59 455 -12 296 -12 c 0
EndSplineSet
Validated: 1
EndChar

StartChar: germandbls
Encoding: 223 223 228
Width: 600
GlyphClass: 2
Flags: HMW
HStem: -12 109<378.5 405 378.5 454> 0 21G<61 208 61 61> 0 26 619 116<260 303.5>
VStem: 61 147<0 502 0 512 0 575.5> 280 136<344 403> 340 137<515 573> 435 136<129.5 184>
LayerCount: 2
Fore
SplineSet
397 -12 m 0x99
 342 -12 303 1 258 26 c 1x39
 307 126 l 1
 338 105 365 97 392 97 c 0
 418 97 435 116 435 143 c 0x99
 435 225 280 225 280 361 c 0x5d
 280 445 340 475 340 555 c 0
 340 591 320 619 287 619 c 0
 233 619 208 574 208 502 c 2
 208 0 l 1
 61 0 l 1
 61 510 l 2
 61 637 135 735 288 735 c 0
 417 735 477 651 477 563 c 0
 477 464 416 433 416 379 c 0x5a
 416 309 571 306 571 156 c 0
 571 62 511 -12 397 -12 c 0x99
EndSplineSet
Validated: 1
EndChar

StartChar: t
Encoding: 116 116 229
Width: 600
GlyphClass: 2
Flags: HMW
HStem: -12 115<389 420> 395 115<49 174 49 181 321 531> 640 20G<181 181>
VStem: 174 147<211 212 212 395>
AnchorPoint: "Ancre-2" 259 607 basechar 0
AnchorPoint: "Ancre-1" 0 0 basechar 0
AnchorPoint: "Ancre-0" 300 0 basechar 0
LayerCount: 2
Fore
SplineSet
388 -12 m 0
 230 -12 174 78 174 211 c 2
 174 395 l 1
 49 395 l 1
 49 510 l 1
 181 510 l 1
 181 660 l 1
 321 720 l 1
 321 510 l 1
 531 510 l 1
 531 395 l 1
 321 395 l 1
 321 212 l 2
 321 134 353 103 425 103 c 0
 463 103 495 111 524 122 c 1
 550 16 l 1
 506 2 452 -12 388 -12 c 0
EndSplineSet
Validated: 1
EndChar

StartChar: tcaron
Encoding: 357 357 230
Width: 600
GlyphClass: 2
Flags: HMW
HStem: -12 115<389 420> 395 115<49 174 49 181 321 531> 564 228<390 390 390 453> 640 20G<181 181>
VStem: 174 147<211 212 212 395> 388 90
LayerCount: 2
Fore
SplineSet
390 564 m 1xec
 385 792 l 1
 479 792 l 1
 477 723 l 1
 453 564 l 1
 390 564 l 1xec
388 -12 m 0
 230 -12 174 78 174 211 c 2
 174 395 l 1
 49 395 l 1
 49 510 l 1
 181 510 l 1
 181 660 l 1
 321 720 l 1xdc
 321 510 l 1
 531 510 l 1
 531 395 l 1
 321 395 l 1
 321 212 l 2
 321 134 353 103 425 103 c 0
 463 103 495 111 524 122 c 1
 550 16 l 1
 506 2 452 -12 388 -12 c 0
EndSplineSet
Validated: 1
EndChar

StartChar: uni0163
Encoding: 355 355 231
Width: 600
GlyphClass: 2
Flags: HMW
HStem: -221 59<206 217> -12 115<389 420> 395 115<49 174 49 181 321 531> 640 20G<181 181>
VStem: 174 147<211 212 212 395> 288 106<-131 -109.5 -151.5 4>
AnchorPoint: "Ancre-2" 259 607 basechar 0
AnchorPoint: "Ancre-1" 0 0 basechar 0
AnchorPoint: "Ancre-0" 302 -221 basechar 0
LayerCount: 2
Fore
SplineSet
336 -43 m 1xf4
 369 -54 394 -76 394 -117 c 0
 394 -186 311 -216 217 -221 c 1
 206 -162 l 1
 254 -157 288 -144 288 -118 c 0
 288 -101 275 -87 230 -76 c 1
 270 4 l 1xf4
 288 4 l 1
 206 35 174 111 174 211 c 2
 174 395 l 1
 49 395 l 1
 49 510 l 1
 181 510 l 1
 181 660 l 1
 321 720 l 1
 321 510 l 1
 531 510 l 1
 531 395 l 1
 321 395 l 1
 321 212 l 2xf8
 321 134 353 103 425 103 c 0
 463 103 495 111 524 122 c 1
 550 16 l 1
 506 2 452 -12 388 -12 c 0
 379 -12 370 -12 362 -12 c 0
 358 -12 354 -12 350 -12 c 1
 336 -43 l 1xf4
EndSplineSet
Validated: 1
EndChar

StartChar: uni1E97
Encoding: 7831 7831 232
Width: 600
GlyphClass: 2
Flags: HMW
HStem: -12 115<389 420> 395 115<49 174 49 181 321 531> 640 20G<181 181> 668 157<127 173 359 391>
VStem: 174 147<211 212 212 395> 181 47
AnchorPoint: "Ancre-2" 261 825 basechar 0
AnchorPoint: "Ancre-1" 0 0 basechar 0
AnchorPoint: "Ancre-0" 300 0 basechar 0
LayerCount: 2
Fore
SplineSet
524 122 m 1xe8
 550 16 l 1
 506 2 452 -12 388 -12 c 0
 230 -12 174 78 174 211 c 2
 174 395 l 1
 49 395 l 1
 49 510 l 1
 181 510 l 1
 181 660 l 1
 298 710 l 1xe8
 293 721 290 734 290 747 c 0
 290 791 322 825 368 825 c 0
 414 825 447 791 447 747 c 0
 447 702 414 668 368 668 c 0
 350 668 334 673 321 683 c 1xf8
 321 510 l 1
 531 510 l 1
 531 395 l 1
 321 395 l 1
 321 212 l 2
 321 134 353 103 425 103 c 0
 463 103 495 111 524 122 c 1xe8
150 668 m 0xf4
 104 668 71 702 71 747 c 0
 71 791 104 825 150 825 c 0
 196 825 228 791 228 747 c 0
 228 702 196 668 150 668 c 0xf4
EndSplineSet
Validated: 1
EndChar

StartChar: u
Encoding: 117 117 233
Width: 600
GlyphClass: 2
Flags: HMW
HStem: -12 125<253.5 258.5> 0 21G<405 525 405 405> 490 20G<62 209 209 209 378 525 525 525>
VStem: 62 147<195 214 214 510> 378 147<174 510 0 510>
AnchorPoint: "Ancre-2" 300 510 basechar 0
AnchorPoint: "Ancre-1" 540 10 basechar 0
AnchorPoint: "Ancre-0" 300 0 basechar 0
LayerCount: 2
Fore
SplineSet
223 -12 m 0xb8
 110 -12 62 66 62 195 c 2
 62 510 l 1
 209 510 l 1
 209 214 l 2
 209 144 226 113 281 113 c 0
 318 113 344 127 378 174 c 1xb8
 378 510 l 1
 525 510 l 1
 525 0 l 1
 405 0 l 1x78
 394 74 l 1
 390 74 l 1
 346 22 294 -12 223 -12 c 0xb8
EndSplineSet
Validated: 1
EndChar

StartChar: uacute
Encoding: 250 250 234
Width: 600
GlyphClass: 2
Flags: HMW
HStem: -12 125<253.5 258.5> 0 21G<405 525 405 405> 490 20G<62 209 209 209 378 525 525 525> 574 167<180 419 269 287>
VStem: 62 147<195 214 214 510> 378 147<174 510 0 510>
AnchorPoint: "Ancre-2" 302 741 basechar 0
AnchorPoint: "Ancre-1" 540 10 basechar 0
AnchorPoint: "Ancre-0" 300 0 basechar 0
LayerCount: 2
Fore
SplineSet
180 574 m 1x7c
 269 741 l 1
 419 741 l 1
 287 574 l 1
 180 574 l 1x7c
223 -12 m 0xbc
 110 -12 62 66 62 195 c 2
 62 510 l 1
 209 510 l 1
 209 214 l 2
 209 144 226 113 281 113 c 0
 318 113 344 127 378 174 c 1xbc
 378 510 l 1
 525 510 l 1
 525 0 l 1
 405 0 l 1x7c
 394 74 l 1
 390 74 l 1
 346 22 294 -12 223 -12 c 0xbc
EndSplineSet
Validated: 1
EndChar

StartChar: ubreve
Encoding: 365 365 235
Width: 600
GlyphClass: 2
Flags: HMW
HStem: -12 125<253.5 258.5> 0 21G<405 525 405 405> 490 20G<62 209 209 209 378 525 525 525> 574 81<280 320 280 349.5>
VStem: 62 147<195 214 214 510> 153 82<730 730> 365 82<730 730> 378 147<174 510 0 510>
AnchorPoint: "Ancre-2" 302 730 basechar 0
AnchorPoint: "Ancre-1" 540 10 basechar 0
AnchorPoint: "Ancre-0" 300 0 basechar 0
LayerCount: 2
Fore
SplineSet
300 574 m 0x76
 201 574 155 649 153 730 c 1
 235 730 l 1
 240 688 260 655 300 655 c 0
 340 655 360 688 365 730 c 1
 447 730 l 1
 445 649 399 574 300 574 c 0x76
223 -12 m 0xb9
 110 -12 62 66 62 195 c 2
 62 510 l 1
 209 510 l 1
 209 214 l 2
 209 144 226 113 281 113 c 0
 318 113 344 127 378 174 c 1xb9
 378 510 l 1
 525 510 l 1
 525 0 l 1
 405 0 l 1x79
 394 74 l 1
 390 74 l 1
 346 22 294 -12 223 -12 c 0xb9
EndSplineSet
Validated: 1
EndChar

StartChar: uni01D4
Encoding: 468 468 236
Width: 600
GlyphClass: 2
Flags: HMW
HStem: -12 125<253.5 258.5> 0 21G<405 525 405 405> 490 20G<62 209 209 209 378 525 525 525> 574 167<238 238 238 245 355 362>
VStem: 62 147<195 214 214 510> 378 147<174 510 0 510>
AnchorPoint: "Ancre-2" 302 741 basechar 0
AnchorPoint: "Ancre-1" 540 10 basechar 0
AnchorPoint: "Ancre-0" 300 0 basechar 0
LayerCount: 2
Fore
SplineSet
238 574 m 1x7c
 138 741 l 1
 245 741 l 1
 298 645 l 1
 302 645 l 1
 355 741 l 1
 462 741 l 1
 362 574 l 1
 238 574 l 1x7c
223 -12 m 0xbc
 110 -12 62 66 62 195 c 2
 62 510 l 1
 209 510 l 1
 209 214 l 2
 209 144 226 113 281 113 c 0
 318 113 344 127 378 174 c 1xbc
 378 510 l 1
 525 510 l 1
 525 0 l 1
 405 0 l 1x7c
 394 74 l 1
 390 74 l 1
 346 22 294 -12 223 -12 c 0xbc
EndSplineSet
Validated: 1
EndChar

StartChar: ucircumflex
Encoding: 251 251 237
Width: 600
GlyphClass: 2
Flags: HMW
HStem: -12 125<253.5 258.5> 0 21G<405 525 405 405> 490 20G<62 209 209 209 378 525 525 525> 574 167<138 362 238 245 355 355 355 362 238 462>
VStem: 62 147<195 214 214 510> 378 147<174 510 0 510>
AnchorPoint: "Ancre-2" 302 741 basechar 0
AnchorPoint: "Ancre-1" 540 10 basechar 0
AnchorPoint: "Ancre-0" 300 0 basechar 0
LayerCount: 2
Fore
SplineSet
138 574 m 1x7c
 238 741 l 1
 362 741 l 1
 462 574 l 1
 355 574 l 1
 302 669 l 1
 298 669 l 1
 245 574 l 1
 138 574 l 1x7c
223 -12 m 0xbc
 110 -12 62 66 62 195 c 2
 62 510 l 1
 209 510 l 1
 209 214 l 2
 209 144 226 113 281 113 c 0
 318 113 344 127 378 174 c 1xbc
 378 510 l 1
 525 510 l 1
 525 0 l 1
 405 0 l 1x7c
 394 74 l 1
 390 74 l 1
 346 22 294 -12 223 -12 c 0xbc
EndSplineSet
Validated: 1
EndChar

StartChar: udieresis
Encoding: 252 252 238
Width: 600
GlyphClass: 2
Flags: HMW
HStem: -12 125<253.5 258.5> 0 21G<405 525 405 405> 490 20G<62 209 209 209 378 525 525 525> 571 157<168 214 386 432>
VStem: 62 147<195 214 214 510> 112 157<627.5 672> 331 157<627.5 672> 378 147<174 510 0 510>
AnchorPoint: "Ancre-2" 302 728 basechar 0
AnchorPoint: "Ancre-1" 540 10 basechar 0
AnchorPoint: "Ancre-0" 300 0 basechar 0
LayerCount: 2
Fore
SplineSet
191 571 m 0x76
 145 571 112 605 112 650 c 0
 112 694 145 728 191 728 c 0
 237 728 269 694 269 650 c 0
 269 605 237 571 191 571 c 0x76
409 571 m 0
 363 571 331 605 331 650 c 0
 331 694 363 728 409 728 c 0
 455 728 488 694 488 650 c 0
 488 605 455 571 409 571 c 0
223 -12 m 0xb9
 110 -12 62 66 62 195 c 2
 62 510 l 1
 209 510 l 1
 209 214 l 2
 209 144 226 113 281 113 c 0
 318 113 344 127 378 174 c 1xb9
 378 510 l 1
 525 510 l 1
 525 0 l 1
 405 0 l 1x79
 394 74 l 1
 390 74 l 1
 346 22 294 -12 223 -12 c 0xb9
EndSplineSet
Validated: 1
EndChar

StartChar: ugrave
Encoding: 249 249 239
Width: 600
GlyphClass: 2
Flags: HMW
HStem: -12 125<253.5 258.5> 0 21G<405 525 405 405> 490 20G<62 209 209 209 378 525 525 525> 574 167<312 312 312 330 180 419>
VStem: 62 147<195 214 214 510> 378 147<174 510 0 510>
AnchorPoint: "Ancre-2" 302 741 basechar 0
AnchorPoint: "Ancre-1" 540 10 basechar 0
AnchorPoint: "Ancre-0" 300 0 basechar 0
LayerCount: 2
Fore
SplineSet
312 574 m 1x7c
 180 741 l 1
 330 741 l 1
 419 574 l 1
 312 574 l 1x7c
223 -12 m 0xbc
 110 -12 62 66 62 195 c 2
 62 510 l 1
 209 510 l 1
 209 214 l 2
 209 144 226 113 281 113 c 0
 318 113 344 127 378 174 c 1xbc
 378 510 l 1
 525 510 l 1
 525 0 l 1
 405 0 l 1x7c
 394 74 l 1
 390 74 l 1
 346 22 294 -12 223 -12 c 0xbc
EndSplineSet
Validated: 1
EndChar

StartChar: uhungarumlaut
Encoding: 369 369 240
Width: 600
GlyphClass: 2
Flags: HMW
HStem: -12 125<253.5 258.5> 0 21G<405 525 405 405> 490 20G<62 209 209 209 378 525 525 525> 573 151<122 307 190 212 292 307 361 383 292 292>
VStem: 62 147<195 214 214 510> 378 147<174 510 0 510>
AnchorPoint: "Ancre-2" 300 510 basechar 0
AnchorPoint: "Ancre-1" 540 10 basechar 0
AnchorPoint: "Ancre-0" 300 0 basechar 0
LayerCount: 2
Fore
SplineSet
122 573 m 1x7c
 190 723 l 1
 307 723 l 1
 212 573 l 1
 122 573 l 1x7c
292 573 m 1
 361 723 l 1
 478 723 l 1
 383 573 l 1
 292 573 l 1
223 -12 m 0xbc
 110 -12 62 66 62 195 c 2
 62 510 l 1
 209 510 l 1
 209 214 l 2
 209 144 226 113 281 113 c 0
 318 113 344 127 378 174 c 1xbc
 378 510 l 1
 525 510 l 1
 525 0 l 1
 405 0 l 1x7c
 394 74 l 1
 390 74 l 1
 346 22 294 -12 223 -12 c 0xbc
EndSplineSet
Validated: 1
EndChar

StartChar: umacron
Encoding: 363 363 241
Width: 600
GlyphClass: 2
Flags: HMW
HStem: -12 125<253.5 258.5> 0 21G<405 525 405 405> 490 20G<62 209 209 209 378 525 525 525> 592 93<162 438 162 438>
VStem: 62 147<195 214 214 510> 378 147<174 510 0 510>
AnchorPoint: "Ancre-2" 302 685 basechar 0
AnchorPoint: "Ancre-1" 540 10 basechar 0
AnchorPoint: "Ancre-0" 300 0 basechar 0
LayerCount: 2
Fore
SplineSet
162 592 m 1x7c
 162 685 l 1
 438 685 l 1
 438 592 l 1
 162 592 l 1x7c
223 -12 m 0xbc
 110 -12 62 66 62 195 c 2
 62 510 l 1
 209 510 l 1
 209 214 l 2
 209 144 226 113 281 113 c 0
 318 113 344 127 378 174 c 1xbc
 378 510 l 1
 525 510 l 1
 525 0 l 1
 405 0 l 1x7c
 394 74 l 1
 390 74 l 1
 346 22 294 -12 223 -12 c 0xbc
EndSplineSet
Validated: 1
EndChar

StartChar: uogonek
Encoding: 371 371 242
Width: 600
GlyphClass: 2
Flags: HMW
HStem: -210 21G<409.5 454.5> -210 87<409.5 480.5> -12 125<253.5 258.5> 0 21G<483 525 483 483> 490 20G<62 209 209 209 378 525 525 525>
VStem: 62 147<195 214 214 510> 333 99<-98.5 -89.5> 378 147<174 510 0 510>
AnchorPoint: "Ancre-2" 300 510 basechar 0
AnchorPoint: "Ancre-1" 540 10 basechar 0
AnchorPoint: "Ancre-0" 300 0 basechar 0
LayerCount: 2
Fore
SplineSet
509 -111 m 1x5e
 540 -177 l 1
 514 -197 470 -210 439 -210 c 0
 380 -210 333 -179 333 -119 c 0
 333 -60 377 -18 403 0 c 1
 405 0 l 1
 394 74 l 1
 390 74 l 1xae
 346 22 294 -12 223 -12 c 0
 110 -12 62 66 62 195 c 2
 62 510 l 1
 209 510 l 1
 209 214 l 2
 209 144 226 113 281 113 c 0
 318 113 344 127 378 174 c 1xad
 378 510 l 1
 525 510 l 1
 525 0 l 1x9d
 483 0 l 1
 448 -28 432 -56 432 -85 c 0
 432 -112 453 -123 474 -123 c 0
 487 -123 500 -117 509 -111 c 1x5e
EndSplineSet
Validated: 1
EndChar

StartChar: uring
Encoding: 367 367 243
Width: 600
GlyphClass: 2
Flags: HMW
HStem: -12 125<253.5 258.5> 0 21G<405 525 405 405> 490 20G<62 209 209 209 378 525 525 525> 548 55<288.5 311.5 288.5 333.5> 697 55<288.5 311.5>
VStem: 62 147<195 214 214 510> 187 72<636 664 636 681> 341 72<636 664> 378 147<174 510 0 510>
AnchorPoint: "Ancre-2" 302 752 basechar 0
AnchorPoint: "Ancre-1" 540 10 basechar 0
AnchorPoint: "Ancre-0" 300 0 basechar 0
LayerCount: 2
Fore
SplineSet
300 548 m 0x7b
 233 548 187 588 187 650 c 0
 187 712 233 752 300 752 c 0
 367 752 413 712 413 650 c 0
 413 588 367 548 300 548 c 0x7b
300 603 m 0
 323 603 341 622 341 650 c 0
 341 678 323 697 300 697 c 0
 277 697 259 678 259 650 c 0
 259 622 277 603 300 603 c 0
223 -12 m 0xbc80
 110 -12 62 66 62 195 c 2
 62 510 l 1
 209 510 l 1
 209 214 l 2
 209 144 226 113 281 113 c 0
 318 113 344 127 378 174 c 1xbc80
 378 510 l 1
 525 510 l 1
 525 0 l 1
 405 0 l 1x7c80
 394 74 l 1
 390 74 l 1
 346 22 294 -12 223 -12 c 0xbc80
EndSplineSet
Validated: 1
EndChar

StartChar: utilde
Encoding: 361 361 244
Width: 600
GlyphClass: 2
Flags: HMW
HStem: -12 125<253.5 258.5> 0 21G<405 525 405 405> 490 20G<62 209 209 209 378 525 525 525> 575 91<339 363.5 339 384.5> 628 90<236.5 261>
VStem: 62 147<195 214 214 510> 378 147<174 510 0 510>
AnchorPoint: "Ancre-2" 302 718 basechar 0
AnchorPoint: "Ancre-1" 540 10 basechar 0
AnchorPoint: "Ancre-0" 300 0 basechar 0
LayerCount: 2
Fore
SplineSet
129 575 m 1x76
 141 672 185 718 246 718 c 0
 295 718 325 666 353 666 c 0x76
 374 666 387 679 396 718 c 1
 471 718 l 1x6e
 459 622 415 575 354 575 c 0x76
 304 575 275 628 247 628 c 0x6e
 226 628 213 615 204 575 c 1
 129 575 l 1x76
223 -12 m 0xb6
 110 -12 62 66 62 195 c 2
 62 510 l 1
 209 510 l 1
 209 214 l 2
 209 144 226 113 281 113 c 0
 318 113 344 127 378 174 c 1xb6
 378 510 l 1
 525 510 l 1
 525 0 l 1
 405 0 l 1x76
 394 74 l 1
 390 74 l 1
 346 22 294 -12 223 -12 c 0xb6
EndSplineSet
Validated: 1
EndChar

StartChar: v
Encoding: 118 118 245
Width: 600
GlyphClass: 2
Flags: HMW
HStem: 0 109<218 306 302 306 302 387> 490 20G<31 179 179 179 428 569 569 569>
VStem: 31 538<510 510>
LayerCount: 2
Fore
SplineSet
218 0 m 1
 31 510 l 1
 179 510 l 1
 257 266 l 2
 273 215 287 162 302 109 c 1
 306 109 l 1
 321 162 334 215 350 266 c 2
 428 510 l 1
 569 510 l 1
 387 0 l 1
 218 0 l 1
EndSplineSet
Validated: 1
EndChar

StartChar: w
Encoding: 119 119 246
Width: 600
GlyphClass: 2
Flags: HMW
HStem: 0 119<86 198 195 198 195 253 412 416> 326 119<298 302 298 298> 490 20G<4 148 148 148 462 596 596 596>
VStem: 4 592<510 510>
AnchorPoint: "Ancre-2" 300 510 basechar 0
AnchorPoint: "Ancre-1" 0 0 basechar 0
AnchorPoint: "Ancre-0" 300 0 basechar 0
LayerCount: 2
Fore
SplineSet
86 0 m 1
 4 510 l 1
 148 510 l 1
 178 270 l 2
 185 220 188 170 195 119 c 1
 198 119 l 1
 204 170 212 222 221 270 c 2
 252 445 l 1
 355 445 l 1
 388 270 l 2
 397 220 405 170 412 119 c 1
 416 119 l 1
 423 170 425 220 432 270 c 2
 462 510 l 1
 596 510 l 1
 519 0 l 1
 349 0 l 1
 321 176 l 2
 314 223 308 271 302 326 c 1
 298 326 l 1
 294 288 290 245 280 176 c 2
 253 0 l 1
 86 0 l 1
EndSplineSet
Validated: 1
EndChar

StartChar: wacute
Encoding: 7811 7811 247
Width: 600
GlyphClass: 2
Flags: HMW
HStem: 0 119<86 198 195 198 195 253 412 416> 326 119<298 302 298 298> 490 20G<4 148 148 148 462 596 596 596> 574 167<180 419 269 287>
VStem: 4 592<510 510>
AnchorPoint: "Ancre-2" 302 741 basechar 0
AnchorPoint: "Ancre-1" 0 0 basechar 0
AnchorPoint: "Ancre-0" 300 0 basechar 0
LayerCount: 2
Fore
SplineSet
180 574 m 1
 269 741 l 1
 419 741 l 1
 287 574 l 1
 180 574 l 1
86 0 m 1
 4 510 l 1
 148 510 l 1
 178 270 l 2
 185 220 188 170 195 119 c 1
 198 119 l 1
 204 170 212 222 221 270 c 2
 252 445 l 1
 355 445 l 1
 388 270 l 2
 397 220 405 170 412 119 c 1
 416 119 l 1
 423 170 425 220 432 270 c 2
 462 510 l 1
 596 510 l 1
 519 0 l 1
 349 0 l 1
 321 176 l 2
 314 223 308 271 302 326 c 1
 298 326 l 1
 294 288 290 245 280 176 c 2
 253 0 l 1
 86 0 l 1
EndSplineSet
Validated: 1
EndChar

StartChar: wcircumflex
Encoding: 373 373 248
Width: 600
GlyphClass: 2
Flags: HMW
HStem: 0 119<86 198 195 198 195 253 412 416> 326 119<298 302 298 298> 490 20G<4 148 148 148 462 596 596 596> 574 167<138 362 238 245 355 355 355 362 238 462>
VStem: 4 592<510 510>
AnchorPoint: "Ancre-2" 302 741 basechar 0
AnchorPoint: "Ancre-1" 0 0 basechar 0
AnchorPoint: "Ancre-0" 300 0 basechar 0
LayerCount: 2
Fore
SplineSet
138 574 m 1
 238 741 l 1
 362 741 l 1
 462 574 l 1
 355 574 l 1
 302 669 l 1
 298 669 l 1
 245 574 l 1
 138 574 l 1
86 0 m 1
 4 510 l 1
 148 510 l 1
 178 270 l 2
 185 220 188 170 195 119 c 1
 198 119 l 1
 204 170 212 222 221 270 c 2
 252 445 l 1
 355 445 l 1
 388 270 l 2
 397 220 405 170 412 119 c 1
 416 119 l 1
 423 170 425 220 432 270 c 2
 462 510 l 1
 596 510 l 1
 519 0 l 1
 349 0 l 1
 321 176 l 2
 314 223 308 271 302 326 c 1
 298 326 l 1
 294 288 290 245 280 176 c 2
 253 0 l 1
 86 0 l 1
EndSplineSet
Validated: 1
EndChar

StartChar: wdieresis
Encoding: 7813 7813 249
Width: 600
GlyphClass: 2
Flags: HMW
HStem: 0 119<86 198 195 198 195 253 412 416> 326 119<298 302 298 298> 490 20G<4 148 148 148 462 596 596 596> 571 157<168 214 386 432>
VStem: 112 157<627.5 672> 331 157<627.5 672>
AnchorPoint: "Ancre-2" 302 728 basechar 0
AnchorPoint: "Ancre-1" 0 0 basechar 0
AnchorPoint: "Ancre-0" 300 0 basechar 0
LayerCount: 2
Fore
SplineSet
191 571 m 0
 145 571 112 605 112 650 c 0
 112 694 145 728 191 728 c 0
 237 728 269 694 269 650 c 0
 269 605 237 571 191 571 c 0
409 571 m 0
 363 571 331 605 331 650 c 0
 331 694 363 728 409 728 c 0
 455 728 488 694 488 650 c 0
 488 605 455 571 409 571 c 0
86 0 m 1
 4 510 l 1
 148 510 l 1
 178 270 l 2
 185 220 188 170 195 119 c 1
 198 119 l 1
 204 170 212 222 221 270 c 2
 252 445 l 1
 355 445 l 1
 388 270 l 2
 397 220 405 170 412 119 c 1
 416 119 l 1
 423 170 425 220 432 270 c 2
 462 510 l 1
 596 510 l 1
 519 0 l 1
 349 0 l 1
 321 176 l 2
 314 223 308 271 302 326 c 1
 298 326 l 1
 294 288 290 245 280 176 c 2
 253 0 l 1
 86 0 l 1
EndSplineSet
Validated: 1
EndChar

StartChar: wgrave
Encoding: 7809 7809 250
Width: 600
GlyphClass: 2
Flags: HMW
HStem: 0 119<86 198 195 198 195 253 412 416> 326 119<298 302 298 298> 490 20G<4 148 148 148 462 596 596 596> 574 167<312 312 312 330 180 419>
VStem: 4 592<510 510>
AnchorPoint: "Ancre-2" 302 741 basechar 0
AnchorPoint: "Ancre-1" 0 0 basechar 0
AnchorPoint: "Ancre-0" 300 0 basechar 0
LayerCount: 2
Fore
SplineSet
312 574 m 1
 180 741 l 1
 330 741 l 1
 419 574 l 1
 312 574 l 1
86 0 m 1
 4 510 l 1
 148 510 l 1
 178 270 l 2
 185 220 188 170 195 119 c 1
 198 119 l 1
 204 170 212 222 221 270 c 2
 252 445 l 1
 355 445 l 1
 388 270 l 2
 397 220 405 170 412 119 c 1
 416 119 l 1
 423 170 425 220 432 270 c 2
 462 510 l 1
 596 510 l 1
 519 0 l 1
 349 0 l 1
 321 176 l 2
 314 223 308 271 302 326 c 1
 298 326 l 1
 294 288 290 245 280 176 c 2
 253 0 l 1
 86 0 l 1
EndSplineSet
Validated: 1
EndChar

StartChar: x
Encoding: 120 120 251
Width: 600
GlyphClass: 2
Flags: HMW
HStem: 0 21G<37 37 37 191 404 404 404 562> 490 20G<48 206 206 206 398 552 552 552>
VStem: 37 525<0 0>
LayerCount: 2
Fore
SplineSet
37 0 m 1
 209 265 l 1
 48 510 l 1
 206 510 l 1
 257 426 l 2
 272 397 292 367 309 339 c 1
 313 339 l 1
 354 426 l 1
 398 510 l 1
 552 510 l 1
 390 249 l 1
 562 0 l 1
 404 0 l 1
 347 87 l 2
 329 115 308 146 290 175 c 1
 286 175 l 1
 271 146 255 117 240 87 c 2
 191 0 l 1
 37 0 l 1
EndSplineSet
Validated: 1
EndChar

StartChar: y
Encoding: 121 121 252
Width: 600
GlyphClass: 2
Flags: HMW
HStem: -217 116<128.5 160.5 125.5 205.5> -207 21G<67 67> 490 20G<31 177 177 177 432 571 571 571>
VStem: 31 540<510 510>
AnchorPoint: "Ancre-2" 310 510 basechar 0
AnchorPoint: "Ancre-1" 0 0 basechar 0
AnchorPoint: "Ancre-0" 300 0 basechar 0
LayerCount: 2
Fore
SplineSet
143 -217 m 0xb0
 114 -217 88 -213 67 -207 c 1x70
 93 -95 l 1
 106 -99 119 -101 132 -101 c 0
 189 -101 220 -54 230 -29 c 2
 246 12 l 1
 31 510 l 1
 177 510 l 1
 260 287 l 2
 278 239 294 187 310 134 c 1
 314 134 l 1
 327 184 343 237 359 287 c 2
 432 510 l 1
 571 510 l 1
 374 -24 l 2
 327 -151 268 -217 143 -217 c 0xb0
EndSplineSet
Validated: 1
EndChar

StartChar: yacute
Encoding: 253 253 253
Width: 600
GlyphClass: 2
Flags: HMW
HStem: -217 116<128.5 160.5 125.5 205.5> -207 21G<67 67> 490 20G<31 177 177 177 432 571 571 571> 574 167<190 429 279 297>
VStem: 31 540<510 510>
AnchorPoint: "Ancre-2" 312 741 basechar 0
AnchorPoint: "Ancre-1" 0 0 basechar 0
AnchorPoint: "Ancre-0" 300 0 basechar 0
LayerCount: 2
Fore
SplineSet
190 574 m 1xb8
 279 741 l 1
 429 741 l 1
 297 574 l 1
 190 574 l 1xb8
143 -217 m 0
 114 -217 88 -213 67 -207 c 1x78
 93 -95 l 1
 106 -99 119 -101 132 -101 c 0
 189 -101 220 -54 230 -29 c 2
 246 12 l 1
 31 510 l 1
 177 510 l 1
 260 287 l 2
 278 239 294 187 310 134 c 1
 314 134 l 1
 327 184 343 237 359 287 c 2
 432 510 l 1
 571 510 l 1
 374 -24 l 2
 327 -151 268 -217 143 -217 c 0
EndSplineSet
Validated: 1
EndChar

StartChar: ycircumflex
Encoding: 375 375 254
Width: 600
GlyphClass: 2
Flags: HMW
HStem: -217 116<128.5 160.5 125.5 205.5> -207 21G<67 67> 490 20G<31 177 177 177 432 571 571 571> 574 167<148 372 248 255 365 365 365 372 248 472>
VStem: 31 540<510 510>
AnchorPoint: "Ancre-2" 312 741 basechar 0
AnchorPoint: "Ancre-1" 0 0 basechar 0
AnchorPoint: "Ancre-0" 300 0 basechar 0
LayerCount: 2
Fore
SplineSet
148 574 m 1xb8
 248 741 l 1
 372 741 l 1
 472 574 l 1
 365 574 l 1
 312 669 l 1
 308 669 l 1
 255 574 l 1
 148 574 l 1xb8
143 -217 m 0
 114 -217 88 -213 67 -207 c 1x78
 93 -95 l 1
 106 -99 119 -101 132 -101 c 0
 189 -101 220 -54 230 -29 c 2
 246 12 l 1
 31 510 l 1
 177 510 l 1
 260 287 l 2
 278 239 294 187 310 134 c 1
 314 134 l 1
 327 184 343 237 359 287 c 2
 432 510 l 1
 571 510 l 1
 374 -24 l 2
 327 -151 268 -217 143 -217 c 0
EndSplineSet
Validated: 1
EndChar

StartChar: ydieresis
Encoding: 255 255 255
Width: 600
GlyphClass: 2
Flags: HMW
HStem: -217 116<128.5 160.5 125.5 205.5> -207 21G<67 67> 490 20G<31 177 177 177 432 571 571 571> 571 157<178 224 396 442>
VStem: 122 157<627.5 672> 341 157<627.5 672>
AnchorPoint: "Ancre-2" 312 728 basechar 0
AnchorPoint: "Ancre-1" 0 0 basechar 0
AnchorPoint: "Ancre-0" 300 0 basechar 0
LayerCount: 2
Fore
SplineSet
201 571 m 0xbc
 155 571 122 605 122 650 c 0
 122 694 155 728 201 728 c 0
 247 728 279 694 279 650 c 0
 279 605 247 571 201 571 c 0xbc
419 571 m 0
 373 571 341 605 341 650 c 0
 341 694 373 728 419 728 c 0
 465 728 498 694 498 650 c 0
 498 605 465 571 419 571 c 0
143 -217 m 0
 114 -217 88 -213 67 -207 c 1x7c
 93 -95 l 1
 106 -99 119 -101 132 -101 c 0
 189 -101 220 -54 230 -29 c 2
 246 12 l 1
 31 510 l 1
 177 510 l 1
 260 287 l 2
 278 239 294 187 310 134 c 1
 314 134 l 1
 327 184 343 237 359 287 c 2
 432 510 l 1
 571 510 l 1
 374 -24 l 2
 327 -151 268 -217 143 -217 c 0
EndSplineSet
Validated: 1
EndChar

StartChar: uni1E8F
Encoding: 7823 7823 256
Width: 600
GlyphClass: 2
Flags: HMW
HStem: -217 116<128.5 160.5 125.5 205.5> -207 21G<67 67> 490 20G<31 177 177 177 432 571 571 571> 586 200<281 339>
VStem: 210 200<654 714>
AnchorPoint: "Ancre-2" 312 750 basechar 0
AnchorPoint: "Ancre-1" 0 0 basechar 0
AnchorPoint: "Ancre-0" 300 0 basechar 0
LayerCount: 2
Fore
SplineSet
310 586 m 0xb8
 252 586 210 624 210 684 c 0
 210 744 252 786 310 786 c 0
 368 786 410 744 410 684 c 0
 410 624 368 586 310 586 c 0xb8
143 -217 m 0
 114 -217 88 -213 67 -207 c 1x78
 93 -95 l 1
 106 -99 119 -101 132 -101 c 0
 189 -101 220 -54 230 -29 c 2
 246 12 l 1
 31 510 l 1
 177 510 l 1
 260 287 l 2
 278 239 294 187 310 134 c 1
 314 134 l 1
 327 184 343 237 359 287 c 2
 432 510 l 1
 571 510 l 1
 374 -24 l 2
 327 -151 268 -217 143 -217 c 0
EndSplineSet
Validated: 1
EndChar

StartChar: ygrave
Encoding: 7923 7923 257
Width: 600
GlyphClass: 2
Flags: HMW
HStem: -217 116<128.5 160.5 125.5 205.5> -207 21G<67 67> 490 20G<31 177 177 177 432 571 571 571> 574 167<322 322 322 340 190 429>
VStem: 31 540<510 510>
AnchorPoint: "Ancre-2" 312 741 basechar 0
AnchorPoint: "Ancre-1" 0 0 basechar 0
AnchorPoint: "Ancre-0" 300 0 basechar 0
LayerCount: 2
Fore
SplineSet
322 574 m 1xb8
 190 741 l 1
 340 741 l 1
 429 574 l 1
 322 574 l 1xb8
143 -217 m 0
 114 -217 88 -213 67 -207 c 1x78
 93 -95 l 1
 106 -99 119 -101 132 -101 c 0
 189 -101 220 -54 230 -29 c 2
 246 12 l 1
 31 510 l 1
 177 510 l 1
 260 287 l 2
 278 239 294 187 310 134 c 1
 314 134 l 1
 327 184 343 237 359 287 c 2
 432 510 l 1
 571 510 l 1
 374 -24 l 2
 327 -151 268 -217 143 -217 c 0
EndSplineSet
Validated: 1
EndChar

StartChar: uni1EF9
Encoding: 7929 7929 258
Width: 600
GlyphClass: 2
Flags: HMW
HStem: -196 116<128.5 160.5 125.5 205.5> 490 20G<31 177 177 177 432 571 571 571> 593 91<346 370.5 346 391.5> 647 90<243.5 268>
VStem: 31 540<510 510>
LayerCount: 2
Fore
SplineSet
136 593 m 1xe8
 148 690 192 737 253 737 c 0xd8
 302 737 332 684 360 684 c 0xe8
 381 684 394 697 403 737 c 1
 478 737 l 1xd8
 466 641 422 593 361 593 c 0xe8
 311 593 282 647 254 647 c 0xd8
 233 647 220 634 211 593 c 1
 136 593 l 1xe8
143 -196 m 0xd8
 114 -196 88 -192 67 -186 c 1
 93 -74 l 1
 106 -78 119 -80 132 -80 c 0
 189 -80 217 -54 236 -12 c 2
 246 12 l 1
 31 510 l 1
 177 510 l 1
 260 287 l 2
 278 239 294 187 310 134 c 1
 314 134 l 1
 327 184 343 237 359 287 c 2
 432 510 l 1
 571 510 l 1
 375 -3 l 2
 327 -130 268 -196 143 -196 c 0xd8
EndSplineSet
Validated: 1
EndChar

StartChar: z
Encoding: 122 122 259
Width: 600
GlyphClass: 2
Flags: HMW
HStem: 0 115<273 541 273 541> 395 115<102 330 102 533>
VStem: 70 471<0 79 79 79>
LayerCount: 2
Fore
SplineSet
70 0 m 1
 70 79 l 1
 330 395 l 1
 102 395 l 1
 102 510 l 1
 533 510 l 1
 533 432 l 1
 273 115 l 1
 541 115 l 1
 541 0 l 1
 70 0 l 1
EndSplineSet
Validated: 1
EndChar

StartChar: zacute
Encoding: 378 378 260
Width: 600
GlyphClass: 2
Flags: HMW
HStem: 0 115<273 541 273 541> 395 115<102 330 102 533> 591 171<241 480 330 348>
VStem: 70 471<0 79 79 79>
LayerCount: 2
Fore
SplineSet
241 591 m 1
 330 762 l 1
 480 762 l 1
 348 591 l 1
 241 591 l 1
70 0 m 1
 70 79 l 1
 330 395 l 1
 102 395 l 1
 102 510 l 1
 533 510 l 1
 533 432 l 1
 273 115 l 1
 541 115 l 1
 541 0 l 1
 70 0 l 1
EndSplineSet
Validated: 1
EndChar

StartChar: zcaron
Encoding: 382 382 261
Width: 600
GlyphClass: 2
Flags: HMW
HStem: 0 115<273 541 273 541> 395 115<102 330 102 533> 574 167<238 238 238 245 355 362>
VStem: 70 471<0 79 79 79>
AnchorPoint: "Ancre-2" 302 741 basechar 0
AnchorPoint: "Ancre-1" 0 0 basechar 0
AnchorPoint: "Ancre-0" 0 0 basechar 0
LayerCount: 2
Fore
SplineSet
238 574 m 1
 138 741 l 1
 245 741 l 1
 298 645 l 1
 302 645 l 1
 355 741 l 1
 462 741 l 1
 362 574 l 1
 238 574 l 1
70 0 m 1
 70 79 l 1
 330 395 l 1
 102 395 l 1
 102 510 l 1
 533 510 l 1
 533 432 l 1
 273 115 l 1
 541 115 l 1
 541 0 l 1
 70 0 l 1
EndSplineSet
Validated: 1
EndChar

StartChar: zdotaccent
Encoding: 380 380 262
Width: 600
GlyphClass: 2
Flags: HMW
HStem: 0 115<273 541 273 541> 395 115<102 330 102 533> 586 200<271 329>
VStem: 200 200<654 714>
AnchorPoint: "Ancre-2" 302 750 basechar 0
AnchorPoint: "Ancre-1" 0 0 basechar 0
AnchorPoint: "Ancre-0" 0 0 basechar 0
LayerCount: 2
Fore
SplineSet
300 586 m 0
 242 586 200 624 200 684 c 0
 200 744 242 786 300 786 c 0
 358 786 400 744 400 684 c 0
 400 624 358 586 300 586 c 0
70 0 m 1
 70 79 l 1
 330 395 l 1
 102 395 l 1
 102 510 l 1
 533 510 l 1
 533 432 l 1
 273 115 l 1
 541 115 l 1
 541 0 l 1
 70 0 l 1
EndSplineSet
Validated: 1
EndChar

StartChar: ordfeminine
Encoding: 170 170 263
Width: 600
GlyphClass: 2
Flags: HMW
HStem: 252 79<227.5 302.5> 515 82<287.5 310.5>
VStem: 154 100<350.5 371.5 350.5 386> 349 104<357 410 410 410>
LayerCount: 2
Fore
SplineSet
259 252 m 0
 196 252 154 297 154 351 c 0
 154 421 212 459 349 472 c 1
 347 499 328 515 293 515 c 0
 266 515 235 504 202 486 c 1
 165 553 l 1
 209 579 261 597 314 597 c 0
 400 597 453 549 453 446 c 2
 453 260 l 1
 368 260 l 1
 361 293 l 1
 359 293 l 1
 330 269 295 252 259 252 c 0
292 331 m 0
 313 331 333 341 349 357 c 1
 349 410 l 1
 278 401 254 383 254 360 c 0
 254 341 269 331 292 331 c 0
EndSplineSet
Validated: 1
EndChar

StartChar: ordmasculine
Encoding: 186 186 264
Width: 600
GlyphClass: 2
Flags: HMW
HStem: 252 82<279 321.5 279 344> 514 83<279 321.5>
VStem: 133 106<397 451.5 397 478.5> 361 106<397 451.5>
LayerCount: 2
Fore
SplineSet
300 252 m 0
 212 252 133 315 133 424 c 0
 133 533 212 597 300 597 c 0
 388 597 467 533 467 424 c 0
 467 315 388 252 300 252 c 0
300 334 m 0
 343 334 361 370 361 424 c 0
 361 479 343 514 300 514 c 0
 258 514 239 479 239 424 c 0
 239 370 258 334 300 334 c 0
EndSplineSet
Validated: 1
EndChar

StartChar: pi
Encoding: 960 960 265
Width: 600
GlyphClass: 2
Flags: HMW
HStem: -12 21G<453.5 526> -12 119<453.5 547.5> -9 21G<232 232> 0 21G<85 85> 394 116<88 110 14 586 247 366 247 247 506 506 506 586>
VStem: 110 137<336.5 394> 361 139<135.5 166 135.5 175>
LayerCount: 2
Fore
SplineSet
509 -12 m 0x8e
 398 -12 361 55 361 159 c 0
 361 191 365 307 366 394 c 1
 247 394 l 1
 247 271 241 128 232 -9 c 1x2e
 85 0 l 1x1e
 103 140 110 279 110 394 c 1
 14 394 l 1
 14 504 l 1
 88 510 l 1
 586 510 l 1
 586 394 l 1
 506 394 l 1
 500 303 500 179 500 153 c 0
 500 118 515 107 544 107 c 0
 551 107 557 109 567 111 c 1x4e
 585 3 l 1
 568 -5 543 -12 509 -12 c 0x8e
EndSplineSet
Validated: 1
EndChar

StartChar: zero
Encoding: 48 48 266
Width: 600
Flags: HMW
HStem: -12 114<286.5 331.5 286.5 373.5> 558 114<268.5 313.5>
VStem: 56 131<316 418.5 316 444> 413 131<245.5 348.5>
LayerCount: 2
Fore
SplineSet
300 -12 m 0
 153 -12 56 109 56 332 c 0
 56 556 153 672 300 672 c 0
 447 672 544 556 544 332 c 0
 544 109 447 -12 300 -12 c 0
191 246 m 1
 370 524 l 1
 351 548 327 558 300 558 c 0
 237 558 187 505 187 332 c 0
 187 300 189 272 191 246 c 1
300 102 m 0
 363 102 413 159 413 332 c 0
 413 365 412 394 409 417 c 1
 230 138 l 1
 249 113 273 102 300 102 c 0
EndSplineSet
Validated: 1
EndChar

StartChar: one
Encoding: 49 49 267
Width: 600
Flags: HMW
HStem: 0 119<82 246 82 246 393 537> 510 150<115 393>
VStem: 246 147<119 510 510 510>
LayerCount: 2
Fore
SplineSet
82 0 m 1
 82 119 l 1
 246 119 l 1
 246 510 l 1
 115 510 l 1
 115 601 l 1
 189 614 238 633 285 660 c 1
 393 660 l 1
 393 119 l 1
 537 119 l 1
 537 0 l 1
 82 0 l 1
EndSplineSet
Validated: 1
EndChar

StartChar: two
Encoding: 50 50 268
Width: 600
Flags: HMW
HStem: 0 124<384 535 384 535> 557 115<232.5 291>
VStem: 362 140<407.5 487.5>
LayerCount: 2
Fore
SplineSet
58 0 m 1
 58 84 l 1
 240 246 362 359 362 455 c 0
 362 520 324 557 258 557 c 0
 207 557 166 525 130 488 c 1
 51 568 l 1
 117 636 180 672 278 672 c 0
 411 672 502 590 502 464 c 0
 502 351 392 233 269 116 c 1
 305 120 351 124 384 124 c 2
 535 124 l 1
 535 0 l 1
 58 0 l 1
EndSplineSet
Validated: 1
EndChar

StartChar: three
Encoding: 51 51 269
Width: 600
Flags: HMW
HStem: -12 119<236 299.5 236 346> 286 104<192 254.5 192 266.5> 557 115<244 298>
VStem: 363 147<457.5 505.5> 384 147<162 218>
LayerCount: 2
Fore
SplineSet
279 -12 m 0xe8
 170 -12 91 26 42 81 c 1
 110 174 l 1
 152 135 207 107 265 107 c 0
 334 107 384 136 384 188 c 0xe8
 384 248 341 286 192 286 c 1
 192 390 l 1
 317 390 363 427 363 482 c 0
 363 529 327 557 269 557 c 0
 219 557 178 535 134 498 c 1
 60 588 l 1
 122 640 194 672 276 672 c 0
 414 672 510 607 510 492 c 0xf0
 510 423 465 375 389 345 c 1
 389 341 l 1
 469 319 531 265 531 179 c 0
 531 57 413 -12 279 -12 c 0xe8
EndSplineSet
Validated: 1
EndChar

StartChar: four
Encoding: 52 52 270
Width: 600
Flags: HMW
HStem: 0 21G<341 341 341 478> 160 112<177 341 177 341 478 558> 640 20G<214 361 361 361>
VStem: 341 137<0 160 0 160 272 433>
LayerCount: 2
Fore
SplineSet
341 0 m 1
 341 160 l 1
 35 160 l 1
 35 261 l 1
 214 660 l 1
 361 660 l 1
 177 272 l 1
 341 272 l 1
 341 433 l 1
 478 433 l 1
 478 272 l 1
 558 272 l 1
 558 160 l 1
 478 160 l 1
 478 0 l 1
 341 0 l 1
EndSplineSet
Validated: 1
EndChar

StartChar: five
Encoding: 53 53 271
Width: 600
Flags: HMW
HStem: -12 119<232 298 232 348.5> 319 104<298 302.5> 536 124<241 503 241 241>
VStem: 106 130 385 147<179 248>
LayerCount: 2
Fore
SplineSet
283 -12 m 0
 173 -12 98 28 46 80 c 1
 112 173 l 1
 154 136 202 107 262 107 c 0
 334 107 385 144 385 214 c 0
 385 282 336 319 269 319 c 0
 227 319 205 311 162 286 c 1
 97 328 l 1
 114 660 l 1
 503 660 l 1
 503 536 l 1
 241 536 l 1
 230 406 l 1
 259 418 282 423 314 423 c 0
 431 423 532 358 532 218 c 0
 532 71 414 -12 283 -12 c 0
EndSplineSet
Validated: 1
EndChar

StartChar: six
Encoding: 54 54 272
Width: 600
Flags: HMW
HStem: -12 110<289 339.5 289 378> 307 105<325 345> 553 119<308 368>
VStem: 60 136 411 134<170 242.5>
LayerCount: 2
Fore
SplineSet
317 -12 m 0
 187 -12 60 84 60 314 c 0
 60 562 194 672 334 672 c 0
 424 672 493 636 536 594 c 1
 459 506 l 1
 432 531 389 553 347 553 c 0
 269 553 202 498 196 339 c 1
 241 385 301 412 349 412 c 0
 460 412 545 347 545 208 c 0
 545 72 439 -12 317 -12 c 0
314 98 m 0
 365 98 411 132 411 208 c 0
 411 277 373 307 317 307 c 0
 280 307 239 289 200 241 c 1
 215 134 264 98 314 98 c 0
EndSplineSet
Validated: 1
EndChar

StartChar: seven
Encoding: 55 55 273
Width: 600
Flags: HMW
HStem: 0 21G<193 193 193 341> 536 124<62 381 62 539>
VStem: 193 148<0 0>
LayerCount: 2
Fore
SplineSet
193 0 m 1
 205 223 248 361 381 536 c 1
 62 536 l 1
 62 660 l 1
 539 660 l 1
 539 570 l 1
 378 384 353 258 341 0 c 1
 193 0 l 1
EndSplineSet
Validated: 1
EndChar

StartChar: eight
Encoding: 56 56 274
Width: 600
Flags: HMW
HStem: -12 102<270.5 332.5 270.5 376.5> 570 102<277.5 330>
VStem: 61 127<155.5 207.5 155.5 209> 88 129<463 517 463 547> 391 121<464 508> 403 137<147 206.5>
LayerCount: 2
Fore
SplineSet
299 -12 m 0xe4
 152 -12 61 62 61 168 c 0xe4
 61 250 115 298 181 332 c 1
 181 336 l 1
 128 374 88 422 88 491 c 0
 88 603 178 672 304 672 c 0
 431 672 512 600 512 492 c 0xd8
 512 430 471 380 421 346 c 1
 421 342 l 1
 488 308 540 259 540 170 c 0
 540 66 454 -12 299 -12 c 0xe4
343 382 m 1xd8
 375 413 391 446 391 482 c 0
 391 534 359 570 301 570 c 0
 254 570 217 543 217 491 c 0
 217 435 269 409 343 382 c 1xd8
303 90 m 0xe4
 362 90 403 119 403 175 c 0
 403 238 341 258 250 293 c 1
 214 266 188 230 188 185 c 0
 188 126 238 90 303 90 c 0xe4
EndSplineSet
Validated: 1
EndChar

StartChar: nine
Encoding: 57 57 275
Width: 600
Flags: HMW
HStem: -12 119<231 290.5 231 335> 248 104<253.5 273.5> 562 110<259 309>
VStem: 53 134<417 489.5 417 520> 403 135
LayerCount: 2
Fore
SplineSet
265 -12 m 0
 175 -12 106 24 62 66 c 1
 140 154 l 1
 166 128 210 107 252 107 c 0
 329 107 397 161 403 322 c 1
 357 275 297 248 250 248 c 0
 139 248 53 313 53 452 c 0
 53 588 159 672 281 672 c 0
 412 672 538 576 538 346 c 0
 538 98 405 -12 265 -12 c 0
282 352 m 0
 319 352 360 371 399 420 c 1
 383 526 334 562 284 562 c 0
 234 562 187 527 187 452 c 0
 187 382 225 352 282 352 c 0
EndSplineSet
Validated: 1
EndChar

StartChar: zero.alt
Encoding: 65537 -1 276
Width: 600
Flags: HMW
HStem: -12 114<268.5 331.5 268.5 373.5> 257 156<279 321> 558 114<268.5 331.5>
VStem: 56 131<245.5 418.5 245.5 444> 225 150<311 358.5> 413 131<245.5 418.5>
LayerCount: 2
Fore
SplineSet
300 -12 m 0
 153 -12 56 109 56 332 c 0
 56 556 153 672 300 672 c 0
 447 672 544 556 544 332 c 0
 544 109 447 -12 300 -12 c 0
300 102 m 0
 363 102 413 159 413 332 c 0
 413 505 363 558 300 558 c 0
 237 558 187 505 187 332 c 0
 187 159 237 102 300 102 c 0
300 257 m 0
 258 257 225 287 225 335 c 0
 225 382 258 413 300 413 c 0
 342 413 375 382 375 335 c 0
 375 287 342 257 300 257 c 0
EndSplineSet
Validated: 1
EndChar

StartChar: four.alt
Encoding: 65538 -1 277
Width: 600
Flags: HMW
HStem: 0 21G<341 341 341 478> 160 112<177 341 177 341 478 558> 534 126<342 346 342 342>
VStem: 341 137<0 160 0 160 272 392 392 412.5>
LayerCount: 2
Fore
SplineSet
341 0 m 1
 341 160 l 1
 35 160 l 1
 35 261 l 1
 300 660 l 1
 478 660 l 1
 478 272 l 1
 558 272 l 1
 558 160 l 1
 478 160 l 1
 478 0 l 1
 341 0 l 1
177 272 m 1
 341 272 l 1
 341 392 l 2
 341 433 344 493 346 534 c 1
 342 534 l 1
 321 497 295 460 273 423 c 2
 177 272 l 1
EndSplineSet
Validated: 1
EndChar

StartChar: zero.subs
Encoding: 65539 -1 278
Width: 600
Flags: HMW
HStem: -182 79<287.5 312.5 287.5 342.5> 75 79<287.5 312.5>
VStem: 152 100<-46 22 -46 39.5> 348 100<-46 22>
LayerCount: 2
Fore
SplineSet
300 -182 m 0
 215 -182 152 -116 152 -12 c 0
 152 91 215 154 300 154 c 0
 385 154 448 91 448 -12 c 0
 448 -116 385 -182 300 -182 c 0
300 -103 m 0
 325 -103 348 -80 348 -12 c 0
 348 56 325 75 300 75 c 0
 275 75 252 56 252 -12 c 0
 252 -80 275 -103 300 -103 c 0
EndSplineSet
Validated: 1
EndChar

StartChar: one.subs
Encoding: 65540 -1 279
Width: 600
Flags: HMW
HStem: 42 100<196 384>
VStem: 277 107<-170 42 42 42>
LayerCount: 2
Fore
SplineSet
277 -170 m 1
 277 42 l 1
 196 42 l 1
 196 106 l 1
 247 113 268 122 301 142 c 1
 384 142 l 1
 384 -170 l 1
 277 -170 l 1
EndSplineSet
Validated: 1
EndChar

StartChar: two.subs
Encoding: 65541 -1 280
Width: 600
Flags: HMW
HStem: -170 87<340 433 340 433> 68 86<265.5 289.5>
VStem: 172 261<-170 -115 -115 -115> 319 103<22 39.5>
LayerCount: 2
Fore
SplineSet
172 -170 m 1xa0
 172 -115 l 1xa0
 255 -61 319 -7 319 27 c 0
 319 52 304 68 275 68 c 0
 256 68 236 56 220 33 c 1
 158 89 l 1
 195 128 237 154 291 154 c 0
 370 154 422 113 422 45 c 0
 422 -1 382 -44 340 -83 c 1
 433 -83 l 1
 433 -170 l 1xd0
 172 -170 l 1xa0
EndSplineSet
Validated: 1
EndChar

StartChar: three.subs
Encoding: 65542 -1 281
Width: 600
Flags: HMW
HStem: -182 79<280.5 299.5 274 337.5> -39 55<257 276 257 282.5> -6 21G 75 79<276 291.5>
VStem: 318 104<47 56> 330 104<-84 -63.5 -111.5 -62.5>
LayerCount: 2
Fore
SplineSet
301 -182 m 0xb4
 260 -182 212 -175 165 -140 c 1
 206 -74 l 1
 227 -89 260 -103 288 -103 c 0
 311 -103 330 -94 330 -74 c 0xd4
 330 -51 308 -39 257 -39 c 1
 257 16 l 1xd8
 295 16 318 24 318 48 c 0
 318 64 304 75 279 75 c 0
 257 75 233 62 213 50 c 1
 171 112 l 1
 201 136 249 154 303 154 c 0
 369 154 422 118 422 65 c 0xb8
 422 29 408 8 368 -6 c 1
 415 -19 434 -45 434 -82 c 0
 434 -141 374 -182 301 -182 c 0xb4
EndSplineSet
Validated: 1
EndChar

StartChar: four.subs
Encoding: 65543 -1 282
Width: 600
Flags: HMW
HStem: -109 66<256 321 256 321 415 466> 78 64<323 327 323 323>
VStem: 321 94<-170 -109 -170 -109 -43 -21 -21 -21>
LayerCount: 2
Fore
SplineSet
321 -170 m 1
 321 -109 l 1
 161 -109 l 1
 161 -58 l 1
 281 142 l 1
 415 142 l 1
 415 -43 l 1
 466 -43 l 1
 466 -109 l 1
 415 -109 l 1
 415 -170 l 1
 321 -170 l 1
256 -43 m 1
 321 -43 l 1
 321 -21 l 1
 327 78 l 1
 323 78 l 1
 289 16 l 1
 256 -43 l 1
EndSplineSet
Validated: 1
EndChar

StartChar: five.subs
Encoding: 65544 -1 283
Width: 600
Flags: HMW
HStem: -182 79<279.5 300 273.5 340.5> -32 57<278 360> 54 88<288 421 288 288>
VStem: 201 85 332 104<-79.5 -56>
LayerCount: 2
Fore
SplineSet
302 -182 m 0
 257 -182 212 -175 165 -140 c 1
 206 -74 l 1
 228 -89 259 -103 288 -103 c 0
 312 -103 332 -91 332 -68 c 0
 332 -44 313 -32 288 -32 c 0
 268 -32 255 -37 237 -48 c 1
 194 -19 l 1xf8
 208 142 l 1
 421 142 l 1
 421 54 l 1
 288 54 l 1xb8
 284 19 l 1
 294 23 313 25 327 25 c 0xf8
 393 25 436 -11 436 -72 c 0
 436 -133 379 -182 302 -182 c 0
EndSplineSet
Validated: 1
EndChar

StartChar: six.subs
Encoding: 65545 -1 284
Width: 600
Flags: HMW
HStem: -182 79<298 318 298 347> -40 64<297.5 367> 75 79<307.5 345>
VStem: 161 97 342 94<-81 -61>
LayerCount: 2
Fore
SplineSet
311 -182 m 0
 217 -182 161 -113 161 -15 c 0
 161 75 218 154 325 154 c 0
 369 154 405 137 434 113 c 1
 393 52 l 1
 376 66 357 75 333 75 c 0
 282 75 263 40 258 -4 c 1
 279 14 305 24 337 24 c 0
 397 24 436 -9 436 -70 c 0
 436 -132 383 -182 311 -182 c 0
307 -103 m 0
 329 -103 342 -91 342 -71 c 0
 342 -51 329 -40 305 -40 c 0
 290 -40 274 -46 259 -58 c 1
 267 -93 289 -103 307 -103 c 0
EndSplineSet
Validated: 1
EndChar

StartChar: seven.subs
Encoding: 65546 -1 285
Width: 600
Flags: HMW
HStem: 55 87<177 323 177 441>
VStem: 177 264<86 142 86 142 86 142> 233 112<-170 -170>
LayerCount: 2
Fore
SplineSet
233 -170 m 1xa0
 239 -80 267 -24 323 55 c 1xa0
 177 55 l 1
 177 142 l 1
 441 142 l 1
 441 86 l 1xc0
 365 0 350 -65 345 -170 c 1
 233 -170 l 1xa0
EndSplineSet
Validated: 1
EndChar

StartChar: eight.subs
Encoding: 65547 -1 286
Width: 600
Flags: HMW
HStem: -182 68<288.5 311.5 288.5 339.5> -10 21G<227 227> -2 21G<373 373> 84 70<290.5 309>
VStem: 166 94<-92.5 -75.5 -92.5 -70> 175 94<51 67 51 90.5> 332 94<50 64> 340 94<-93.5 -74.5>
LayerCount: 2
Fore
SplineSet
300 -182 m 0xb9
 221 -182 166 -141 166 -91 c 0xb9
 166 -49 197 -28 227 -12 c 1
 227 -12 l 1xd5
 197 8 175 23 175 63 c 0
 175 118 232 154 300 154 c 0
 371 154 426 118 426 63 c 0xb6
 426 29 403 14 373 0 c 1
 373 -6 l 1
 408 -24 434 -43 434 -91 c 0
 434 -140 379 -182 300 -182 c 0xb9
313 24 m 1xb6
 326 32 332 44 332 56 c 0
 332 72 319 84 299 84 c 0
 282 84 269 74 269 60 c 0
 269 42 286 33 313 24 c 1xb6
300 -114 m 0xb9
 323 -114 340 -102 340 -85 c 0
 340 -64 317 -53 286 -44 c 1
 270 -52 260 -68 260 -83 c 0
 260 -102 277 -114 300 -114 c 0xb9
EndSplineSet
Validated: 1
EndChar

StartChar: nine.subs
Encoding: 65548 -1 287
Width: 600
Flags: HMW
HStem: -182 79<255 292.5 255 328.5> -52 63<233 302.5> 75 79<282 302>
VStem: 164 94<32 52.5 32 73> 342 97
LayerCount: 2
Fore
SplineSet
275 -182 m 0
 231 -182 195 -166 166 -141 c 1
 207 -81 l 1
 224 -95 243 -103 267 -103 c 0
 318 -103 337 -69 342 -25 c 1
 321 -42 295 -52 263 -52 c 0
 203 -52 164 -20 164 42 c 0
 164 104 217 154 289 154 c 0
 383 154 439 87 439 -12 c 0
 439 -101 382 -182 275 -182 c 0
295 11 m 0
 310 11 326 18 341 29 c 1
 333 65 311 75 293 75 c 0
 271 75 258 63 258 42 c 0
 258 22 271 11 295 11 c 0
EndSplineSet
Validated: 1
EndChar

StartChar: fraction
Encoding: 8260 8260 288
Width: 600
Flags: HMW
HStem: 28 596<92 508>
VStem: 17 566<101 551>
LayerCount: 2
Fore
SplineSet
397 377 m 1
 346 425 l 1
 508 624 l 1
 583 551 l 1
 397 377 l 1
92 28 m 1
 17 101 l 1
 203 274 l 1
 254 227 l 1
 92 28 l 1
EndSplineSet
Validated: 1
EndChar

StartChar: onehalf
Encoding: 189 189 289
Width: 600
Flags: HMW
HStem: 0 87<467 560 467 560> 238 86<392.5 416> 536 99<69 257>
VStem: 150 107<324 536 536 536> 299 261<0 55 55 55> 446 102<192 209.5>
LayerCount: 2
Fore
SplineSet
150 324 m 1xf8
 150 536 l 1
 69 536 l 1
 69 600 l 1
 120 606 142 615 174 635 c 1
 257 635 l 1
 257 324 l 1
 150 324 l 1xf8
397 377 m 1
 346 425 l 1
 508 624 l 1
 583 551 l 1
 397 377 l 1
299 0 m 1
 299 55 l 1xf8
 381 109 446 163 446 197 c 0
 446 222 430 238 402 238 c 0
 383 238 363 226 346 203 c 1
 285 259 l 1
 322 298 364 324 418 324 c 0
 497 324 548 283 548 215 c 0
 548 169 509 126 467 87 c 1
 560 87 l 1
 560 0 l 1xf4
 299 0 l 1
92 28 m 1
 17 101 l 1
 203 274 l 1
 254 227 l 1
 92 28 l 1
EndSplineSet
Validated: 1
EndChar

